<svg data-content="changed"  preserveAspectRatio=''  class='' id="analyticsSvg" xmlns="http://www.w3.org/2000/svg" width="352" height="52" viewBox="0 0 352 52">
  <g id="analytics">
    <rect id="_-.hover-" class="hover" data-name=" -.hover-" x="0.06" y="0.21" width="352" height="52" rx="12.9" fill="#fff"/>
    <g>
      <path d="M35.27,24.72H32.34a.56.56,0,0,0-.53.38L30,30.63a.56.56,0,0,1-1.06,0L25,18.8a.56.56,0,0,0-1.06,0l-1.84,5.54a.56.56,0,0,1-.53.38H18.61" fill="none" stroke="#7084b4" stroke-linecap="round" stroke-linejoin="round" stroke-width="1.6"/>
      <path d="M56.8,30.72h-.67a.56.56,0,0,1-.52-.75L59.4,19.45a.56.56,0,0,1,.52-.37h1.22a.56.56,0,0,1,.52.37L65.47,30a.56.56,0,0,1-.52.75h-.67a.56.56,0,0,1-.53-.38L60.59,21.2H60.5l-3.17,9.14A.56.56,0,0,1,56.8,30.72Zm1.27-4.56H63a.56.56,0,0,1,.56.56v.36a.56.56,0,0,1-.56.56H58.07a.56.56,0,0,1-.56-.56v-.36A.56.56,0,0,1,58.07,26.16Zm10.87-.62v4.62a.56.56,0,0,1-.56.56h-.53a.56.56,0,0,1-.56-.56V22.55a.56.56,0,0,1,.56-.56h.53a.56.56,0,0,1,.56.56v.86H69a2.5,2.5,0,0,1,1-1.11,2.93,2.93,0,0,1,1.63-.42,3.15,3.15,0,0,1,1.56.37,2.5,2.5,0,0,1,1,1.11,3.87,3.87,0,0,1,.37,1.81v5a.56.56,0,0,1-.56.56h-.58a.56.56,0,0,1-.56-.56V25.37a2.09,2.09,0,0,0-.49-1.48,1.74,1.74,0,0,0-1.36-.54,2.07,2.07,0,0,0-1,.26,1.74,1.74,0,0,0-.72.75A2.37,2.37,0,0,0,68.94,25.54Zm10.41,5.37a3.5,3.5,0,0,1-1.5-.3,2.53,2.53,0,0,1-1.06-.91,2.55,2.55,0,0,1-.39-1.45,2.29,2.29,0,0,1,.42-1.43,1.61,1.61,0,0,1,.57-.5,4.2,4.2,0,0,1,1.14-.46,8.41,8.41,0,0,1,1.22-.21L81,25.5a1.93,1.93,0,0,0,.71-.2.46.46,0,0,0,.22-.44h0a1.55,1.55,0,0,0-.42-1.16,1.7,1.7,0,0,0-1.24-.41,2.17,2.17,0,0,0-1.35.38,2.1,2.1,0,0,0-.51.52.59.59,0,0,1-.62.22l-1.14-.26a3.06,3.06,0,0,1,.83-1.29,3.22,3.22,0,0,1,1.26-.71,4.58,4.58,0,0,1,1.51-.23,5.17,5.17,0,0,1,1.11.12,3.12,3.12,0,0,1,1.1.45,2.43,2.43,0,0,1,.85.92A3.36,3.36,0,0,1,83.65,25v5.19a.56.56,0,0,1-.56.56H82V29.53h-.1a2.62,2.62,0,0,1-.5.65,2.69,2.69,0,0,1-.84.52,3.58,3.58,0,0,1-1.21.21Zm.37-1.36a2.39,2.39,0,0,0,1.2-.28,1.93,1.93,0,0,0,.77-.73,1.86,1.86,0,0,0,.27-1V26.42a1,1,0,0,1-.36.17,5.43,5.43,0,0,1-.58.13l-.64.09-.53.07a3.47,3.47,0,0,0-.9.21,1.58,1.58,0,0,0-.65.43,1.06,1.06,0,0,0-.24.73,1.08,1.08,0,0,0,.47,1,2.13,2.13,0,0,0,1.23.3Zm7.9-9.91V30.16a.56.56,0,0,1-.56.56H86.5a.56.56,0,0,1-.56-.56V19.64a.56.56,0,0,1,.56-.56h.56A.56.56,0,0,1,87.62,19.64ZM91,34a4,4,0,0,1-.69-.06,3.45,3.45,0,0,1-.46-.12l.26-.91a.54.54,0,0,1,.57-.4h.1A1.46,1.46,0,0,0,91.91,32a2.49,2.49,0,0,0,.29-.59l.21-.58-2.93-8.09A.56.56,0,0,1,90,22h.63a.56.56,0,0,1,.53.38l2.08,6.39h.09l2.09-6.39a.54.54,0,0,1,.52-.38h.64a.56.56,0,0,1,.52.75l-3.33,9.14a3.87,3.87,0,0,1-.76,1.3,1.9,1.9,0,0,1-.54.44A3,3,0,0,1,91,34ZM103,22v1.37H98.27V22Zm-2.93-2.09h.58a.56.56,0,0,1,.56.56v7.7a1.47,1.47,0,0,0,.15.74.79.79,0,0,0,.38.34,1.81,1.81,0,0,0,.51.08h.6l.31,1.4a2.17,2.17,0,0,1-.42.11,2.7,2.7,0,0,1-.69.07,3.15,3.15,0,0,1-1.25-.23,2.21,2.21,0,0,1-.93-.78,2.26,2.26,0,0,1-.36-1.31V20.46A.56.56,0,0,1,100.11,19.9Zm4.83,10.26V22.55a.56.56,0,0,1,.56-.56h.58a.56.56,0,0,1,.56.56v7.61a.56.56,0,0,1-.56.56h-.58A.56.56,0,0,1,104.94,30.16Zm.86-9.51a1.1,1.1,0,0,1-.77-.3,1,1,0,0,1-.31-.72,1,1,0,0,1,.31-.71,1.1,1.1,0,0,1,.77-.3,1,1,0,0,1,.75.3,1,1,0,0,1,.32.71,1,1,0,0,1-.32.72,1,1,0,0,1-.73.3Zm6.8,10.25a4,4,0,0,1-2.18-.58,3.72,3.72,0,0,1-1.4-1.59,5.78,5.78,0,0,1,0-4.68,3.83,3.83,0,0,1,1.41-1.6,3.93,3.93,0,0,1,2.14-.57,4,4,0,0,1,1.77.37,3.15,3.15,0,0,1,1.26,1,3,3,0,0,1,.57,1.54h-1.24a.54.54,0,0,1-.5-.33,2,2,0,0,0-.49-.74,1.85,1.85,0,0,0-1.29-.44,2,2,0,0,0-1.24.38,2.31,2.31,0,0,0-.83,1,4.06,4.06,0,0,0-.3,1.62,4.19,4.19,0,0,0,.3,1.64,2.4,2.4,0,0,0,.81,1.08,2.24,2.24,0,0,0,2.13.2,1.79,1.79,0,0,0,.67-.52,1.85,1.85,0,0,0,.38-.8h1.65a3.18,3.18,0,0,1-.55,1.51,3.24,3.24,0,0,1-1.23,1,4,4,0,0,1-1.82.51Zm11.94-6.78L123,24.4a2,2,0,0,0-.31-.57,1.45,1.45,0,0,0-.55-.43,2.41,2.41,0,0,0-2.09.15,1,1,0,0,0-.48.82.88.88,0,0,0,.32.71,2.63,2.63,0,0,0,1,.43l1.38.32a3.78,3.78,0,0,1,1.8.86,2,2,0,0,1,.59,1.51,2.29,2.29,0,0,1-.45,1.4,3,3,0,0,1-1.26,1,4.73,4.73,0,0,1-1.86.35,4.13,4.13,0,0,1-2.39-.63,2.64,2.64,0,0,1-1-1.14.56.56,0,0,1,.44-.75l.56-.08a.54.54,0,0,1,.58.3,1.49,1.49,0,0,0,.51.63,2.16,2.16,0,0,0,1.24.33,2.31,2.31,0,0,0,1.33-.35,1,1,0,0,0,.5-.86,1,1,0,0,0-.3-.69,2.13,2.13,0,0,0-.93-.42L120.26,27a3.6,3.6,0,0,1-1.81-.89,2.13,2.13,0,0,1-.58-1.54,2.18,2.18,0,0,1,.43-1.35,2.92,2.92,0,0,1,1.19-.9,4.39,4.39,0,0,1,1.75-.33,3.56,3.56,0,0,1,2.22.61,2.79,2.79,0,0,1,1.1,1.55Z" fill="#455273"/>
    </g>
  </g>
</svg>
