<svg width="462" height="962" viewBox="0 0 462 962" fill="none" xmlns="http://www.w3.org/2000/svg">
<g filter="url(#filter0_dd_133_2614)">
<mask id="path-1-inside-1_133_2614" fill="white">
<path d="M27 31H427V931H27V31Z"/>
</mask>
<path d="M27 31H427V931H27V31Z" fill="white"/>
<path d="M75.989 65.5363L72.1288 65.543L69.3655 61.8941C69.2314 61.717 69.1489 61.5055 69.1273 61.2834C69.1057 61.0613 69.1458 60.8375 69.2431 60.6373C69.3405 60.4371 69.4912 60.2685 69.6781 60.1505C69.8651 60.0325 70.081 59.9699 70.3012 59.9697L75.5526 59.9648C75.7339 59.9647 75.9128 60.0068 76.0755 60.088C76.2381 60.1692 76.3801 60.2872 76.4905 60.4329L77.6952 62.0238C78.7819 63.4587 77.7742 65.5332 75.989 65.5363Z" fill="url(#paint0_linear_133_2614)"/>
<path d="M73.4167 72.1015C73.4124 72.1015 73.4082 72.1015 73.404 72.1015L56.1838 72.1173C55.0554 72.1184 54.5689 70.6668 55.4642 69.97L60.9035 65.7368C61.1094 65.5767 61.3615 65.4897 61.6209 65.4895L72.1509 65.4797L76.01 65.473C77.7947 65.4699 78.802 63.3934 77.7157 61.9572L78.0901 62.4521C81.0701 66.3922 78.3086 72.087 73.4167 72.1015Z" fill="#0894E4"/>
<path d="M59.608 57.6804L63.4683 57.6737L66.2315 61.3226C66.3656 61.4997 66.4482 61.7112 66.4698 61.9333C66.4914 62.1554 66.4513 62.3792 66.354 62.5794C66.2566 62.7796 66.1059 62.9482 65.919 63.0662C65.732 63.1842 65.5161 63.2468 65.2958 63.247L60.0445 63.2518C59.8632 63.252 59.6842 63.2099 59.5216 63.1287C59.359 63.0475 59.217 62.9295 59.1066 62.7838L57.9019 61.1929C56.8152 59.758 57.8229 57.6835 59.608 57.6804Z" fill="url(#paint1_linear_133_2614)"/>
<path d="M62.1577 51.0158C62.1619 51.0158 62.1661 51.0158 62.1703 51.0158L79.3211 51C80.4449 50.999 80.9294 52.4506 80.0378 53.1473L74.6203 57.3805C74.4153 57.5407 74.1642 57.6276 73.9058 57.6279L63.4183 57.6376L59.5748 57.6444C57.7973 57.6474 56.7941 59.7239 57.876 61.1602L57.5031 60.6652C54.5351 56.7251 57.2854 51.0303 62.1577 51.0158Z" fill="#27AE60"/>
<path d="M87.3535 60.635V65.0782C87.3535 66.0473 88.091 66.2272 89.4228 66.1812C89.4846 66.179 89.5463 66.1894 89.6041 66.2118C89.6619 66.2343 89.7147 66.2683 89.7593 66.3119C89.8038 66.3555 89.8393 66.4078 89.8635 66.4656C89.8878 66.5234 89.9003 66.5856 89.9004 66.6484V69.1449C89.9005 69.2622 89.8571 69.3752 89.7789 69.4616C89.7007 69.5479 89.5934 69.6012 89.4783 69.6109C84.9715 69.984 83.6444 68.4883 83.6444 65.0782V60.635H82.1268C82.0047 60.635 81.8875 60.5857 81.8012 60.4981C81.7148 60.4104 81.6663 60.2915 81.6663 60.1674V57.4878C81.6663 57.3638 81.7148 57.2449 81.8012 57.1572C81.8875 57.0695 82.0047 57.0202 82.1268 57.0202H83.6444V54.9834C83.6444 54.8828 83.6764 54.785 83.7355 54.7043C83.7946 54.6236 83.8778 54.5645 83.9726 54.5356L86.7606 53.6865C86.8293 53.6655 86.902 53.6612 86.9727 53.6738C87.0434 53.6864 87.1102 53.7157 87.1678 53.7592C87.2254 53.8027 87.2722 53.8593 87.3045 53.9244C87.3367 53.9895 87.3535 54.0614 87.3535 54.1343V57.0202H89.4398C89.5619 57.0202 89.6791 57.0695 89.7655 57.1572C89.8518 57.2449 89.9004 57.3638 89.9004 57.4878V60.1674C89.9004 60.2915 89.8518 60.4104 89.7655 60.4981C89.6791 60.5857 89.5619 60.635 89.4398 60.635H87.3535Z" fill="black"/>
<path d="M104.484 57.5064V69.1479C104.484 69.2722 104.435 69.3914 104.348 69.4792C104.261 69.5671 104.143 69.6165 104.02 69.6165H101.213C101.091 69.6165 100.973 69.5671 100.886 69.4792C100.799 69.3914 100.75 69.2722 100.75 69.1479V68.4341C99.9283 69.3901 98.7085 69.9687 97.0407 69.9687C93.7796 69.9687 91.0911 67.0756 91.0911 63.3272C91.0911 59.5788 93.7796 56.6857 97.0407 56.6857C98.7085 56.6857 99.9283 57.2643 100.75 58.2203V57.5064C100.75 57.3822 100.799 57.263 100.886 57.1751C100.973 57.0872 101.091 57.0379 101.213 57.0379H104.02C104.143 57.0379 104.261 57.0872 104.348 57.1751C104.435 57.263 104.484 57.3822 104.484 57.5064V57.5064ZM100.75 63.3272C100.75 61.4404 99.5051 60.258 97.7875 60.258C96.0698 60.258 94.8251 61.4404 94.8251 63.3272C94.8251 65.214 96.0698 66.3964 97.7875 66.3964C99.5051 66.3964 100.75 65.214 100.75 63.3272Z" fill="black"/>
<path d="M119.495 57.0379C119.618 57.0379 119.736 57.0872 119.823 57.1751C119.91 57.263 119.959 57.3822 119.959 57.5064V68.9875C119.959 73.214 116.698 75.0001 113.387 75.0001C110.982 75.0001 108.943 74.1536 107.747 72.3799C107.712 72.3267 107.687 72.2667 107.676 72.2036C107.665 72.1405 107.666 72.0758 107.681 72.0134C107.695 71.951 107.722 71.8922 107.76 71.8408C107.798 71.7894 107.846 71.7464 107.901 71.7145L110.282 70.3232C110.382 70.2641 110.501 70.2454 110.614 70.2708C110.728 70.2961 110.828 70.3637 110.894 70.46C111.372 71.1621 112.104 71.6794 113.512 71.6794C115.254 71.6794 116.325 70.7737 116.325 68.9875V67.8303C115.503 68.8618 114.308 69.4655 112.69 69.4655C109.155 69.4655 106.566 66.5473 106.566 63.0756C106.566 59.6039 109.155 56.6857 112.69 56.6857C114.308 56.6857 115.503 57.2895 116.325 58.3209V57.5064C116.325 57.3822 116.373 57.263 116.46 57.1751C116.547 57.0872 116.665 57.0379 116.788 57.0379H119.495ZM116.325 63.0756C116.325 61.3398 115.08 60.1574 113.312 60.1574C111.545 60.1574 110.3 61.3398 110.3 63.0756C110.3 64.8114 111.545 65.9938 113.312 65.9938C115.08 65.9938 116.325 64.8114 116.325 63.0756H116.325Z" fill="black"/>
<path d="M128.962 66.5976C129.838 66.5976 130.603 66.2991 131.116 65.8629C131.188 65.8012 131.277 65.7637 131.372 65.7553C131.466 65.7469 131.56 65.768 131.642 65.8159L133.856 67.1072C133.915 67.1418 133.966 67.1891 134.005 67.2459C134.044 67.3027 134.07 67.3675 134.081 67.4357C134.093 67.5039 134.089 67.5738 134.07 67.6404C134.052 67.707 134.019 67.7686 133.975 67.8209C132.768 69.2401 131.056 69.9687 128.913 69.9687C124.672 69.9687 122.043 67.0756 122.043 63.3272C122.043 59.5788 124.721 56.6857 128.64 56.6857C132.261 56.6857 134.939 59.5284 134.939 63.3272C134.942 63.8342 134.892 64.3401 134.791 64.8366H125.986C126.457 66.1448 127.598 66.5976 128.962 66.5976ZM131.244 62.019C130.847 60.5599 129.731 60.0316 128.615 60.0316C127.201 60.0316 126.259 60.736 125.912 62.019H131.244Z" fill="black"/>
<path d="M146.15 65.8429C146.15 68.736 143.674 69.9687 141 69.9687C138.698 69.9687 136.911 69.143 135.894 67.3907C135.864 67.3372 135.844 67.2782 135.836 67.2169C135.828 67.1556 135.832 67.0934 135.848 67.0337C135.864 66.9741 135.892 66.9183 135.929 66.8695C135.966 66.8207 136.013 66.7799 136.066 66.7495L138.452 65.3693C138.506 65.3388 138.565 65.3193 138.626 65.3121C138.687 65.3049 138.749 65.3101 138.808 65.3273C138.867 65.3445 138.922 65.3734 138.969 65.4125C139.017 65.4515 139.057 65.4997 139.087 65.5545C139.458 66.2305 140.091 66.5976 141 66.5976C141.891 66.5976 142.337 66.3209 142.337 65.8177C142.337 64.4341 136.246 65.1637 136.246 60.8115C136.246 58.0693 138.524 56.6857 141.099 56.6857C142.931 56.6857 144.578 57.4417 145.641 58.9347C145.679 58.9888 145.706 59.0505 145.719 59.1158C145.732 59.1811 145.73 59.2483 145.716 59.3132C145.701 59.378 145.673 59.4389 145.633 59.4917C145.593 59.5446 145.542 59.5882 145.485 59.6196L143.137 60.9053C143.04 60.9591 142.926 60.9753 142.818 60.9506C142.71 60.926 142.614 60.8624 142.548 60.7714C142.216 60.3067 141.764 60.0064 141.099 60.0064C140.455 60.0064 140.059 60.258 140.059 60.7108C140.059 62.1448 146.15 61.1888 146.15 65.8429Z" fill="black"/>
<path d="M154.161 66.5976C155.037 66.5976 155.802 66.2992 156.314 65.8629C156.387 65.8013 156.476 65.7637 156.57 65.7553C156.664 65.7469 156.759 65.7681 156.841 65.8159L159.055 67.1072C159.114 67.1418 159.165 67.1891 159.204 67.2459C159.243 67.3027 159.269 67.3675 159.28 67.4357C159.291 67.5039 159.288 67.5738 159.269 67.6404C159.251 67.707 159.218 67.7686 159.174 67.8209C157.967 69.2401 156.255 69.9687 154.111 69.9687C149.87 69.9687 147.241 67.0756 147.241 63.3272C147.241 59.5788 149.92 56.6857 153.839 56.6857C157.46 56.6857 160.138 59.5284 160.138 63.3272C160.14 63.8342 160.09 64.3401 159.989 64.8366H151.185C151.656 66.1448 152.797 66.5976 154.161 66.5976ZM156.443 62.019C156.046 60.5599 154.93 60.0316 153.814 60.0316C152.4 60.0316 151.458 60.736 151.11 62.019H156.443Z" fill="black"/>
<path d="M166.619 60.635V65.0782C166.619 66.0473 167.357 66.2272 168.689 66.1812C168.751 66.179 168.812 66.1894 168.87 66.2118C168.928 66.2343 168.981 66.2683 169.025 66.3119C169.07 66.3555 169.105 66.4078 169.129 66.4656C169.154 66.5234 169.166 66.5856 169.166 66.6484V69.1449C169.166 69.2622 169.123 69.3752 169.045 69.4616C168.967 69.5479 168.859 69.6012 168.744 69.6109C164.237 69.984 162.91 68.4883 162.91 65.0782V60.635H161.393C161.271 60.635 161.153 60.5857 161.067 60.4981C160.981 60.4104 160.932 60.2915 160.932 60.1674V57.4878C160.932 57.3638 160.981 57.2449 161.067 57.1572C161.153 57.0695 161.271 57.0202 161.393 57.0202H162.91V54.9834C162.91 54.8828 162.942 54.785 163.001 54.7043C163.06 54.6236 163.144 54.5644 163.238 54.5356L166.026 53.6865C166.095 53.6655 166.168 53.6612 166.239 53.6738C166.309 53.6864 166.376 53.7157 166.434 53.7592C166.491 53.8027 166.538 53.8593 166.57 53.9244C166.603 53.9895 166.619 54.0614 166.619 54.1343V57.0202H168.706C168.828 57.0202 168.945 57.0695 169.031 57.1572C169.118 57.2449 169.166 57.3638 169.166 57.4878V60.1674C169.166 60.2915 169.118 60.4104 169.031 60.4981C168.945 60.5857 168.828 60.635 168.706 60.635H166.619Z" fill="black"/>
<rect x="312" y="47" width="91" height="32" rx="8" fill="#0073F5"/>
<path d="M337.333 70.5V68.8333C337.333 67.9493 336.982 67.1014 336.357 66.4763C335.732 65.8512 334.884 65.5 334 65.5H328.167C327.283 65.5 326.435 65.8512 325.81 66.4763C325.184 67.1014 324.833 67.9493 324.833 68.8333V70.5" stroke="white" stroke-width="1.6" stroke-linecap="round" stroke-linejoin="round"/>
<path d="M331.083 62.1667C332.924 62.1667 334.417 60.6743 334.417 58.8333C334.417 56.9924 332.924 55.5 331.083 55.5C329.242 55.5 327.75 56.9924 327.75 58.8333C327.75 60.6743 329.242 62.1667 331.083 62.1667Z" stroke="white" stroke-width="1.6" stroke-linecap="round" stroke-linejoin="round"/>
<path d="M340.667 59.6666V64.6666" stroke="white" stroke-width="1.6" stroke-linecap="round" stroke-linejoin="round"/>
<path d="M343.167 62.1666H338.167" stroke="white" stroke-width="1.6" stroke-linecap="round" stroke-linejoin="round"/>
<path d="M358.672 60.4929C358.619 60.0223 358.4 59.6577 358.016 59.3991C357.631 59.1373 357.147 59.0064 356.564 59.0064C356.146 59.0064 355.785 59.0727 355.48 59.2053C355.175 59.3345 354.938 59.5135 354.769 59.7422C354.603 59.9676 354.521 60.2244 354.521 60.5128C354.521 60.7547 354.577 60.9635 354.69 61.1392C354.806 61.3149 354.956 61.4624 355.142 61.5817C355.331 61.6977 355.533 61.7955 355.749 61.875C355.964 61.9512 356.171 62.0142 356.37 62.0639L357.364 62.3224C357.689 62.402 358.022 62.5097 358.364 62.6456C358.705 62.7815 359.022 62.9605 359.313 63.1825C359.605 63.4046 359.84 63.6797 360.019 64.0078C360.201 64.3359 360.293 64.7287 360.293 65.1861C360.293 65.7628 360.143 66.2749 359.845 66.7223C359.55 67.1697 359.121 67.5227 358.558 67.7812C357.997 68.0398 357.32 68.169 356.524 68.169C355.762 68.169 355.102 68.0481 354.545 67.8061C353.989 67.5642 353.553 67.2211 353.238 66.777C352.923 66.3295 352.749 65.7992 352.716 65.1861H354.257C354.287 65.554 354.406 65.8606 354.615 66.1058C354.827 66.3478 355.097 66.5284 355.425 66.6477C355.757 66.7637 356.12 66.8217 356.514 66.8217C356.948 66.8217 357.335 66.7538 357.673 66.6179C358.014 66.4787 358.282 66.2865 358.478 66.0412C358.674 65.7926 358.771 65.5026 358.771 65.1712C358.771 64.8696 358.685 64.6226 358.513 64.4304C358.344 64.2382 358.113 64.0791 357.822 63.9531C357.533 63.8272 357.207 63.7161 356.842 63.62L355.639 63.2919C354.824 63.0698 354.178 62.7434 353.7 62.3125C353.226 61.8816 352.989 61.3116 352.989 60.6023C352.989 60.0156 353.148 59.5036 353.467 59.0661C353.785 58.6286 354.216 58.2888 354.759 58.0469C355.303 57.8016 355.916 57.679 356.599 57.679C357.288 57.679 357.896 57.8 358.423 58.0419C358.954 58.2839 359.371 58.617 359.676 59.0412C359.981 59.4621 360.14 59.946 360.153 60.4929H358.672ZM363.496 63.4659V68H362.009V57.8182H363.476V61.6065H363.57C363.749 61.1955 364.023 60.8691 364.39 60.6271C364.758 60.3852 365.239 60.2642 365.832 60.2642C366.356 60.2642 366.813 60.3719 367.204 60.5874C367.599 60.8028 367.904 61.1243 368.119 61.5518C368.338 61.9761 368.447 62.5064 368.447 63.1428V68H366.961V63.3217C366.961 62.7616 366.817 62.3274 366.528 62.0192C366.24 61.7076 365.839 61.5518 365.325 61.5518C364.974 61.5518 364.659 61.6264 364.381 61.7756C364.105 61.9247 363.888 62.1435 363.729 62.4318C363.573 62.7169 363.496 63.0616 363.496 63.4659ZM372.653 68.169C372.169 68.169 371.732 68.0795 371.341 67.9006C370.95 67.7183 370.64 67.4548 370.411 67.1101C370.186 66.7654 370.073 66.3428 370.073 65.8423C370.073 65.4115 370.156 65.0568 370.322 64.7784C370.487 64.5 370.711 64.2796 370.993 64.1172C371.274 63.9548 371.589 63.8321 371.937 63.7493C372.285 63.6664 372.64 63.6035 373.001 63.5604C373.459 63.5073 373.83 63.4643 374.115 63.4311C374.4 63.3946 374.607 63.3366 374.736 63.2571C374.866 63.1776 374.93 63.0483 374.93 62.8693V62.8345C374.93 62.4003 374.808 62.0639 374.562 61.8253C374.32 61.5866 373.959 61.4673 373.479 61.4673C372.978 61.4673 372.584 61.5784 372.295 61.8004C372.01 62.0192 371.813 62.2628 371.704 62.5312L370.307 62.2131C370.472 61.7491 370.714 61.3745 371.032 61.0895C371.354 60.8011 371.724 60.5923 372.141 60.4631C372.559 60.3305 372.998 60.2642 373.459 60.2642C373.764 60.2642 374.087 60.3007 374.428 60.3736C374.773 60.4432 375.094 60.5724 375.393 60.7614C375.694 60.9503 375.941 61.2204 376.133 61.5717C376.326 61.9197 376.422 62.3722 376.422 62.929V68H374.97V66.956H374.91C374.814 67.1482 374.67 67.3371 374.478 67.5227C374.286 67.7083 374.039 67.8625 373.737 67.9851C373.435 68.1077 373.074 68.169 372.653 68.169ZM372.976 66.9759C373.387 66.9759 373.739 66.8946 374.03 66.7322C374.325 66.5698 374.549 66.3577 374.702 66.0959C374.857 65.8307 374.935 65.5473 374.935 65.2457V64.2614C374.882 64.3144 374.779 64.3641 374.627 64.4105C374.478 64.4536 374.307 64.4917 374.115 64.5249C373.923 64.5547 373.735 64.5829 373.553 64.6094C373.371 64.6326 373.218 64.6525 373.096 64.669C372.807 64.7055 372.544 64.7668 372.305 64.853C372.07 64.9392 371.881 65.0634 371.738 65.2259C371.599 65.3849 371.53 65.5971 371.53 65.8622C371.53 66.2301 371.666 66.5085 371.937 66.6974C372.209 66.883 372.555 66.9759 372.976 66.9759ZM378.402 68V60.3636H379.838V61.5767H379.918C380.057 61.1657 380.302 60.8426 380.654 60.6072C381.008 60.3686 381.409 60.2493 381.857 60.2493C381.95 60.2493 382.059 60.2526 382.185 60.2592C382.314 60.2659 382.415 60.2741 382.488 60.2841V61.706C382.429 61.6894 382.323 61.6712 382.17 61.6513C382.018 61.6281 381.865 61.6165 381.713 61.6165C381.361 61.6165 381.048 61.6911 380.773 61.8402C380.501 61.986 380.286 62.1899 380.127 62.4517C379.968 62.7102 379.888 63.0052 379.888 63.3366V68H378.402ZM386.792 68.1541C386.04 68.1541 385.392 67.9934 384.849 67.6719C384.308 67.3471 383.891 66.8913 383.596 66.3047C383.304 65.7147 383.158 65.0237 383.158 64.2315C383.158 63.4493 383.304 62.7599 383.596 62.1634C383.891 61.5668 384.302 61.1011 384.829 60.7663C385.359 60.4316 385.979 60.2642 386.688 60.2642C387.119 60.2642 387.537 60.3355 387.941 60.478C388.345 60.6205 388.708 60.8442 389.03 61.1491C389.351 61.4541 389.605 61.8501 389.79 62.3374C389.976 62.8213 390.069 63.4096 390.069 64.1023V64.6293H383.998V63.5156H388.612C388.612 63.1245 388.532 62.7782 388.373 62.4766C388.214 62.1716 387.991 61.9313 387.702 61.7557C387.417 61.58 387.082 61.4922 386.698 61.4922C386.28 61.4922 385.916 61.5949 385.604 61.8004C385.296 62.0026 385.057 62.2678 384.888 62.5959C384.723 62.9207 384.64 63.2737 384.64 63.6548V64.5249C384.64 65.0353 384.729 65.4695 384.908 65.8274C385.09 66.1854 385.344 66.4588 385.669 66.6477C385.994 66.8333 386.373 66.9261 386.807 66.9261C387.089 66.9261 387.346 66.8864 387.578 66.8068C387.81 66.724 388.01 66.6013 388.18 66.4389C388.349 66.2765 388.478 66.076 388.567 65.8374L389.974 66.0909C389.862 66.5052 389.659 66.8681 389.368 67.1797C389.079 67.4879 388.716 67.7282 388.279 67.9006C387.845 68.0696 387.349 68.1541 386.792 68.1541Z" fill="white"/>
<g filter="url(#filter1_dddd_133_2614)">
<g clip-path="url(#clip0_133_2614)">
<rect x="51" y="103" width="352" height="52" rx="12" fill="#F9FBFF"/>
<g clip-path="url(#clip1_133_2614)">
<path d="M51 115C51 108.373 56.3726 103 63 103H391C397.627 103 403 108.373 403 115V155H51V115Z" fill="#F9FBFF"/>
<path d="M68 125.5L73 130.5L78 125.5" stroke="#7084B4" stroke-width="1.6" stroke-linecap="round" stroke-linejoin="round"/>
<path d="M102.557 135L99.3295 123.364H101.176L103.443 132.375H103.551L105.909 123.364H107.739L110.097 132.381H110.205L112.466 123.364H114.318L111.085 135H109.318L106.869 126.284H106.778L104.33 135H102.557ZM118.685 135.176C117.825 135.176 117.084 134.992 116.463 134.625C115.846 134.254 115.368 133.733 115.031 133.062C114.698 132.388 114.531 131.598 114.531 130.693C114.531 129.799 114.698 129.011 115.031 128.33C115.368 127.648 115.838 127.116 116.44 126.733C117.046 126.35 117.755 126.159 118.565 126.159C119.058 126.159 119.535 126.241 119.997 126.403C120.459 126.566 120.874 126.822 121.241 127.17C121.609 127.519 121.899 127.972 122.111 128.528C122.323 129.081 122.429 129.754 122.429 130.545V131.148H115.491V129.875H120.764C120.764 129.428 120.673 129.032 120.491 128.688C120.31 128.339 120.054 128.064 119.724 127.864C119.399 127.663 119.016 127.562 118.577 127.562C118.099 127.562 117.683 127.68 117.327 127.915C116.974 128.146 116.702 128.449 116.509 128.824C116.319 129.195 116.224 129.598 116.224 130.034V131.028C116.224 131.612 116.327 132.108 116.531 132.517C116.74 132.926 117.029 133.239 117.401 133.455C117.772 133.667 118.205 133.773 118.702 133.773C119.024 133.773 119.317 133.727 119.582 133.636C119.848 133.542 120.077 133.402 120.27 133.216C120.463 133.03 120.611 132.801 120.713 132.528L122.321 132.818C122.192 133.292 121.961 133.706 121.628 134.062C121.298 134.415 120.884 134.689 120.384 134.886C119.887 135.08 119.321 135.176 118.685 135.176ZM126.013 123.364V135H124.314V123.364H126.013ZM131.974 135.176C131.13 135.176 130.402 134.985 129.793 134.602C129.187 134.216 128.721 133.684 128.395 133.006C128.069 132.328 127.906 131.551 127.906 130.676C127.906 129.79 128.073 129.008 128.406 128.33C128.74 127.648 129.209 127.116 129.815 126.733C130.421 126.35 131.135 126.159 131.957 126.159C132.62 126.159 133.211 126.282 133.73 126.528C134.249 126.771 134.668 127.112 134.986 127.551C135.308 127.991 135.499 128.504 135.56 129.091H133.906C133.815 128.682 133.607 128.33 133.281 128.034C132.959 127.739 132.527 127.591 131.986 127.591C131.512 127.591 131.098 127.716 130.741 127.966C130.389 128.212 130.115 128.564 129.918 129.023C129.721 129.477 129.622 130.015 129.622 130.636C129.622 131.273 129.719 131.822 129.912 132.284C130.105 132.746 130.378 133.104 130.73 133.358C131.086 133.612 131.505 133.739 131.986 133.739C132.308 133.739 132.599 133.68 132.861 133.562C133.126 133.441 133.348 133.269 133.526 133.045C133.707 132.822 133.834 132.553 133.906 132.239H135.56C135.499 132.803 135.315 133.307 135.009 133.75C134.702 134.193 134.291 134.542 133.776 134.795C133.264 135.049 132.664 135.176 131.974 135.176ZM141.053 135.176C140.234 135.176 139.52 134.989 138.911 134.614C138.301 134.239 137.827 133.714 137.49 133.04C137.153 132.366 136.984 131.578 136.984 130.676C136.984 129.771 137.153 128.979 137.49 128.301C137.827 127.623 138.301 127.097 138.911 126.722C139.52 126.347 140.234 126.159 141.053 126.159C141.871 126.159 142.585 126.347 143.195 126.722C143.804 127.097 144.278 127.623 144.615 128.301C144.952 128.979 145.121 129.771 145.121 130.676C145.121 131.578 144.952 132.366 144.615 133.04C144.278 133.714 143.804 134.239 143.195 134.614C142.585 134.989 141.871 135.176 141.053 135.176ZM141.058 133.75C141.589 133.75 142.028 133.61 142.376 133.33C142.725 133.049 142.982 132.676 143.149 132.21C143.32 131.744 143.405 131.231 143.405 130.67C143.405 130.114 143.32 129.602 143.149 129.136C142.982 128.667 142.725 128.29 142.376 128.006C142.028 127.722 141.589 127.58 141.058 127.58C140.524 127.58 140.081 127.722 139.729 128.006C139.38 128.29 139.121 128.667 138.95 129.136C138.784 129.602 138.7 130.114 138.7 130.67C138.7 131.231 138.784 131.744 138.95 132.21C139.121 132.676 139.38 133.049 139.729 133.33C140.081 133.61 140.524 133.75 141.058 133.75ZM147.017 135V126.273H148.648V127.693H148.756C148.938 127.212 149.235 126.837 149.648 126.568C150.061 126.295 150.555 126.159 151.131 126.159C151.714 126.159 152.203 126.295 152.597 126.568C152.994 126.841 153.288 127.216 153.477 127.693H153.568C153.777 127.227 154.108 126.856 154.562 126.58C155.017 126.299 155.559 126.159 156.188 126.159C156.979 126.159 157.625 126.407 158.125 126.903C158.629 127.4 158.881 128.148 158.881 129.148V135H157.182V129.307C157.182 128.716 157.021 128.288 156.699 128.023C156.377 127.758 155.992 127.625 155.545 127.625C154.992 127.625 154.562 127.795 154.256 128.136C153.949 128.473 153.795 128.907 153.795 129.438V135H152.102V129.199C152.102 128.725 151.955 128.345 151.659 128.057C151.364 127.769 150.979 127.625 150.506 127.625C150.184 127.625 149.886 127.71 149.614 127.881C149.345 128.047 149.127 128.28 148.96 128.58C148.797 128.879 148.716 129.225 148.716 129.619V135H147.017ZM164.919 135.176C164.059 135.176 163.319 134.992 162.697 134.625C162.08 134.254 161.603 133.733 161.266 133.062C160.932 132.388 160.766 131.598 160.766 130.693C160.766 129.799 160.932 129.011 161.266 128.33C161.603 127.648 162.072 127.116 162.675 126.733C163.281 126.35 163.989 126.159 164.8 126.159C165.292 126.159 165.769 126.241 166.232 126.403C166.694 126.566 167.108 126.822 167.476 127.17C167.843 127.519 168.133 127.972 168.345 128.528C168.557 129.081 168.663 129.754 168.663 130.545V131.148H161.726V129.875H166.999C166.999 129.428 166.908 129.032 166.726 128.688C166.544 128.339 166.288 128.064 165.959 127.864C165.633 127.663 165.25 127.562 164.811 127.562C164.334 127.562 163.917 127.68 163.561 127.915C163.209 128.146 162.936 128.449 162.743 128.824C162.554 129.195 162.459 129.598 162.459 130.034V131.028C162.459 131.612 162.561 132.108 162.766 132.517C162.974 132.926 163.264 133.239 163.635 133.455C164.006 133.667 164.44 133.773 164.936 133.773C165.258 133.773 165.552 133.727 165.817 133.636C166.082 133.542 166.311 133.402 166.504 133.216C166.697 133.03 166.845 132.801 166.947 132.528L168.555 132.818C168.427 133.292 168.196 133.706 167.862 134.062C167.533 134.415 167.118 134.689 166.618 134.886C166.122 135.08 165.555 135.176 164.919 135.176ZM172.759 133.409L172.673 134.028C172.616 134.483 172.52 134.956 172.384 135.449C172.251 135.945 172.113 136.405 171.969 136.83C171.829 137.254 171.713 137.591 171.622 137.841H170.418C170.467 137.606 170.535 137.288 170.622 136.886C170.709 136.489 170.795 136.044 170.878 135.551C170.961 135.059 171.024 134.557 171.065 134.045L171.122 133.409H172.759ZM179.886 136.432V121.938H183.619V123.284H181.511V135.085H183.619V136.432H179.886ZM194.78 123.364V135H193.166L187.251 126.466H187.143V135H185.388V123.364H187.013L192.933 131.909H193.041V123.364H194.78ZM199.744 135.193C199.191 135.193 198.691 135.091 198.244 134.886C197.797 134.678 197.443 134.377 197.182 133.983C196.924 133.589 196.795 133.106 196.795 132.534C196.795 132.042 196.89 131.636 197.08 131.318C197.269 131 197.525 130.748 197.847 130.562C198.169 130.377 198.528 130.237 198.926 130.142C199.324 130.047 199.729 129.975 200.142 129.926C200.665 129.866 201.089 129.816 201.415 129.778C201.741 129.737 201.977 129.67 202.125 129.58C202.273 129.489 202.347 129.341 202.347 129.136V129.097C202.347 128.6 202.206 128.216 201.926 127.943C201.65 127.67 201.237 127.534 200.688 127.534C200.116 127.534 199.665 127.661 199.335 127.915C199.009 128.165 198.784 128.443 198.659 128.75L197.062 128.386C197.252 127.856 197.528 127.428 197.892 127.102C198.259 126.773 198.682 126.534 199.159 126.386C199.636 126.235 200.138 126.159 200.665 126.159C201.013 126.159 201.383 126.201 201.773 126.284C202.167 126.364 202.534 126.511 202.875 126.727C203.22 126.943 203.502 127.252 203.722 127.653C203.941 128.051 204.051 128.568 204.051 129.205V135H202.392V133.807H202.324C202.214 134.027 202.049 134.242 201.83 134.455C201.61 134.667 201.328 134.843 200.983 134.983C200.638 135.123 200.225 135.193 199.744 135.193ZM200.114 133.83C200.583 133.83 200.985 133.737 201.318 133.551C201.655 133.366 201.911 133.123 202.085 132.824C202.263 132.521 202.352 132.197 202.352 131.852V130.727C202.292 130.788 202.174 130.845 202 130.898C201.83 130.947 201.634 130.991 201.415 131.028C201.195 131.062 200.981 131.095 200.773 131.125C200.564 131.152 200.39 131.174 200.25 131.193C199.92 131.235 199.619 131.305 199.347 131.403C199.078 131.502 198.862 131.644 198.699 131.83C198.54 132.011 198.46 132.254 198.46 132.557C198.46 132.977 198.616 133.295 198.926 133.511C199.237 133.723 199.633 133.83 200.114 133.83ZM206.314 135V126.273H207.945V127.693H208.053C208.234 127.212 208.532 126.837 208.945 126.568C209.357 126.295 209.852 126.159 210.428 126.159C211.011 126.159 211.5 126.295 211.893 126.568C212.291 126.841 212.585 127.216 212.774 127.693H212.865C213.073 127.227 213.405 126.856 213.859 126.58C214.314 126.299 214.856 126.159 215.484 126.159C216.276 126.159 216.922 126.407 217.422 126.903C217.926 127.4 218.178 128.148 218.178 129.148V135H216.479V129.307C216.479 128.716 216.318 128.288 215.996 128.023C215.674 127.758 215.289 127.625 214.842 127.625C214.289 127.625 213.859 127.795 213.553 128.136C213.246 128.473 213.092 128.907 213.092 129.438V135H211.399V129.199C211.399 128.725 211.251 128.345 210.956 128.057C210.661 127.769 210.276 127.625 209.803 127.625C209.481 127.625 209.183 127.71 208.911 127.881C208.642 128.047 208.424 128.28 208.257 128.58C208.094 128.879 208.013 129.225 208.013 129.619V135H206.314ZM224.216 135.176C223.356 135.176 222.616 134.992 221.994 134.625C221.377 134.254 220.9 133.733 220.562 133.062C220.229 132.388 220.062 131.598 220.062 130.693C220.062 129.799 220.229 129.011 220.562 128.33C220.9 127.648 221.369 127.116 221.972 126.733C222.578 126.35 223.286 126.159 224.097 126.159C224.589 126.159 225.066 126.241 225.528 126.403C225.991 126.566 226.405 126.822 226.773 127.17C227.14 127.519 227.43 127.972 227.642 128.528C227.854 129.081 227.96 129.754 227.96 130.545V131.148H221.023V129.875H226.295C226.295 129.428 226.205 129.032 226.023 128.688C225.841 128.339 225.585 128.064 225.256 127.864C224.93 127.663 224.547 127.562 224.108 127.562C223.631 127.562 223.214 127.68 222.858 127.915C222.506 128.146 222.233 128.449 222.04 128.824C221.85 129.195 221.756 129.598 221.756 130.034V131.028C221.756 131.612 221.858 132.108 222.062 132.517C222.271 132.926 222.561 133.239 222.932 133.455C223.303 133.667 223.737 133.773 224.233 133.773C224.555 133.773 224.848 133.727 225.114 133.636C225.379 133.542 225.608 133.402 225.801 133.216C225.994 133.03 226.142 132.801 226.244 132.528L227.852 132.818C227.723 133.292 227.492 133.706 227.159 134.062C226.83 134.415 226.415 134.689 225.915 134.886C225.419 135.08 224.852 135.176 224.216 135.176ZM232.925 122.926V137.42H229.192V136.074H231.3V124.273H229.192V122.926H232.925Z" fill="#1A1929"/>
</g>
</g>
<rect x="51.5" y="103.5" width="351" height="51" rx="11.5" stroke="#EEF0FA"/>
</g>
<g filter="url(#filter2_dddd_133_2614)">
<g clip-path="url(#clip2_133_2614)">
<rect x="51" y="168" width="352" height="52" rx="12" fill="#F9FBFF"/>
<g clip-path="url(#clip3_133_2614)">
<path d="M51 180C51 173.373 56.3726 168 63 168H391C397.627 168 403 173.373 403 180V220H51V180Z" fill="#F9FBFF"/>
<path d="M68 190.5L73 195.5L78 190.5" stroke="#7084B4" stroke-width="1.6" stroke-linecap="round" stroke-linejoin="round"/>
<path d="M100.278 200V188.364H104.54C105.366 188.364 106.049 188.5 106.591 188.773C107.133 189.042 107.538 189.407 107.807 189.869C108.076 190.328 108.21 190.845 108.21 191.42C108.21 191.905 108.121 192.314 107.943 192.648C107.765 192.977 107.527 193.242 107.227 193.443C106.932 193.64 106.606 193.784 106.25 193.875V193.989C106.636 194.008 107.013 194.133 107.381 194.364C107.752 194.591 108.059 194.915 108.301 195.335C108.544 195.756 108.665 196.267 108.665 196.869C108.665 197.464 108.525 197.998 108.244 198.472C107.968 198.941 107.54 199.314 106.96 199.591C106.381 199.864 105.64 200 104.739 200H100.278ZM102.034 198.494H104.568C105.409 198.494 106.011 198.331 106.375 198.006C106.739 197.68 106.92 197.273 106.92 196.784C106.92 196.417 106.828 196.08 106.642 195.773C106.456 195.466 106.191 195.222 105.847 195.04C105.506 194.858 105.1 194.767 104.631 194.767H102.034V198.494ZM102.034 193.398H104.386C104.78 193.398 105.134 193.322 105.449 193.17C105.767 193.019 106.019 192.807 106.205 192.534C106.394 192.258 106.489 191.932 106.489 191.557C106.489 191.076 106.32 190.672 105.983 190.347C105.646 190.021 105.129 189.858 104.432 189.858H102.034V193.398ZM116.139 196.381V191.273H117.844V200H116.173V198.489H116.082C115.882 198.955 115.56 199.343 115.116 199.653C114.677 199.96 114.13 200.114 113.474 200.114C112.914 200.114 112.418 199.991 111.986 199.744C111.558 199.494 111.221 199.125 110.974 198.636C110.732 198.148 110.611 197.544 110.611 196.824V191.273H112.31V196.619C112.31 197.214 112.474 197.687 112.804 198.04C113.134 198.392 113.562 198.568 114.088 198.568C114.406 198.568 114.723 198.489 115.037 198.33C115.355 198.17 115.618 197.93 115.827 197.608C116.039 197.286 116.143 196.877 116.139 196.381ZM126.666 193.403L125.126 193.676C125.062 193.479 124.96 193.292 124.82 193.114C124.683 192.936 124.498 192.79 124.263 192.676C124.028 192.562 123.734 192.506 123.382 192.506C122.901 192.506 122.5 192.614 122.178 192.83C121.856 193.042 121.695 193.316 121.695 193.653C121.695 193.945 121.803 194.18 122.018 194.358C122.234 194.536 122.583 194.682 123.064 194.795L124.45 195.114C125.253 195.299 125.852 195.585 126.246 195.972C126.64 196.358 126.837 196.86 126.837 197.477C126.837 198 126.685 198.466 126.382 198.875C126.083 199.28 125.664 199.598 125.126 199.83C124.592 200.061 123.973 200.176 123.268 200.176C122.291 200.176 121.494 199.968 120.876 199.551C120.259 199.131 119.88 198.534 119.74 197.761L121.382 197.511C121.484 197.939 121.695 198.263 122.013 198.483C122.331 198.699 122.746 198.807 123.257 198.807C123.814 198.807 124.259 198.691 124.592 198.46C124.926 198.225 125.092 197.939 125.092 197.602C125.092 197.33 124.99 197.1 124.786 196.915C124.585 196.729 124.276 196.589 123.859 196.494L122.382 196.17C121.568 195.985 120.965 195.689 120.575 195.284C120.189 194.879 119.996 194.366 119.996 193.744C119.996 193.229 120.14 192.778 120.428 192.392C120.715 192.006 121.113 191.705 121.621 191.489C122.128 191.269 122.71 191.159 123.365 191.159C124.308 191.159 125.051 191.364 125.592 191.773C126.134 192.178 126.492 192.722 126.666 193.403ZM128.705 200V191.273H130.403V200H128.705ZM129.562 189.926C129.267 189.926 129.013 189.828 128.801 189.631C128.593 189.43 128.489 189.191 128.489 188.915C128.489 188.634 128.593 188.396 128.801 188.199C129.013 187.998 129.267 187.898 129.562 187.898C129.858 187.898 130.11 187.998 130.318 188.199C130.53 188.396 130.636 188.634 130.636 188.915C130.636 189.191 130.53 189.43 130.318 189.631C130.11 189.828 129.858 189.926 129.562 189.926ZM134.388 194.818V200H132.689V191.273H134.32V192.693H134.428C134.628 192.231 134.943 191.86 135.371 191.58C135.803 191.299 136.346 191.159 137.001 191.159C137.596 191.159 138.117 191.284 138.564 191.534C139.011 191.78 139.357 192.148 139.604 192.636C139.85 193.125 139.973 193.729 139.973 194.449V200H138.274V194.653C138.274 194.021 138.109 193.527 137.78 193.17C137.45 192.811 136.998 192.631 136.422 192.631C136.028 192.631 135.678 192.716 135.371 192.886C135.068 193.057 134.827 193.307 134.649 193.636C134.475 193.962 134.388 194.356 134.388 194.818ZM146.013 200.176C145.153 200.176 144.412 199.992 143.791 199.625C143.174 199.254 142.696 198.733 142.359 198.062C142.026 197.388 141.859 196.598 141.859 195.693C141.859 194.799 142.026 194.011 142.359 193.33C142.696 192.648 143.166 192.116 143.768 191.733C144.375 191.35 145.083 191.159 145.893 191.159C146.386 191.159 146.863 191.241 147.325 191.403C147.787 191.566 148.202 191.822 148.57 192.17C148.937 192.519 149.227 192.972 149.439 193.528C149.651 194.081 149.757 194.754 149.757 195.545V196.148H142.82V194.875H148.092C148.092 194.428 148.001 194.032 147.82 193.688C147.638 193.339 147.382 193.064 147.053 192.864C146.727 192.663 146.344 192.562 145.905 192.562C145.428 192.562 145.011 192.68 144.655 192.915C144.303 193.146 144.03 193.449 143.837 193.824C143.647 194.195 143.553 194.598 143.553 195.034V196.028C143.553 196.612 143.655 197.108 143.859 197.517C144.068 197.926 144.357 198.239 144.729 198.455C145.1 198.667 145.534 198.773 146.03 198.773C146.352 198.773 146.645 198.727 146.911 198.636C147.176 198.542 147.405 198.402 147.598 198.216C147.791 198.03 147.939 197.801 148.041 197.528L149.649 197.818C149.52 198.292 149.289 198.706 148.956 199.062C148.626 199.415 148.212 199.689 147.712 199.886C147.215 200.08 146.649 200.176 146.013 200.176ZM158.182 193.403L156.642 193.676C156.578 193.479 156.475 193.292 156.335 193.114C156.199 192.936 156.013 192.79 155.778 192.676C155.544 192.562 155.25 192.506 154.898 192.506C154.417 192.506 154.015 192.614 153.693 192.83C153.371 193.042 153.21 193.316 153.21 193.653C153.21 193.945 153.318 194.18 153.534 194.358C153.75 194.536 154.098 194.682 154.58 194.795L155.966 195.114C156.769 195.299 157.367 195.585 157.761 195.972C158.155 196.358 158.352 196.86 158.352 197.477C158.352 198 158.201 198.466 157.898 198.875C157.598 199.28 157.18 199.598 156.642 199.83C156.108 200.061 155.489 200.176 154.784 200.176C153.807 200.176 153.009 199.968 152.392 199.551C151.775 199.131 151.396 198.534 151.256 197.761L152.898 197.511C153 197.939 153.21 198.263 153.528 198.483C153.847 198.699 154.261 198.807 154.773 198.807C155.33 198.807 155.775 198.691 156.108 198.46C156.441 198.225 156.608 197.939 156.608 197.602C156.608 197.33 156.506 197.1 156.301 196.915C156.1 196.729 155.792 196.589 155.375 196.494L153.898 196.17C153.083 195.985 152.481 195.689 152.091 195.284C151.705 194.879 151.511 194.366 151.511 193.744C151.511 193.229 151.655 192.778 151.943 192.392C152.231 192.006 152.629 191.705 153.136 191.489C153.644 191.269 154.225 191.159 154.881 191.159C155.824 191.159 156.566 191.364 157.108 191.773C157.65 192.178 158.008 192.722 158.182 193.403ZM166.76 193.403L165.22 193.676C165.156 193.479 165.054 193.292 164.913 193.114C164.777 192.936 164.591 192.79 164.357 192.676C164.122 192.562 163.828 192.506 163.476 192.506C162.995 192.506 162.593 192.614 162.271 192.83C161.949 193.042 161.788 193.316 161.788 193.653C161.788 193.945 161.896 194.18 162.112 194.358C162.328 194.536 162.677 194.682 163.158 194.795L164.544 195.114C165.347 195.299 165.946 195.585 166.339 195.972C166.733 196.358 166.93 196.86 166.93 197.477C166.93 198 166.779 198.466 166.476 198.875C166.177 199.28 165.758 199.598 165.22 199.83C164.686 200.061 164.067 200.176 163.362 200.176C162.385 200.176 161.588 199.968 160.97 199.551C160.353 199.131 159.974 198.534 159.834 197.761L161.476 197.511C161.578 197.939 161.788 198.263 162.107 198.483C162.425 198.699 162.839 198.807 163.351 198.807C163.908 198.807 164.353 198.691 164.686 198.46C165.019 198.225 165.186 197.939 165.186 197.602C165.186 197.33 165.084 197.1 164.879 196.915C164.679 196.729 164.37 196.589 163.953 196.494L162.476 196.17C161.661 195.985 161.059 195.689 160.669 195.284C160.283 194.879 160.089 194.366 160.089 193.744C160.089 193.229 160.233 192.778 160.521 192.392C160.809 192.006 161.207 191.705 161.714 191.489C162.222 191.269 162.804 191.159 163.459 191.159C164.402 191.159 165.144 191.364 165.686 191.773C166.228 192.178 166.586 192.722 166.76 193.403ZM176.709 200.176C175.864 200.176 175.137 199.985 174.527 199.602C173.921 199.216 173.455 198.684 173.129 198.006C172.804 197.328 172.641 196.551 172.641 195.676C172.641 194.79 172.807 194.008 173.141 193.33C173.474 192.648 173.944 192.116 174.55 191.733C175.156 191.35 175.87 191.159 176.692 191.159C177.355 191.159 177.946 191.282 178.464 191.528C178.983 191.771 179.402 192.112 179.72 192.551C180.042 192.991 180.233 193.504 180.294 194.091H178.641C178.55 193.682 178.341 193.33 178.016 193.034C177.694 192.739 177.262 192.591 176.72 192.591C176.247 192.591 175.832 192.716 175.476 192.966C175.124 193.212 174.849 193.564 174.652 194.023C174.455 194.477 174.357 195.015 174.357 195.636C174.357 196.273 174.453 196.822 174.646 197.284C174.839 197.746 175.112 198.104 175.464 198.358C175.821 198.612 176.239 198.739 176.72 198.739C177.042 198.739 177.334 198.68 177.595 198.562C177.86 198.441 178.082 198.269 178.26 198.045C178.442 197.822 178.569 197.553 178.641 197.239H180.294C180.233 197.803 180.05 198.307 179.743 198.75C179.436 199.193 179.025 199.542 178.51 199.795C177.999 200.049 177.398 200.176 176.709 200.176ZM184.651 200.193C184.098 200.193 183.598 200.091 183.151 199.886C182.704 199.678 182.349 199.377 182.088 198.983C181.83 198.589 181.702 198.106 181.702 197.534C181.702 197.042 181.796 196.636 181.986 196.318C182.175 196 182.431 195.748 182.753 195.562C183.075 195.377 183.435 195.237 183.832 195.142C184.23 195.047 184.635 194.975 185.048 194.926C185.571 194.866 185.995 194.816 186.321 194.778C186.647 194.737 186.884 194.67 187.031 194.58C187.179 194.489 187.253 194.341 187.253 194.136V194.097C187.253 193.6 187.113 193.216 186.832 192.943C186.556 192.67 186.143 192.534 185.594 192.534C185.022 192.534 184.571 192.661 184.241 192.915C183.916 193.165 183.69 193.443 183.565 193.75L181.969 193.386C182.158 192.856 182.435 192.428 182.798 192.102C183.166 191.773 183.588 191.534 184.065 191.386C184.543 191.235 185.045 191.159 185.571 191.159C185.92 191.159 186.289 191.201 186.679 191.284C187.073 191.364 187.44 191.511 187.781 191.727C188.126 191.943 188.408 192.252 188.628 192.653C188.848 193.051 188.957 193.568 188.957 194.205V200H187.298V198.807H187.23C187.12 199.027 186.955 199.242 186.736 199.455C186.516 199.667 186.234 199.843 185.889 199.983C185.545 200.123 185.132 200.193 184.651 200.193ZM185.02 198.83C185.49 198.83 185.891 198.737 186.224 198.551C186.562 198.366 186.817 198.123 186.991 197.824C187.17 197.521 187.259 197.197 187.259 196.852V195.727C187.198 195.788 187.08 195.845 186.906 195.898C186.736 195.947 186.541 195.991 186.321 196.028C186.101 196.062 185.887 196.095 185.679 196.125C185.471 196.152 185.296 196.174 185.156 196.193C184.827 196.235 184.526 196.305 184.253 196.403C183.984 196.502 183.768 196.644 183.605 196.83C183.446 197.011 183.366 197.254 183.366 197.557C183.366 197.977 183.522 198.295 183.832 198.511C184.143 198.723 184.539 198.83 185.02 198.83ZM192.919 188.364V200H191.22V188.364H192.919ZM196.903 188.364V200H195.205V188.364H196.903ZM203.423 200V191.273H205.065V192.659H205.156C205.315 192.189 205.596 191.82 205.997 191.551C206.402 191.278 206.861 191.142 207.372 191.142C207.478 191.142 207.603 191.146 207.747 191.153C207.895 191.161 208.01 191.17 208.094 191.182V192.807C208.026 192.788 207.904 192.767 207.73 192.744C207.556 192.718 207.382 192.705 207.207 192.705C206.806 192.705 206.448 192.79 206.134 192.96C205.823 193.127 205.577 193.36 205.395 193.659C205.213 193.955 205.122 194.292 205.122 194.67V200H203.423ZM213.013 200.176C212.153 200.176 211.412 199.992 210.791 199.625C210.174 199.254 209.696 198.733 209.359 198.062C209.026 197.388 208.859 196.598 208.859 195.693C208.859 194.799 209.026 194.011 209.359 193.33C209.696 192.648 210.166 192.116 210.768 191.733C211.375 191.35 212.083 191.159 212.893 191.159C213.386 191.159 213.863 191.241 214.325 191.403C214.787 191.566 215.202 191.822 215.57 192.17C215.937 192.519 216.227 192.972 216.439 193.528C216.651 194.081 216.757 194.754 216.757 195.545V196.148H209.82V194.875H215.092C215.092 194.428 215.001 194.032 214.82 193.688C214.638 193.339 214.382 193.064 214.053 192.864C213.727 192.663 213.344 192.562 212.905 192.562C212.428 192.562 212.011 192.68 211.655 192.915C211.303 193.146 211.03 193.449 210.837 193.824C210.647 194.195 210.553 194.598 210.553 195.034V196.028C210.553 196.612 210.655 197.108 210.859 197.517C211.068 197.926 211.357 198.239 211.729 198.455C212.1 198.667 212.534 198.773 213.03 198.773C213.352 198.773 213.645 198.727 213.911 198.636C214.176 198.542 214.405 198.402 214.598 198.216C214.791 198.03 214.939 197.801 215.041 197.528L216.649 197.818C216.52 198.292 216.289 198.706 215.956 199.062C215.626 199.415 215.212 199.689 214.712 199.886C214.215 200.08 213.649 200.176 213.013 200.176ZM222.318 200.176C221.473 200.176 220.746 199.985 220.136 199.602C219.53 199.216 219.064 198.684 218.739 198.006C218.413 197.328 218.25 196.551 218.25 195.676C218.25 194.79 218.417 194.008 218.75 193.33C219.083 192.648 219.553 192.116 220.159 191.733C220.765 191.35 221.479 191.159 222.301 191.159C222.964 191.159 223.555 191.282 224.074 191.528C224.593 191.771 225.011 192.112 225.33 192.551C225.652 192.991 225.843 193.504 225.903 194.091H224.25C224.159 193.682 223.951 193.33 223.625 193.034C223.303 192.739 222.871 192.591 222.33 192.591C221.856 192.591 221.441 192.716 221.085 192.966C220.733 193.212 220.458 193.564 220.261 194.023C220.064 194.477 219.966 195.015 219.966 195.636C219.966 196.273 220.063 196.822 220.256 197.284C220.449 197.746 220.722 198.104 221.074 198.358C221.43 198.612 221.848 198.739 222.33 198.739C222.652 198.739 222.943 198.68 223.205 198.562C223.47 198.441 223.691 198.269 223.869 198.045C224.051 197.822 224.178 197.553 224.25 197.239H225.903C225.843 197.803 225.659 198.307 225.352 198.75C225.045 199.193 224.634 199.542 224.119 199.795C223.608 200.049 223.008 200.176 222.318 200.176ZM230.26 200.193C229.707 200.193 229.207 200.091 228.76 199.886C228.313 199.678 227.959 199.377 227.697 198.983C227.44 198.589 227.311 198.106 227.311 197.534C227.311 197.042 227.406 196.636 227.595 196.318C227.785 196 228.04 195.748 228.362 195.562C228.684 195.377 229.044 195.237 229.442 195.142C229.839 195.047 230.245 194.975 230.658 194.926C231.18 194.866 231.605 194.816 231.93 194.778C232.256 194.737 232.493 194.67 232.641 194.58C232.788 194.489 232.862 194.341 232.862 194.136V194.097C232.862 193.6 232.722 193.216 232.442 192.943C232.165 192.67 231.752 192.534 231.203 192.534C230.631 192.534 230.18 192.661 229.851 192.915C229.525 193.165 229.3 193.443 229.175 193.75L227.578 193.386C227.768 192.856 228.044 192.428 228.408 192.102C228.775 191.773 229.197 191.534 229.675 191.386C230.152 191.235 230.654 191.159 231.18 191.159C231.529 191.159 231.898 191.201 232.288 191.284C232.682 191.364 233.05 191.511 233.391 191.727C233.735 191.943 234.018 192.252 234.237 192.653C234.457 193.051 234.567 193.568 234.567 194.205V200H232.908V198.807H232.839C232.73 199.027 232.565 199.242 232.345 199.455C232.125 199.667 231.843 199.843 231.499 199.983C231.154 200.123 230.741 200.193 230.26 200.193ZM230.629 198.83C231.099 198.83 231.5 198.737 231.834 198.551C232.171 198.366 232.427 198.123 232.601 197.824C232.779 197.521 232.868 197.197 232.868 196.852V195.727C232.807 195.788 232.69 195.845 232.516 195.898C232.345 195.947 232.15 195.991 231.93 196.028C231.711 196.062 231.497 196.095 231.288 196.125C231.08 196.152 230.906 196.174 230.766 196.193C230.436 196.235 230.135 196.305 229.862 196.403C229.593 196.502 229.377 196.644 229.214 196.83C229.055 197.011 228.976 197.254 228.976 197.557C228.976 197.977 229.131 198.295 229.442 198.511C229.752 198.723 230.148 198.83 230.629 198.83ZM236.83 203.273V191.273H238.489V192.688H238.631C238.729 192.506 238.871 192.295 239.057 192.057C239.242 191.818 239.5 191.61 239.83 191.432C240.159 191.25 240.595 191.159 241.136 191.159C241.841 191.159 242.47 191.337 243.023 191.693C243.576 192.049 244.009 192.562 244.324 193.233C244.642 193.903 244.801 194.71 244.801 195.653C244.801 196.597 244.644 197.405 244.33 198.08C244.015 198.75 243.583 199.267 243.034 199.631C242.485 199.991 241.858 200.17 241.153 200.17C240.623 200.17 240.189 200.081 239.852 199.903C239.519 199.725 239.258 199.517 239.068 199.278C238.879 199.04 238.733 198.828 238.631 198.642H238.528V203.273H236.83ZM238.494 195.636C238.494 196.25 238.583 196.788 238.761 197.25C238.939 197.712 239.197 198.074 239.534 198.335C239.871 198.593 240.284 198.722 240.773 198.722C241.28 198.722 241.705 198.587 242.045 198.318C242.386 198.045 242.644 197.676 242.818 197.21C242.996 196.744 243.085 196.22 243.085 195.636C243.085 195.061 242.998 194.544 242.824 194.085C242.653 193.627 242.396 193.265 242.051 193C241.71 192.735 241.284 192.602 240.773 192.602C240.28 192.602 239.864 192.729 239.523 192.983C239.186 193.237 238.93 193.591 238.756 194.045C238.581 194.5 238.494 195.03 238.494 195.636Z" fill="#1A1929"/>
</g>
</g>
<rect x="51.5" y="168.5" width="351" height="51" rx="11.5" stroke="#EEF0FA"/>
</g>
<g filter="url(#filter3_dddd_133_2614)">
<g clip-path="url(#clip4_133_2614)">
<rect x="51" y="233" width="352" height="148" rx="12" fill="#F9FBFF"/>
<g clip-path="url(#clip5_133_2614)">
<path d="M51 245C51 238.373 56.3726 233 63 233H391C397.627 233 403 238.373 403 245V285H51V245Z" fill="#F9FBFF"/>
<path d="M78 260.5L73 255.5L68 260.5" stroke="#7084B4" stroke-width="1.6" stroke-linecap="round" stroke-linejoin="round"/>
<path d="M99.3807 253.364H101.375L104.415 258.653H104.54L107.58 253.364H109.574L105.352 260.432V265H103.602V260.432L99.3807 253.364ZM113.334 265.176C112.516 265.176 111.802 264.989 111.192 264.614C110.582 264.239 110.108 263.714 109.771 263.04C109.434 262.366 109.266 261.578 109.266 260.676C109.266 259.771 109.434 258.979 109.771 258.301C110.108 257.623 110.582 257.097 111.192 256.722C111.802 256.347 112.516 256.159 113.334 256.159C114.152 256.159 114.866 256.347 115.476 256.722C116.086 257.097 116.559 257.623 116.896 258.301C117.233 258.979 117.402 259.771 117.402 260.676C117.402 261.578 117.233 262.366 116.896 263.04C116.559 263.714 116.086 264.239 115.476 264.614C114.866 264.989 114.152 265.176 113.334 265.176ZM113.339 263.75C113.87 263.75 114.309 263.61 114.658 263.33C115.006 263.049 115.264 262.676 115.43 262.21C115.601 261.744 115.686 261.231 115.686 260.67C115.686 260.114 115.601 259.602 115.43 259.136C115.264 258.667 115.006 258.29 114.658 258.006C114.309 257.722 113.87 257.58 113.339 257.58C112.805 257.58 112.362 257.722 112.01 258.006C111.661 258.29 111.402 258.667 111.232 259.136C111.065 259.602 110.982 260.114 110.982 260.67C110.982 261.231 111.065 261.744 111.232 262.21C111.402 262.676 111.661 263.049 112.01 263.33C112.362 263.61 112.805 263.75 113.339 263.75ZM124.827 261.381V256.273H126.531V265H124.861V263.489H124.77C124.569 263.955 124.247 264.343 123.804 264.653C123.365 264.96 122.817 265.114 122.162 265.114C121.601 265.114 121.105 264.991 120.673 264.744C120.245 264.494 119.908 264.125 119.662 263.636C119.42 263.148 119.298 262.544 119.298 261.824V256.273H120.997V261.619C120.997 262.214 121.162 262.687 121.491 263.04C121.821 263.392 122.249 263.568 122.776 263.568C123.094 263.568 123.41 263.489 123.724 263.33C124.043 263.17 124.306 262.93 124.514 262.608C124.726 262.286 124.83 261.877 124.827 261.381ZM128.814 265V256.273H130.456V257.659H130.547C130.706 257.189 130.986 256.82 131.388 256.551C131.793 256.278 132.251 256.142 132.763 256.142C132.869 256.142 132.994 256.146 133.138 256.153C133.286 256.161 133.401 256.17 133.484 256.182V257.807C133.416 257.788 133.295 257.767 133.121 257.744C132.946 257.718 132.772 257.705 132.598 257.705C132.196 257.705 131.839 257.79 131.524 257.96C131.214 258.127 130.967 258.36 130.786 258.659C130.604 258.955 130.513 259.292 130.513 259.67V265H128.814ZM142.865 265.176C142.047 265.176 141.333 264.989 140.723 264.614C140.113 264.239 139.64 263.714 139.303 263.04C138.965 262.366 138.797 261.578 138.797 260.676C138.797 259.771 138.965 258.979 139.303 258.301C139.64 257.623 140.113 257.097 140.723 256.722C141.333 256.347 142.047 256.159 142.865 256.159C143.683 256.159 144.397 256.347 145.007 256.722C145.617 257.097 146.09 257.623 146.428 258.301C146.765 258.979 146.933 259.771 146.933 260.676C146.933 261.578 146.765 262.366 146.428 263.04C146.09 263.714 145.617 264.239 145.007 264.614C144.397 264.989 143.683 265.176 142.865 265.176ZM142.871 263.75C143.401 263.75 143.84 263.61 144.189 263.33C144.537 263.049 144.795 262.676 144.962 262.21C145.132 261.744 145.217 261.231 145.217 260.67C145.217 260.114 145.132 259.602 144.962 259.136C144.795 258.667 144.537 258.29 144.189 258.006C143.84 257.722 143.401 257.58 142.871 257.58C142.337 257.58 141.893 257.722 141.541 258.006C141.193 258.29 140.933 258.667 140.763 259.136C140.596 259.602 140.513 260.114 140.513 260.67C140.513 261.231 140.596 261.744 140.763 262.21C140.933 262.676 141.193 263.049 141.541 263.33C141.893 263.61 142.337 263.75 142.871 263.75ZM150.528 259.818V265H148.83V256.273H150.46V257.693H150.568C150.769 257.231 151.083 256.86 151.511 256.58C151.943 256.299 152.487 256.159 153.142 256.159C153.737 256.159 154.258 256.284 154.705 256.534C155.152 256.78 155.498 257.148 155.744 257.636C155.991 258.125 156.114 258.729 156.114 259.449V265H154.415V259.653C154.415 259.021 154.25 258.527 153.92 258.17C153.591 257.811 153.138 257.631 152.562 257.631C152.169 257.631 151.818 257.716 151.511 257.886C151.208 258.057 150.968 258.307 150.79 258.636C150.616 258.962 150.528 259.356 150.528 259.818ZM158.528 265V253.364H160.227V257.688H160.33C160.428 257.506 160.57 257.295 160.756 257.057C160.941 256.818 161.199 256.61 161.528 256.432C161.858 256.25 162.294 256.159 162.835 256.159C163.54 256.159 164.169 256.337 164.722 256.693C165.275 257.049 165.708 257.562 166.023 258.233C166.341 258.903 166.5 259.71 166.5 260.653C166.5 261.597 166.343 262.405 166.028 263.08C165.714 263.75 165.282 264.267 164.733 264.631C164.184 264.991 163.557 265.17 162.852 265.17C162.322 265.17 161.888 265.081 161.551 264.903C161.218 264.725 160.956 264.517 160.767 264.278C160.578 264.04 160.432 263.828 160.33 263.642H160.188V265H158.528ZM160.193 260.636C160.193 261.25 160.282 261.788 160.46 262.25C160.638 262.712 160.896 263.074 161.233 263.335C161.57 263.593 161.983 263.722 162.472 263.722C162.979 263.722 163.403 263.587 163.744 263.318C164.085 263.045 164.343 262.676 164.517 262.21C164.695 261.744 164.784 261.22 164.784 260.636C164.784 260.061 164.697 259.544 164.523 259.085C164.352 258.627 164.095 258.265 163.75 258C163.409 257.735 162.983 257.602 162.472 257.602C161.979 257.602 161.562 257.729 161.222 257.983C160.884 258.237 160.629 258.591 160.455 259.045C160.28 259.5 160.193 260.03 160.193 260.636ZM172.084 265.176C171.266 265.176 170.552 264.989 169.942 264.614C169.332 264.239 168.858 263.714 168.521 263.04C168.184 262.366 168.016 261.578 168.016 260.676C168.016 259.771 168.184 258.979 168.521 258.301C168.858 257.623 169.332 257.097 169.942 256.722C170.552 256.347 171.266 256.159 172.084 256.159C172.902 256.159 173.616 256.347 174.226 256.722C174.836 257.097 175.309 257.623 175.646 258.301C175.983 258.979 176.152 259.771 176.152 260.676C176.152 261.578 175.983 262.366 175.646 263.04C175.309 263.714 174.836 264.239 174.226 264.614C173.616 264.989 172.902 265.176 172.084 265.176ZM172.089 263.75C172.62 263.75 173.059 263.61 173.408 263.33C173.756 263.049 174.014 262.676 174.18 262.21C174.351 261.744 174.436 261.231 174.436 260.67C174.436 260.114 174.351 259.602 174.18 259.136C174.014 258.667 173.756 258.29 173.408 258.006C173.059 257.722 172.62 257.58 172.089 257.58C171.555 257.58 171.112 257.722 170.76 258.006C170.411 258.29 170.152 258.667 169.982 259.136C169.815 259.602 169.732 260.114 169.732 260.67C169.732 261.231 169.815 261.744 169.982 262.21C170.152 262.676 170.411 263.049 170.76 263.33C171.112 263.61 171.555 263.75 172.089 263.75ZM180.588 265.193C180.035 265.193 179.535 265.091 179.088 264.886C178.641 264.678 178.287 264.377 178.026 263.983C177.768 263.589 177.639 263.106 177.639 262.534C177.639 262.042 177.734 261.636 177.923 261.318C178.113 261 178.368 260.748 178.69 260.562C179.012 260.377 179.372 260.237 179.77 260.142C180.168 260.047 180.573 259.975 180.986 259.926C181.509 259.866 181.933 259.816 182.259 259.778C182.584 259.737 182.821 259.67 182.969 259.58C183.116 259.489 183.19 259.341 183.19 259.136V259.097C183.19 258.6 183.05 258.216 182.77 257.943C182.493 257.67 182.08 257.534 181.531 257.534C180.959 257.534 180.509 257.661 180.179 257.915C179.853 258.165 179.628 258.443 179.503 258.75L177.906 258.386C178.096 257.856 178.372 257.428 178.736 257.102C179.103 256.773 179.526 256.534 180.003 256.386C180.48 256.235 180.982 256.159 181.509 256.159C181.857 256.159 182.226 256.201 182.616 256.284C183.01 256.364 183.378 256.511 183.719 256.727C184.063 256.943 184.346 257.252 184.565 257.653C184.785 258.051 184.895 258.568 184.895 259.205V265H183.236V263.807H183.168C183.058 264.027 182.893 264.242 182.673 264.455C182.454 264.667 182.171 264.843 181.827 264.983C181.482 265.123 181.069 265.193 180.588 265.193ZM180.957 263.83C181.427 263.83 181.829 263.737 182.162 263.551C182.499 263.366 182.755 263.123 182.929 262.824C183.107 262.521 183.196 262.197 183.196 261.852V260.727C183.135 260.788 183.018 260.845 182.844 260.898C182.673 260.947 182.478 260.991 182.259 261.028C182.039 261.062 181.825 261.095 181.616 261.125C181.408 261.152 181.234 261.174 181.094 261.193C180.764 261.235 180.463 261.305 180.19 261.403C179.921 261.502 179.705 261.644 179.543 261.83C179.384 262.011 179.304 262.254 179.304 262.557C179.304 262.977 179.459 263.295 179.77 263.511C180.08 263.723 180.476 263.83 180.957 263.83ZM187.158 265V256.273H188.8V257.659H188.891C189.05 257.189 189.33 256.82 189.732 256.551C190.137 256.278 190.595 256.142 191.107 256.142C191.213 256.142 191.338 256.146 191.482 256.153C191.629 256.161 191.745 256.17 191.828 256.182V257.807C191.76 257.788 191.639 257.767 191.464 257.744C191.29 257.718 191.116 257.705 190.942 257.705C190.54 257.705 190.182 257.79 189.868 257.96C189.557 258.127 189.311 258.36 189.129 258.659C188.947 258.955 188.857 259.292 188.857 259.67V265H187.158ZM196.253 265.17C195.548 265.17 194.92 264.991 194.366 264.631C193.817 264.267 193.385 263.75 193.071 263.08C192.76 262.405 192.605 261.597 192.605 260.653C192.605 259.71 192.762 258.903 193.077 258.233C193.395 257.562 193.83 257.049 194.384 256.693C194.937 256.337 195.563 256.159 196.264 256.159C196.806 256.159 197.241 256.25 197.571 256.432C197.904 256.61 198.162 256.818 198.344 257.057C198.529 257.295 198.673 257.506 198.776 257.688H198.878V253.364H200.577V265H198.918V263.642H198.776C198.673 263.828 198.526 264.04 198.332 264.278C198.143 264.517 197.882 264.725 197.548 264.903C197.215 265.081 196.783 265.17 196.253 265.17ZM196.628 263.722C197.116 263.722 197.529 263.593 197.866 263.335C198.207 263.074 198.465 262.712 198.639 262.25C198.817 261.788 198.906 261.25 198.906 260.636C198.906 260.03 198.819 259.5 198.645 259.045C198.471 258.591 198.215 258.237 197.878 257.983C197.541 257.729 197.124 257.602 196.628 257.602C196.116 257.602 195.69 257.735 195.349 258C195.009 258.265 194.751 258.627 194.577 259.085C194.406 259.544 194.321 260.061 194.321 260.636C194.321 261.22 194.408 261.744 194.582 262.21C194.757 262.676 195.014 263.045 195.355 263.318C195.7 263.587 196.124 263.722 196.628 263.722ZM203.001 265V256.273H204.7V265H203.001ZM203.859 254.926C203.564 254.926 203.31 254.828 203.098 254.631C202.89 254.43 202.786 254.191 202.786 253.915C202.786 253.634 202.89 253.396 203.098 253.199C203.31 252.998 203.564 252.898 203.859 252.898C204.155 252.898 204.407 252.998 204.615 253.199C204.827 253.396 204.933 253.634 204.933 253.915C204.933 254.191 204.827 254.43 204.615 254.631C204.407 254.828 204.155 254.926 203.859 254.926ZM208.685 259.818V265H206.986V256.273H208.616V257.693H208.724C208.925 257.231 209.24 256.86 209.668 256.58C210.099 256.299 210.643 256.159 211.298 256.159C211.893 256.159 212.414 256.284 212.861 256.534C213.308 256.78 213.654 257.148 213.901 257.636C214.147 258.125 214.27 258.729 214.27 259.449V265H212.571V259.653C212.571 259.021 212.406 258.527 212.077 258.17C211.747 257.811 211.295 257.631 210.719 257.631C210.325 257.631 209.974 257.716 209.668 257.886C209.365 258.057 209.124 258.307 208.946 258.636C208.772 258.962 208.685 259.356 208.685 259.818ZM220.207 268.455C219.514 268.455 218.918 268.364 218.418 268.182C217.921 268 217.516 267.759 217.202 267.46C216.887 267.161 216.652 266.833 216.497 266.477L217.957 265.875C218.06 266.042 218.196 266.218 218.366 266.403C218.541 266.593 218.776 266.754 219.071 266.886C219.37 267.019 219.755 267.085 220.224 267.085C220.868 267.085 221.401 266.928 221.821 266.614C222.241 266.303 222.452 265.807 222.452 265.125V263.409H222.344C222.241 263.595 222.094 263.801 221.901 264.028C221.711 264.256 221.45 264.453 221.116 264.619C220.783 264.786 220.349 264.869 219.815 264.869C219.126 264.869 218.505 264.708 217.952 264.386C217.402 264.061 216.967 263.581 216.645 262.949C216.327 262.312 216.168 261.53 216.168 260.602C216.168 259.674 216.325 258.879 216.639 258.216C216.957 257.553 217.393 257.045 217.946 256.693C218.499 256.337 219.126 256.159 219.827 256.159C220.368 256.159 220.806 256.25 221.139 256.432C221.473 256.61 221.732 256.818 221.918 257.057C222.107 257.295 222.253 257.506 222.355 257.688H222.48V256.273H224.145V265.193C224.145 265.943 223.971 266.559 223.622 267.04C223.274 267.521 222.802 267.877 222.207 268.108C221.616 268.339 220.95 268.455 220.207 268.455ZM220.19 263.46C220.679 263.46 221.092 263.347 221.429 263.119C221.77 262.888 222.027 262.559 222.202 262.131C222.38 261.699 222.469 261.182 222.469 260.58C222.469 259.992 222.382 259.475 222.207 259.028C222.033 258.581 221.777 258.233 221.44 257.983C221.103 257.729 220.687 257.602 220.19 257.602C219.679 257.602 219.253 257.735 218.912 258C218.571 258.261 218.313 258.617 218.139 259.068C217.969 259.519 217.884 260.023 217.884 260.58C217.884 261.152 217.971 261.653 218.145 262.085C218.319 262.517 218.577 262.854 218.918 263.097C219.262 263.339 219.687 263.46 220.19 263.46Z" fill="#1A1929"/>
</g>
<rect x="99.4997" y="301.5" width="202.001" height="23.0007" rx="3.49769" fill="#EEF0FA"/>
<rect x="99.4997" y="301.5" width="202.001" height="23.0007" rx="3.49769" stroke="#DFE3F6" stroke-width="0.999341"/>
<rect x="99.4997" y="341.5" width="227.001" height="23.0007" rx="3.49769" fill="#EEF0FA"/>
<rect x="99.4997" y="341.5" width="227.001" height="23.0007" rx="3.49769" stroke="#DFE3F6" stroke-width="0.999341"/>
</g>
<rect x="51.5" y="233.5" width="351" height="147" rx="11.5" stroke="#EEF0FA"/>
</g>
<rect width="400" height="72" transform="translate(27 859)" fill="white"/>
<path d="M87.3334 891H84.0001L81.5001 898.5L76.5001 883.5L74.0001 891H70.6667" stroke="#7084B4" stroke-width="1.6" stroke-linecap="round" stroke-linejoin="round"/>
<path d="M109.261 897H107.398L111.585 885.364H113.614L117.801 897H115.938L112.648 887.477H112.557L109.261 897ZM109.574 892.443H115.619V893.92H109.574V892.443ZM121.044 891.818V897H119.345V888.273H120.976V889.693H121.084C121.285 889.231 121.599 888.86 122.027 888.58C122.459 888.299 123.002 888.159 123.658 888.159C124.252 888.159 124.773 888.284 125.22 888.534C125.667 888.78 126.014 889.148 126.26 889.636C126.506 890.125 126.629 890.729 126.629 891.449V897H124.93V891.653C124.93 891.021 124.766 890.527 124.436 890.17C124.107 889.811 123.654 889.631 123.078 889.631C122.684 889.631 122.334 889.716 122.027 889.886C121.724 890.057 121.483 890.307 121.305 890.636C121.131 890.962 121.044 891.356 121.044 891.818ZM131.447 897.193C130.894 897.193 130.394 897.091 129.947 896.886C129.5 896.678 129.146 896.377 128.885 895.983C128.627 895.589 128.499 895.106 128.499 894.534C128.499 894.042 128.593 893.636 128.783 893.318C128.972 893 129.228 892.748 129.55 892.562C129.872 892.377 130.232 892.237 130.629 892.142C131.027 892.047 131.432 891.975 131.845 891.926C132.368 891.866 132.792 891.816 133.118 891.778C133.444 891.737 133.68 891.67 133.828 891.58C133.976 891.489 134.05 891.341 134.05 891.136V891.097C134.05 890.6 133.91 890.216 133.629 889.943C133.353 889.67 132.94 889.534 132.391 889.534C131.819 889.534 131.368 889.661 131.038 889.915C130.713 890.165 130.487 890.443 130.362 890.75L128.766 890.386C128.955 889.856 129.232 889.428 129.595 889.102C129.963 888.773 130.385 888.534 130.862 888.386C131.339 888.235 131.841 888.159 132.368 888.159C132.716 888.159 133.086 888.201 133.476 888.284C133.87 888.364 134.237 888.511 134.578 888.727C134.923 888.943 135.205 889.252 135.425 889.653C135.644 890.051 135.754 890.568 135.754 891.205V897H134.095V895.807H134.027C133.917 896.027 133.752 896.242 133.533 896.455C133.313 896.667 133.031 896.843 132.686 896.983C132.341 897.123 131.929 897.193 131.447 897.193ZM131.817 895.83C132.286 895.83 132.688 895.737 133.021 895.551C133.358 895.366 133.614 895.123 133.788 894.824C133.966 894.521 134.055 894.197 134.055 893.852V892.727C133.995 892.788 133.877 892.845 133.703 892.898C133.533 892.947 133.338 892.991 133.118 893.028C132.898 893.062 132.684 893.095 132.476 893.125C132.268 893.152 132.093 893.174 131.953 893.193C131.624 893.235 131.322 893.305 131.05 893.403C130.781 893.502 130.565 893.644 130.402 893.83C130.243 894.011 130.163 894.254 130.163 894.557C130.163 894.977 130.319 895.295 130.629 895.511C130.94 895.723 131.336 895.83 131.817 895.83ZM139.716 885.364V897H138.017V885.364H139.716ZM143.075 900.273C142.821 900.273 142.59 900.252 142.382 900.21C142.174 900.172 142.018 900.131 141.916 900.085L142.325 898.693C142.636 898.777 142.912 898.813 143.155 898.801C143.397 898.79 143.611 898.699 143.797 898.528C143.986 898.358 144.153 898.08 144.297 897.693L144.507 897.114L141.314 888.273H143.132L145.342 895.045H145.433L147.643 888.273H149.467L145.871 898.165C145.704 898.619 145.492 899.004 145.234 899.318C144.977 899.636 144.67 899.875 144.314 900.034C143.958 900.193 143.545 900.273 143.075 900.273ZM155.138 888.273V889.636H150.371V888.273H155.138ZM151.649 886.182H153.348V894.438C153.348 894.767 153.397 895.015 153.496 895.182C153.594 895.345 153.721 895.456 153.876 895.517C154.036 895.574 154.208 895.602 154.393 895.602C154.53 895.602 154.649 895.593 154.751 895.574C154.854 895.555 154.933 895.54 154.99 895.528L155.297 896.932C155.198 896.97 155.058 897.008 154.876 897.045C154.695 897.087 154.467 897.11 154.195 897.114C153.748 897.121 153.331 897.042 152.945 896.875C152.558 896.708 152.246 896.451 152.007 896.102C151.768 895.754 151.649 895.316 151.649 894.79V886.182ZM157.017 897V888.273H158.716V897H157.017ZM157.875 886.926C157.58 886.926 157.326 886.828 157.114 886.631C156.905 886.43 156.801 886.191 156.801 885.915C156.801 885.634 156.905 885.396 157.114 885.199C157.326 884.998 157.58 884.898 157.875 884.898C158.17 884.898 158.422 884.998 158.631 885.199C158.843 885.396 158.949 885.634 158.949 885.915C158.949 886.191 158.843 886.43 158.631 886.631C158.422 886.828 158.17 886.926 157.875 886.926ZM164.678 897.176C163.833 897.176 163.106 896.985 162.496 896.602C161.89 896.216 161.424 895.684 161.098 895.006C160.772 894.328 160.609 893.551 160.609 892.676C160.609 891.79 160.776 891.008 161.109 890.33C161.443 889.648 161.912 889.116 162.518 888.733C163.125 888.35 163.839 888.159 164.661 888.159C165.323 888.159 165.914 888.282 166.433 888.528C166.952 888.771 167.371 889.112 167.689 889.551C168.011 889.991 168.202 890.504 168.263 891.091H166.609C166.518 890.682 166.31 890.33 165.984 890.034C165.662 889.739 165.231 889.591 164.689 889.591C164.215 889.591 163.801 889.716 163.445 889.966C163.092 890.212 162.818 890.564 162.621 891.023C162.424 891.477 162.325 892.015 162.325 892.636C162.325 893.273 162.422 893.822 162.615 894.284C162.808 894.746 163.081 895.104 163.433 895.358C163.789 895.612 164.208 895.739 164.689 895.739C165.011 895.739 165.303 895.68 165.564 895.562C165.829 895.441 166.051 895.269 166.229 895.045C166.411 894.822 166.537 894.553 166.609 894.239H168.263C168.202 894.803 168.018 895.307 167.712 895.75C167.405 896.193 166.994 896.542 166.479 896.795C165.967 897.049 165.367 897.176 164.678 897.176ZM176.619 890.403L175.08 890.676C175.015 890.479 174.913 890.292 174.773 890.114C174.636 889.936 174.451 889.79 174.216 889.676C173.981 889.562 173.688 889.506 173.335 889.506C172.854 889.506 172.453 889.614 172.131 889.83C171.809 890.042 171.648 890.316 171.648 890.653C171.648 890.945 171.756 891.18 171.972 891.358C172.188 891.536 172.536 891.682 173.017 891.795L174.403 892.114C175.206 892.299 175.805 892.585 176.199 892.972C176.593 893.358 176.79 893.86 176.79 894.477C176.79 895 176.638 895.466 176.335 895.875C176.036 896.28 175.617 896.598 175.08 896.83C174.545 897.061 173.926 897.176 173.222 897.176C172.244 897.176 171.447 896.968 170.83 896.551C170.212 896.131 169.833 895.534 169.693 894.761L171.335 894.511C171.438 894.939 171.648 895.263 171.966 895.483C172.284 895.699 172.699 895.807 173.21 895.807C173.767 895.807 174.212 895.691 174.545 895.46C174.879 895.225 175.045 894.939 175.045 894.602C175.045 894.33 174.943 894.1 174.739 893.915C174.538 893.729 174.229 893.589 173.812 893.494L172.335 893.17C171.521 892.985 170.919 892.689 170.528 892.284C170.142 891.879 169.949 891.366 169.949 890.744C169.949 890.229 170.093 889.778 170.381 889.392C170.669 889.006 171.066 888.705 171.574 888.489C172.081 888.269 172.663 888.159 173.318 888.159C174.261 888.159 175.004 888.364 175.545 888.773C176.087 889.178 176.445 889.722 176.619 890.403Z" fill="#455273"/>
<path d="M426 31V931H428V31H426Z" fill="#EEF0FA" mask="url(#path-1-inside-1_133_2614)"/>
</g>
<defs>
<filter id="filter0_dd_133_2614" x="0" y="0" width="462" height="962" filterUnits="userSpaceOnUse" color-interpolation-filters="sRGB">
<feFlood flood-opacity="0" result="BackgroundImageFix"/>
<feColorMatrix in="SourceAlpha" type="matrix" values="0 0 0 0 0 0 0 0 0 0 0 0 0 0 0 0 0 0 127 0" result="hardAlpha"/>
<feMorphology radius="2" operator="erode" in="SourceAlpha" result="effect1_dropShadow_133_2614"/>
<feOffset dx="1"/>
<feGaussianBlur stdDeviation="2.5"/>
<feColorMatrix type="matrix" values="0 0 0 0 0 0 0 0 0 0.223026 0 0 0 0 0.375 0 0 0 0.05 0"/>
<feBlend mode="normal" in2="BackgroundImageFix" result="effect1_dropShadow_133_2614"/>
<feColorMatrix in="SourceAlpha" type="matrix" values="0 0 0 0 0 0 0 0 0 0 0 0 0 0 0 0 0 0 127 0" result="hardAlpha"/>
<feMorphology radius="2" operator="erode" in="SourceAlpha" result="effect2_dropShadow_133_2614"/>
<feOffset dx="4"/>
<feGaussianBlur stdDeviation="16.5"/>
<feColorMatrix type="matrix" values="0 0 0 0 0 0 0 0 0 0.223026 0 0 0 0 0.375 0 0 0 0.2 0"/>
<feBlend mode="normal" in2="effect1_dropShadow_133_2614" result="effect2_dropShadow_133_2614"/>
<feBlend mode="normal" in="SourceGraphic" in2="effect2_dropShadow_133_2614" result="shape"/>
</filter>
<filter id="filter1_dddd_133_2614" x="49" y="102" width="356" height="58" filterUnits="userSpaceOnUse" color-interpolation-filters="sRGB">
<feFlood flood-opacity="0" result="BackgroundImageFix"/>
<feColorMatrix in="SourceAlpha" type="matrix" values="0 0 0 0 0 0 0 0 0 0 0 0 0 0 0 0 0 0 127 0" result="hardAlpha"/>
<feOffset/>
<feColorMatrix type="matrix" values="0 0 0 0 0 0 0 0 0 0.443137 0 0 0 0 0.745098 0 0 0 0.08 0"/>
<feBlend mode="normal" in2="BackgroundImageFix" result="effect1_dropShadow_133_2614"/>
<feColorMatrix in="SourceAlpha" type="matrix" values="0 0 0 0 0 0 0 0 0 0 0 0 0 0 0 0 0 0 127 0" result="hardAlpha"/>
<feOffset/>
<feGaussianBlur stdDeviation="0.5"/>
<feColorMatrix type="matrix" values="0 0 0 0 0 0 0 0 0 0.443137 0 0 0 0 0.745098 0 0 0 0.08 0"/>
<feBlend mode="normal" in2="effect1_dropShadow_133_2614" result="effect2_dropShadow_133_2614"/>
<feColorMatrix in="SourceAlpha" type="matrix" values="0 0 0 0 0 0 0 0 0 0 0 0 0 0 0 0 0 0 127 0" result="hardAlpha"/>
<feOffset dy="1"/>
<feGaussianBlur stdDeviation="0.5"/>
<feColorMatrix type="matrix" values="0 0 0 0 0 0 0 0 0 0.443137 0 0 0 0 0.745098 0 0 0 0.07 0"/>
<feBlend mode="normal" in2="effect2_dropShadow_133_2614" result="effect3_dropShadow_133_2614"/>
<feColorMatrix in="SourceAlpha" type="matrix" values="0 0 0 0 0 0 0 0 0 0 0 0 0 0 0 0 0 0 127 0" result="hardAlpha"/>
<feOffset dy="3"/>
<feGaussianBlur stdDeviation="1"/>
<feColorMatrix type="matrix" values="0 0 0 0 0 0 0 0 0 0.443137 0 0 0 0 0.745098 0 0 0 0.04 0"/>
<feBlend mode="normal" in2="effect3_dropShadow_133_2614" result="effect4_dropShadow_133_2614"/>
<feBlend mode="normal" in="SourceGraphic" in2="effect4_dropShadow_133_2614" result="shape"/>
</filter>
<filter id="filter2_dddd_133_2614" x="49" y="167" width="356" height="58" filterUnits="userSpaceOnUse" color-interpolation-filters="sRGB">
<feFlood flood-opacity="0" result="BackgroundImageFix"/>
<feColorMatrix in="SourceAlpha" type="matrix" values="0 0 0 0 0 0 0 0 0 0 0 0 0 0 0 0 0 0 127 0" result="hardAlpha"/>
<feOffset/>
<feColorMatrix type="matrix" values="0 0 0 0 0 0 0 0 0 0.443137 0 0 0 0 0.745098 0 0 0 0.08 0"/>
<feBlend mode="normal" in2="BackgroundImageFix" result="effect1_dropShadow_133_2614"/>
<feColorMatrix in="SourceAlpha" type="matrix" values="0 0 0 0 0 0 0 0 0 0 0 0 0 0 0 0 0 0 127 0" result="hardAlpha"/>
<feOffset/>
<feGaussianBlur stdDeviation="0.5"/>
<feColorMatrix type="matrix" values="0 0 0 0 0 0 0 0 0 0.443137 0 0 0 0 0.745098 0 0 0 0.08 0"/>
<feBlend mode="normal" in2="effect1_dropShadow_133_2614" result="effect2_dropShadow_133_2614"/>
<feColorMatrix in="SourceAlpha" type="matrix" values="0 0 0 0 0 0 0 0 0 0 0 0 0 0 0 0 0 0 127 0" result="hardAlpha"/>
<feOffset dy="1"/>
<feGaussianBlur stdDeviation="0.5"/>
<feColorMatrix type="matrix" values="0 0 0 0 0 0 0 0 0 0.443137 0 0 0 0 0.745098 0 0 0 0.07 0"/>
<feBlend mode="normal" in2="effect2_dropShadow_133_2614" result="effect3_dropShadow_133_2614"/>
<feColorMatrix in="SourceAlpha" type="matrix" values="0 0 0 0 0 0 0 0 0 0 0 0 0 0 0 0 0 0 127 0" result="hardAlpha"/>
<feOffset dy="3"/>
<feGaussianBlur stdDeviation="1"/>
<feColorMatrix type="matrix" values="0 0 0 0 0 0 0 0 0 0.443137 0 0 0 0 0.745098 0 0 0 0.04 0"/>
<feBlend mode="normal" in2="effect3_dropShadow_133_2614" result="effect4_dropShadow_133_2614"/>
<feBlend mode="normal" in="SourceGraphic" in2="effect4_dropShadow_133_2614" result="shape"/>
</filter>
<filter id="filter3_dddd_133_2614" x="49" y="232" width="356" height="154" filterUnits="userSpaceOnUse" color-interpolation-filters="sRGB">
<feFlood flood-opacity="0" result="BackgroundImageFix"/>
<feColorMatrix in="SourceAlpha" type="matrix" values="0 0 0 0 0 0 0 0 0 0 0 0 0 0 0 0 0 0 127 0" result="hardAlpha"/>
<feOffset/>
<feColorMatrix type="matrix" values="0 0 0 0 0 0 0 0 0 0.443137 0 0 0 0 0.745098 0 0 0 0.08 0"/>
<feBlend mode="normal" in2="BackgroundImageFix" result="effect1_dropShadow_133_2614"/>
<feColorMatrix in="SourceAlpha" type="matrix" values="0 0 0 0 0 0 0 0 0 0 0 0 0 0 0 0 0 0 127 0" result="hardAlpha"/>
<feOffset/>
<feGaussianBlur stdDeviation="0.5"/>
<feColorMatrix type="matrix" values="0 0 0 0 0 0 0 0 0 0.443137 0 0 0 0 0.745098 0 0 0 0.08 0"/>
<feBlend mode="normal" in2="effect1_dropShadow_133_2614" result="effect2_dropShadow_133_2614"/>
<feColorMatrix in="SourceAlpha" type="matrix" values="0 0 0 0 0 0 0 0 0 0 0 0 0 0 0 0 0 0 127 0" result="hardAlpha"/>
<feOffset dy="1"/>
<feGaussianBlur stdDeviation="0.5"/>
<feColorMatrix type="matrix" values="0 0 0 0 0 0 0 0 0 0.443137 0 0 0 0 0.745098 0 0 0 0.07 0"/>
<feBlend mode="normal" in2="effect2_dropShadow_133_2614" result="effect3_dropShadow_133_2614"/>
<feColorMatrix in="SourceAlpha" type="matrix" values="0 0 0 0 0 0 0 0 0 0 0 0 0 0 0 0 0 0 127 0" result="hardAlpha"/>
<feOffset dy="3"/>
<feGaussianBlur stdDeviation="1"/>
<feColorMatrix type="matrix" values="0 0 0 0 0 0 0 0 0 0.443137 0 0 0 0 0.745098 0 0 0 0.04 0"/>
<feBlend mode="normal" in2="effect3_dropShadow_133_2614" result="effect4_dropShadow_133_2614"/>
<feBlend mode="normal" in="SourceGraphic" in2="effect4_dropShadow_133_2614" result="shape"/>
</filter>
<linearGradient id="paint0_linear_133_2614" x1="76.853" y1="69.2863" x2="70.5007" y2="55.5795" gradientUnits="userSpaceOnUse">
<stop offset="0.1617" stop-color="#631A13"/>
<stop offset="0.8096" stop-color="#D74F3C"/>
</linearGradient>
<linearGradient id="paint1_linear_133_2614" x1="59.3241" y1="57.3431" x2="63.7252" y2="63.4645" gradientUnits="userSpaceOnUse">
<stop offset="0.1617" stop-color="#631A13"/>
<stop offset="0.9814" stop-color="#D74F3C"/>
</linearGradient>
<clipPath id="clip0_133_2614">
<rect x="51" y="103" width="352" height="52" rx="12" fill="white"/>
</clipPath>
<clipPath id="clip1_133_2614">
<path d="M51 115C51 108.373 56.3726 103 63 103H391C397.627 103 403 108.373 403 115V155H51V115Z" fill="white"/>
</clipPath>
<clipPath id="clip2_133_2614">
<rect x="51" y="168" width="352" height="52" rx="12" fill="white"/>
</clipPath>
<clipPath id="clip3_133_2614">
<path d="M51 180C51 173.373 56.3726 168 63 168H391C397.627 168 403 173.373 403 180V220H51V180Z" fill="white"/>
</clipPath>
<clipPath id="clip4_133_2614">
<rect x="51" y="233" width="352" height="148" rx="12" fill="white"/>
</clipPath>
<clipPath id="clip5_133_2614">
<path d="M51 245C51 238.373 56.3726 233 63 233H391C397.627 233 403 238.373 403 245V285H51V245Z" fill="white"/>
</clipPath>
</defs>
</svg>
