<svg width="400" height="900" viewBox="0 0 400 900" fill="none" xmlns="http://www.w3.org/2000/svg">
<mask id="path-1-inside-1_126_2019" fill="white">
<path d="M0 0H400V900H0V0Z"/>
</mask>
<path d="M0 0H400V900H0V0Z" fill="white"/>
<path d="M48.9894 34.5363L45.1291 34.543L42.3659 30.8941C42.2318 30.717 42.1493 30.5055 42.1277 30.2834C42.106 30.0613 42.1462 29.8375 42.2435 29.6373C42.3408 29.4371 42.4915 29.2685 42.6785 29.1505C42.8655 29.0325 43.0813 28.9699 43.3016 28.9697L48.553 28.9648C48.7343 28.9647 48.9132 29.0068 49.0759 29.088C49.2385 29.1692 49.3805 29.2872 49.4909 29.4329L50.6956 31.0238C51.7822 32.4587 50.7746 34.5332 48.9894 34.5363Z" fill="url(#paint0_linear_126_2019)"/>
<path d="M46.4167 41.1015C46.4124 41.1015 46.4082 41.1015 46.404 41.1015L29.1838 41.1173C28.0554 41.1184 27.5689 39.6668 28.4642 38.97L33.9035 34.7368C34.1094 34.5767 34.3615 34.4897 34.6209 34.4895L45.1509 34.4797L49.01 34.473C50.7947 34.4699 51.802 32.3934 50.7157 30.9572L51.0901 31.4521C54.0701 35.3922 51.3086 41.087 46.4167 41.1015Z" fill="#0894E4"/>
<path d="M32.608 26.6804L36.4683 26.6737L39.2315 30.3226C39.3656 30.4997 39.4482 30.7112 39.4698 30.9333C39.4914 31.1554 39.4513 31.3792 39.354 31.5794C39.2566 31.7796 39.1059 31.9482 38.919 32.0662C38.732 32.1842 38.5161 32.2468 38.2958 32.247L33.0445 32.2518C32.8632 32.252 32.6842 32.2099 32.5216 32.1287C32.359 32.0475 32.217 31.9295 32.1066 31.7838L30.9019 30.1929C29.8152 28.758 30.8229 26.6835 32.608 26.6804Z" fill="url(#paint1_linear_126_2019)"/>
<path d="M35.1575 20.0158C35.1618 20.0158 35.1659 20.0158 35.1702 20.0158L52.321 20C53.4448 19.999 53.9293 21.4506 53.0376 22.1473L47.6202 26.3805C47.4152 26.5407 47.1641 26.6276 46.9057 26.6279L36.4181 26.6376L32.5746 26.6444C30.7972 26.6474 29.794 28.7239 30.8759 30.1602L30.503 29.6652C27.535 25.7251 30.2853 20.0303 35.1575 20.0158Z" fill="#27AE60"/>
<path d="M60.354 29.635V34.0782C60.354 35.0473 61.0915 35.2272 62.4233 35.1812C62.4851 35.179 62.5468 35.1894 62.6046 35.2118C62.6624 35.2343 62.7152 35.2683 62.7597 35.3119C62.8043 35.3555 62.8398 35.4078 62.864 35.4656C62.8883 35.5234 62.9008 35.5856 62.9009 35.6484V38.1449C62.9009 38.2622 62.8576 38.3752 62.7794 38.4616C62.7012 38.5479 62.5939 38.6012 62.4788 38.6109C57.972 38.984 56.6449 37.4883 56.6449 34.0782V29.635H55.1273C55.0052 29.635 54.888 29.5857 54.8016 29.4981C54.7153 29.4104 54.6668 29.2915 54.6667 29.1674V26.4878C54.6668 26.3638 54.7153 26.2449 54.8016 26.1572C54.888 26.0695 55.0052 26.0202 55.1273 26.0202H56.6449V23.9834C56.6449 23.8828 56.6768 23.785 56.736 23.7043C56.7951 23.6236 56.8783 23.5645 56.9731 23.5356L59.761 22.6865C59.8298 22.6655 59.9025 22.6612 59.9732 22.6738C60.0439 22.6864 60.1107 22.7157 60.1683 22.7592C60.2259 22.8027 60.2727 22.8593 60.3049 22.9244C60.3372 22.9895 60.354 23.0614 60.354 23.1343V26.0202H62.4403C62.5624 26.0202 62.6796 26.0695 62.766 26.1572C62.8523 26.2449 62.9008 26.3638 62.9008 26.4878V29.1674C62.9008 29.2915 62.8523 29.4104 62.766 29.4981C62.6796 29.5857 62.5624 29.635 62.4403 29.635H60.354Z" fill="black"/>
<path d="M77.4841 26.5064V38.1479C77.4841 38.2722 77.4353 38.3914 77.3483 38.4792C77.2614 38.5671 77.1434 38.6165 77.0205 38.6165H74.2137C74.0908 38.6165 73.9728 38.5671 73.8859 38.4792C73.7989 38.3914 73.7501 38.2722 73.7501 38.1479V37.4341C72.9286 38.3901 71.7088 38.9687 70.0409 38.9687C66.7798 38.9687 64.0913 36.0756 64.0913 32.3272C64.0913 28.5788 66.7798 25.6857 70.0409 25.6857C71.7088 25.6857 72.9286 26.2643 73.7501 27.2203V26.5064C73.7501 26.3822 73.7989 26.263 73.8859 26.1751C73.9728 26.0872 74.0908 26.0379 74.2137 26.0379H77.0205C77.1434 26.0379 77.2614 26.0872 77.3483 26.1751C77.4353 26.263 77.4841 26.3822 77.4841 26.5064V26.5064ZM73.7501 32.3272C73.7501 30.4404 72.5054 29.258 70.7877 29.258C69.0701 29.258 67.8254 30.4404 67.8254 32.3272C67.8254 34.214 69.07 35.3964 70.7877 35.3964C72.5054 35.3964 73.7501 34.214 73.7501 32.3272Z" fill="black"/>
<path d="M92.4956 26.0379C92.6185 26.0379 92.7365 26.0872 92.8234 26.1751C92.9104 26.263 92.9592 26.3822 92.9592 26.5064V37.9875C92.9592 42.214 89.6982 44.0001 86.3873 44.0001C83.9825 44.0001 81.9428 43.1536 80.7471 41.3799C80.7118 41.3267 80.6876 41.2667 80.6762 41.2036C80.6648 41.1405 80.6664 41.0758 80.6808 41.0134C80.6953 40.951 80.7223 40.8922 80.7602 40.8408C80.798 40.7894 80.846 40.7464 80.901 40.7145L83.2824 39.3232C83.3827 39.2641 83.5014 39.2454 83.6147 39.2708C83.728 39.2961 83.8278 39.3637 83.8941 39.46C84.3722 40.1621 85.1038 40.6794 86.5117 40.6794C88.2543 40.6794 89.3247 39.7737 89.3247 37.9875V36.8303C88.5032 37.8618 87.3083 38.4655 85.6903 38.4655C82.1554 38.4655 79.5664 35.5473 79.5664 32.0756C79.5664 28.6039 82.1554 25.6857 85.6903 25.6857C87.3083 25.6857 88.5032 26.2895 89.3247 27.3209V26.5064C89.3247 26.3822 89.3736 26.263 89.4605 26.1751C89.5475 26.0872 89.6654 26.0379 89.7884 26.0379H92.4956ZM89.3248 32.0756C89.3248 30.3398 88.0801 29.1574 86.3127 29.1574C84.5452 29.1574 83.3005 30.3398 83.3005 32.0756C83.3005 33.8114 84.5452 34.9938 86.3127 34.9938C88.0801 34.9938 89.3248 33.8114 89.3248 32.0756H89.3248Z" fill="black"/>
<path d="M101.963 35.5976C102.838 35.5976 103.603 35.2991 104.116 34.8629C104.188 34.8012 104.278 34.7637 104.372 34.7553C104.466 34.7469 104.56 34.768 104.642 34.8159L106.856 36.1072C106.915 36.1418 106.966 36.1891 107.005 36.2459C107.044 36.3027 107.07 36.3675 107.081 36.4357C107.093 36.5039 107.089 36.5738 107.071 36.6404C107.052 36.707 107.02 36.7686 106.975 36.8209C105.768 38.2401 104.056 38.9687 101.913 38.9687C97.6719 38.9687 95.043 36.0756 95.043 32.3272C95.043 28.5788 97.7215 25.6857 101.64 25.6857C105.261 25.6857 107.94 28.5284 107.94 32.3272C107.942 32.8342 107.892 33.3401 107.791 33.8366H98.9864C99.4576 35.1448 100.598 35.5976 101.963 35.5976ZM104.244 31.019C103.847 29.5599 102.731 29.0316 101.615 29.0316C100.202 29.0316 99.2592 29.736 98.912 31.019H104.244Z" fill="black"/>
<path d="M119.15 34.8429C119.15 37.736 116.674 38.9687 114 38.9687C111.699 38.9687 109.911 38.143 108.895 36.3907C108.864 36.3372 108.845 36.2782 108.837 36.2169C108.829 36.1556 108.833 36.0934 108.849 36.0337C108.865 35.9741 108.892 35.9183 108.93 35.8695C108.967 35.8207 109.013 35.7799 109.066 35.7495L111.453 34.3693C111.506 34.3388 111.565 34.3193 111.626 34.3121C111.687 34.3049 111.749 34.3101 111.808 34.3273C111.867 34.3445 111.922 34.3734 111.97 34.4125C112.018 34.4515 112.058 34.4997 112.087 34.5545C112.459 35.2305 113.092 35.5976 114 35.5976C114.891 35.5976 115.337 35.3209 115.337 34.8177C115.337 33.4341 109.246 34.1637 109.246 29.8115C109.246 27.0693 111.524 25.6857 114.099 25.6857C115.932 25.6857 117.578 26.4417 118.642 27.9347C118.68 27.9888 118.706 28.0505 118.719 28.1158C118.732 28.1811 118.731 28.2483 118.716 28.3132C118.701 28.378 118.673 28.4389 118.633 28.4917C118.593 28.5446 118.543 28.5882 118.485 28.6196L116.138 29.9053C116.04 29.9591 115.927 29.9753 115.819 29.9506C115.71 29.926 115.614 29.8624 115.548 29.7714C115.216 29.3067 114.764 29.0064 114.099 29.0064C113.455 29.0064 113.059 29.258 113.059 29.7108C113.059 31.1448 119.15 30.1888 119.15 34.8429Z" fill="black"/>
<path d="M127.161 35.5976C128.037 35.5976 128.802 35.2992 129.315 34.8629C129.387 34.8013 129.476 34.7637 129.571 34.7553C129.665 34.7469 129.759 34.7681 129.841 34.8159L132.055 36.1072C132.114 36.1418 132.165 36.1891 132.204 36.2459C132.243 36.3027 132.269 36.3675 132.28 36.4357C132.292 36.5039 132.288 36.5738 132.269 36.6404C132.251 36.707 132.218 36.7686 132.174 36.8209C130.967 38.2401 129.255 38.9687 127.112 38.9687C122.871 38.9687 120.242 36.0756 120.242 32.3272C120.242 28.5788 122.92 25.6857 126.839 25.6857C130.46 25.6857 133.138 28.5284 133.138 32.3272C133.141 32.8342 133.091 33.3401 132.99 33.8366H124.185C124.656 35.1448 125.797 35.5976 127.161 35.5976ZM129.443 31.019C129.046 29.5599 127.93 29.0316 126.814 29.0316C125.4 29.0316 124.458 29.736 124.111 31.019H129.443Z" fill="black"/>
<path d="M139.62 29.635V34.0782C139.62 35.0473 140.357 35.2272 141.689 35.1812C141.751 35.179 141.813 35.1894 141.87 35.2118C141.928 35.2343 141.981 35.2683 142.025 35.3119C142.07 35.3555 142.106 35.4078 142.13 35.4656C142.154 35.5234 142.167 35.5856 142.167 35.6484V38.1449C142.167 38.2622 142.123 38.3752 142.045 38.4616C141.967 38.5479 141.86 38.6012 141.745 38.6109C137.238 38.984 135.911 37.4883 135.911 34.0782V29.635H134.393C134.271 29.635 134.154 29.5857 134.067 29.4981C133.981 29.4104 133.932 29.2915 133.932 29.1674V26.4878C133.932 26.3638 133.981 26.2449 134.067 26.1572C134.154 26.0695 134.271 26.0202 134.393 26.0202H135.911V23.9834C135.911 23.8828 135.943 23.785 136.002 23.7043C136.061 23.6236 136.144 23.5644 136.239 23.5356L139.027 22.6865C139.096 22.6655 139.168 22.6612 139.239 22.6738C139.31 22.6864 139.376 22.7157 139.434 22.7592C139.492 22.8027 139.538 22.8593 139.571 22.9244C139.603 22.9895 139.62 23.0614 139.62 23.1343V26.0202H141.706C141.828 26.0202 141.945 26.0695 142.032 26.1572C142.118 26.2449 142.167 26.3638 142.167 26.4878V29.1674C142.167 29.2915 142.118 29.4104 142.032 29.4981C141.945 29.5857 141.828 29.635 141.706 29.635H139.62Z" fill="black"/>
<rect x="285" y="16" width="91" height="32" rx="8" fill="#0073F5"/>
<path d="M310.333 39.5V37.8333C310.333 36.9493 309.982 36.1014 309.357 35.4763C308.732 34.8512 307.884 34.5 307 34.5H301.167C300.283 34.5 299.435 34.8512 298.81 35.4763C298.185 36.1014 297.833 36.9493 297.833 37.8333V39.5" stroke="white" stroke-width="1.6" stroke-linecap="round" stroke-linejoin="round"/>
<path d="M304.083 31.1667C305.924 31.1667 307.417 29.6743 307.417 27.8333C307.417 25.9924 305.924 24.5 304.083 24.5C302.242 24.5 300.75 25.9924 300.75 27.8333C300.75 29.6743 302.242 31.1667 304.083 31.1667Z" stroke="white" stroke-width="1.6" stroke-linecap="round" stroke-linejoin="round"/>
<path d="M313.667 28.6666V33.6666" stroke="white" stroke-width="1.6" stroke-linecap="round" stroke-linejoin="round"/>
<path d="M316.167 31.1666H311.167" stroke="white" stroke-width="1.6" stroke-linecap="round" stroke-linejoin="round"/>
<path d="M331.672 29.4929C331.619 29.0223 331.4 28.6577 331.016 28.3991C330.631 28.1373 330.147 28.0064 329.564 28.0064C329.146 28.0064 328.785 28.0727 328.48 28.2053C328.175 28.3345 327.938 28.5135 327.769 28.7422C327.603 28.9676 327.521 29.2244 327.521 29.5128C327.521 29.7547 327.577 29.9635 327.69 30.1392C327.806 30.3149 327.956 30.4624 328.142 30.5817C328.331 30.6977 328.533 30.7955 328.749 30.875C328.964 30.9512 329.171 31.0142 329.37 31.0639L330.364 31.3224C330.689 31.402 331.022 31.5097 331.364 31.6456C331.705 31.7815 332.022 31.9605 332.313 32.1825C332.605 32.4046 332.84 32.6797 333.019 33.0078C333.201 33.3359 333.293 33.7287 333.293 34.1861C333.293 34.7628 333.143 35.2749 332.845 35.7223C332.55 36.1697 332.121 36.5227 331.558 36.7812C330.997 37.0398 330.32 37.169 329.524 37.169C328.762 37.169 328.102 37.0481 327.545 36.8061C326.989 36.5642 326.553 36.2211 326.238 35.777C325.923 35.3295 325.749 34.7992 325.716 34.1861H327.257C327.287 34.554 327.406 34.8606 327.615 35.1058C327.827 35.3478 328.097 35.5284 328.425 35.6477C328.757 35.7637 329.12 35.8217 329.514 35.8217C329.948 35.8217 330.335 35.7538 330.673 35.6179C331.014 35.4787 331.282 35.2865 331.478 35.0412C331.674 34.7926 331.771 34.5026 331.771 34.1712C331.771 33.8696 331.685 33.6226 331.513 33.4304C331.344 33.2382 331.113 33.0791 330.822 32.9531C330.533 32.8272 330.207 32.7161 329.842 32.62L328.639 32.2919C327.824 32.0698 327.178 31.7434 326.7 31.3125C326.226 30.8816 325.989 30.3116 325.989 29.6023C325.989 29.0156 326.148 28.5036 326.467 28.0661C326.785 27.6286 327.216 27.2888 327.759 27.0469C328.303 26.8016 328.916 26.679 329.599 26.679C330.288 26.679 330.896 26.8 331.423 27.0419C331.954 27.2839 332.371 27.617 332.676 28.0412C332.981 28.4621 333.14 28.946 333.153 29.4929H331.672ZM336.496 32.4659V37H335.009V26.8182H336.476V30.6065H336.57C336.749 30.1955 337.023 29.8691 337.39 29.6271C337.758 29.3852 338.239 29.2642 338.832 29.2642C339.356 29.2642 339.813 29.3719 340.204 29.5874C340.599 29.8028 340.904 30.1243 341.119 30.5518C341.338 30.9761 341.447 31.5064 341.447 32.1428V37H339.961V32.3217C339.961 31.7616 339.817 31.3274 339.528 31.0192C339.24 30.7076 338.839 30.5518 338.325 30.5518C337.974 30.5518 337.659 30.6264 337.381 30.7756C337.105 30.9247 336.888 31.1435 336.729 31.4318C336.573 31.7169 336.496 32.0616 336.496 32.4659ZM345.653 37.169C345.169 37.169 344.732 37.0795 344.341 36.9006C343.95 36.7183 343.64 36.4548 343.411 36.1101C343.186 35.7654 343.073 35.3428 343.073 34.8423C343.073 34.4115 343.156 34.0568 343.322 33.7784C343.487 33.5 343.711 33.2796 343.993 33.1172C344.274 32.9548 344.589 32.8321 344.937 32.7493C345.285 32.6664 345.64 32.6035 346.001 32.5604C346.459 32.5073 346.83 32.4643 347.115 32.4311C347.4 32.3946 347.607 32.3366 347.736 32.2571C347.866 32.1776 347.93 32.0483 347.93 31.8693V31.8345C347.93 31.4003 347.808 31.0639 347.562 30.8253C347.32 30.5866 346.959 30.4673 346.479 30.4673C345.978 30.4673 345.584 30.5784 345.295 30.8004C345.01 31.0192 344.813 31.2628 344.704 31.5312L343.307 31.2131C343.472 30.7491 343.714 30.3745 344.032 30.0895C344.354 29.8011 344.724 29.5923 345.141 29.4631C345.559 29.3305 345.998 29.2642 346.459 29.2642C346.764 29.2642 347.087 29.3007 347.428 29.3736C347.773 29.4432 348.094 29.5724 348.393 29.7614C348.694 29.9503 348.941 30.2204 349.133 30.5717C349.326 30.9197 349.422 31.3722 349.422 31.929V37H347.97V35.956H347.91C347.814 36.1482 347.67 36.3371 347.478 36.5227C347.286 36.7083 347.039 36.8625 346.737 36.9851C346.435 37.1077 346.074 37.169 345.653 37.169ZM345.976 35.9759C346.387 35.9759 346.739 35.8946 347.03 35.7322C347.325 35.5698 347.549 35.3577 347.702 35.0959C347.857 34.8307 347.935 34.5473 347.935 34.2457V33.2614C347.882 33.3144 347.779 33.3641 347.627 33.4105C347.478 33.4536 347.307 33.4917 347.115 33.5249C346.923 33.5547 346.735 33.5829 346.553 33.6094C346.371 33.6326 346.218 33.6525 346.096 33.669C345.807 33.7055 345.544 33.7668 345.305 33.853C345.07 33.9392 344.881 34.0634 344.738 34.2259C344.599 34.3849 344.53 34.5971 344.53 34.8622C344.53 35.2301 344.666 35.5085 344.937 35.6974C345.209 35.883 345.555 35.9759 345.976 35.9759ZM351.402 37V29.3636H352.838V30.5767H352.918C353.057 30.1657 353.302 29.8426 353.654 29.6072C354.008 29.3686 354.409 29.2493 354.857 29.2493C354.95 29.2493 355.059 29.2526 355.185 29.2592C355.314 29.2659 355.415 29.2741 355.488 29.2841V30.706C355.429 30.6894 355.323 30.6712 355.17 30.6513C355.018 30.6281 354.865 30.6165 354.713 30.6165C354.361 30.6165 354.048 30.6911 353.773 30.8402C353.501 30.986 353.286 31.1899 353.127 31.4517C352.968 31.7102 352.888 32.0052 352.888 32.3366V37H351.402ZM359.792 37.1541C359.04 37.1541 358.392 36.9934 357.849 36.6719C357.308 36.3471 356.891 35.8913 356.596 35.3047C356.304 34.7147 356.158 34.0237 356.158 33.2315C356.158 32.4493 356.304 31.7599 356.596 31.1634C356.891 30.5668 357.302 30.1011 357.829 29.7663C358.359 29.4316 358.979 29.2642 359.688 29.2642C360.119 29.2642 360.537 29.3355 360.941 29.478C361.345 29.6205 361.708 29.8442 362.03 30.1491C362.351 30.4541 362.605 30.8501 362.79 31.3374C362.976 31.8213 363.069 32.4096 363.069 33.1023V33.6293H356.998V32.5156H361.612C361.612 32.1245 361.532 31.7782 361.373 31.4766C361.214 31.1716 360.991 30.9313 360.702 30.7557C360.417 30.58 360.082 30.4922 359.698 30.4922C359.28 30.4922 358.916 30.5949 358.604 30.8004C358.296 31.0026 358.057 31.2678 357.888 31.5959C357.723 31.9207 357.64 32.2737 357.64 32.6548V33.5249C357.64 34.0353 357.729 34.4695 357.908 34.8274C358.09 35.1854 358.344 35.4588 358.669 35.6477C358.994 35.8333 359.373 35.9261 359.807 35.9261C360.089 35.9261 360.346 35.8864 360.578 35.8068C360.81 35.724 361.01 35.6013 361.18 35.4389C361.349 35.2765 361.478 35.076 361.567 34.8374L362.974 35.0909C362.862 35.5052 362.659 35.8681 362.368 36.1797C362.079 36.4879 361.716 36.7282 361.279 36.9006C360.845 37.0696 360.349 37.1541 359.792 37.1541Z" fill="white"/>
<g filter="url(#filter0_dddd_126_2019)">
<g clip-path="url(#clip0_126_2019)">
<rect x="24" y="72" width="352" height="52" rx="12" fill="#F9FBFF"/>
<g clip-path="url(#clip1_126_2019)">
<path d="M24 84C24 77.3726 29.3726 72 36 72H364C370.627 72 376 77.3726 376 84V124H24V84Z" fill="#F9FBFF"/>
<path d="M41 94.5L46 99.5L51 94.5" stroke="#7084B4" stroke-width="1.6" stroke-linecap="round" stroke-linejoin="round"/>
<path d="M75.5568 104L72.3295 92.3636H74.1761L76.4432 101.375H76.5511L78.9091 92.3636H80.7386L83.0966 101.381H83.2045L85.4659 92.3636H87.3182L84.0852 104H82.3182L79.8693 95.2841H79.7784L77.3295 104H75.5568ZM91.6847 104.176C90.8248 104.176 90.0843 103.992 89.4631 103.625C88.8456 103.254 88.3684 102.733 88.0312 102.062C87.6979 101.388 87.5312 100.598 87.5312 99.6932C87.5312 98.7992 87.6979 98.0114 88.0312 97.3295C88.3684 96.6477 88.8381 96.1155 89.4403 95.733C90.0464 95.3504 90.7547 95.1591 91.5653 95.1591C92.0578 95.1591 92.535 95.2405 92.9972 95.4034C93.4593 95.5663 93.8741 95.822 94.2415 96.1705C94.6089 96.5189 94.8987 96.9716 95.1108 97.5284C95.3229 98.0814 95.429 98.7538 95.429 99.5455V100.148H88.4915V98.875H93.7642C93.7642 98.428 93.6733 98.0322 93.4915 97.6875C93.3097 97.339 93.054 97.0644 92.7244 96.8636C92.3987 96.6629 92.0161 96.5625 91.5767 96.5625C91.0994 96.5625 90.6828 96.6799 90.3267 96.9148C89.9744 97.1458 89.7017 97.4489 89.5085 97.8239C89.3191 98.1951 89.2244 98.5985 89.2244 99.0341V100.028C89.2244 100.612 89.3267 101.108 89.5312 101.517C89.7396 101.926 90.0294 102.239 90.4006 102.455C90.7718 102.667 91.2055 102.773 91.7017 102.773C92.0237 102.773 92.3172 102.727 92.5824 102.636C92.8475 102.542 93.0767 102.402 93.2699 102.216C93.4631 102.03 93.6108 101.801 93.7131 101.528L95.321 101.818C95.1922 102.292 94.9612 102.706 94.6278 103.062C94.2983 103.415 93.8835 103.689 93.3835 103.886C92.8873 104.08 92.321 104.176 91.6847 104.176ZM99.0128 92.3636V104H97.3139V92.3636H99.0128ZM104.974 104.176C104.13 104.176 103.402 103.985 102.793 103.602C102.187 103.216 101.721 102.684 101.395 102.006C101.069 101.328 100.906 100.551 100.906 99.6761C100.906 98.7898 101.073 98.0076 101.406 97.3295C101.74 96.6477 102.209 96.1155 102.815 95.733C103.421 95.3504 104.135 95.1591 104.957 95.1591C105.62 95.1591 106.211 95.2822 106.73 95.5284C107.249 95.7708 107.668 96.1117 107.986 96.5511C108.308 96.9905 108.499 97.5038 108.56 98.0909H106.906C106.815 97.6818 106.607 97.3295 106.281 97.0341C105.959 96.7386 105.527 96.5909 104.986 96.5909C104.512 96.5909 104.098 96.7159 103.741 96.9659C103.389 97.2121 103.115 97.5644 102.918 98.0227C102.721 98.4773 102.622 99.0152 102.622 99.6364C102.622 100.273 102.719 100.822 102.912 101.284C103.105 101.746 103.378 102.104 103.73 102.358C104.086 102.612 104.505 102.739 104.986 102.739C105.308 102.739 105.599 102.68 105.861 102.562C106.126 102.441 106.348 102.269 106.526 102.045C106.707 101.822 106.834 101.553 106.906 101.239H108.56C108.499 101.803 108.315 102.307 108.009 102.75C107.702 103.193 107.291 103.542 106.776 103.795C106.264 104.049 105.664 104.176 104.974 104.176ZM114.053 104.176C113.234 104.176 112.52 103.989 111.911 103.614C111.301 103.239 110.827 102.714 110.49 102.04C110.153 101.366 109.984 100.578 109.984 99.6761C109.984 98.7708 110.153 97.9792 110.49 97.3011C110.827 96.6231 111.301 96.0966 111.911 95.7216C112.52 95.3466 113.234 95.1591 114.053 95.1591C114.871 95.1591 115.585 95.3466 116.195 95.7216C116.804 96.0966 117.278 96.6231 117.615 97.3011C117.952 97.9792 118.121 98.7708 118.121 99.6761C118.121 100.578 117.952 101.366 117.615 102.04C117.278 102.714 116.804 103.239 116.195 103.614C115.585 103.989 114.871 104.176 114.053 104.176ZM114.058 102.75C114.589 102.75 115.028 102.61 115.376 102.33C115.725 102.049 115.982 101.676 116.149 101.21C116.32 100.744 116.405 100.231 116.405 99.6705C116.405 99.1136 116.32 98.6023 116.149 98.1364C115.982 97.6667 115.725 97.2898 115.376 97.0057C115.028 96.7216 114.589 96.5795 114.058 96.5795C113.524 96.5795 113.081 96.7216 112.729 97.0057C112.38 97.2898 112.121 97.6667 111.95 98.1364C111.784 98.6023 111.7 99.1136 111.7 99.6705C111.7 100.231 111.784 100.744 111.95 101.21C112.121 101.676 112.38 102.049 112.729 102.33C113.081 102.61 113.524 102.75 114.058 102.75ZM120.017 104V95.2727H121.648V96.6932H121.756C121.938 96.2121 122.235 95.8371 122.648 95.5682C123.061 95.2955 123.555 95.1591 124.131 95.1591C124.714 95.1591 125.203 95.2955 125.597 95.5682C125.994 95.8409 126.288 96.2159 126.477 96.6932H126.568C126.777 96.2273 127.108 95.8561 127.562 95.5795C128.017 95.2992 128.559 95.1591 129.188 95.1591C129.979 95.1591 130.625 95.4072 131.125 95.9034C131.629 96.3996 131.881 97.1477 131.881 98.1477V104H130.182V98.3068C130.182 97.7159 130.021 97.2879 129.699 97.0227C129.377 96.7576 128.992 96.625 128.545 96.625C127.992 96.625 127.562 96.7955 127.256 97.1364C126.949 97.4735 126.795 97.9072 126.795 98.4375V104H125.102V98.1989C125.102 97.7254 124.955 97.3447 124.659 97.0568C124.364 96.7689 123.979 96.625 123.506 96.625C123.184 96.625 122.886 96.7102 122.614 96.8807C122.345 97.0473 122.127 97.2803 121.96 97.5795C121.797 97.8788 121.716 98.2254 121.716 98.6193V104H120.017ZM137.919 104.176C137.059 104.176 136.319 103.992 135.697 103.625C135.08 103.254 134.603 102.733 134.266 102.062C133.932 101.388 133.766 100.598 133.766 99.6932C133.766 98.7992 133.932 98.0114 134.266 97.3295C134.603 96.6477 135.072 96.1155 135.675 95.733C136.281 95.3504 136.989 95.1591 137.8 95.1591C138.292 95.1591 138.769 95.2405 139.232 95.4034C139.694 95.5663 140.108 95.822 140.476 96.1705C140.843 96.5189 141.133 96.9716 141.345 97.5284C141.557 98.0814 141.663 98.7538 141.663 99.5455V100.148H134.726V98.875H139.999C139.999 98.428 139.908 98.0322 139.726 97.6875C139.544 97.339 139.288 97.0644 138.959 96.8636C138.633 96.6629 138.25 96.5625 137.811 96.5625C137.334 96.5625 136.917 96.6799 136.561 96.9148C136.209 97.1458 135.936 97.4489 135.743 97.8239C135.554 98.1951 135.459 98.5985 135.459 99.0341V100.028C135.459 100.612 135.561 101.108 135.766 101.517C135.974 101.926 136.264 102.239 136.635 102.455C137.006 102.667 137.44 102.773 137.936 102.773C138.258 102.773 138.552 102.727 138.817 102.636C139.082 102.542 139.311 102.402 139.504 102.216C139.697 102.03 139.845 101.801 139.947 101.528L141.555 101.818C141.427 102.292 141.196 102.706 140.862 103.062C140.533 103.415 140.118 103.689 139.618 103.886C139.122 104.08 138.555 104.176 137.919 104.176ZM145.759 102.409L145.673 103.028C145.616 103.483 145.52 103.956 145.384 104.449C145.251 104.945 145.113 105.405 144.969 105.83C144.829 106.254 144.713 106.591 144.622 106.841H143.418C143.467 106.606 143.535 106.288 143.622 105.886C143.709 105.489 143.795 105.044 143.878 104.551C143.961 104.059 144.024 103.557 144.065 103.045L144.122 102.409H145.759ZM152.886 105.432V90.9375H156.619V92.2841H154.511V104.085H156.619V105.432H152.886ZM167.78 92.3636V104H166.166L160.251 95.4659H160.143V104H158.388V92.3636H160.013L165.933 100.909H166.041V92.3636H167.78ZM172.744 104.193C172.191 104.193 171.691 104.091 171.244 103.886C170.797 103.678 170.443 103.377 170.182 102.983C169.924 102.589 169.795 102.106 169.795 101.534C169.795 101.042 169.89 100.636 170.08 100.318C170.269 100 170.525 99.7481 170.847 99.5625C171.169 99.3769 171.528 99.2367 171.926 99.142C172.324 99.0473 172.729 98.9754 173.142 98.9261C173.665 98.8655 174.089 98.8163 174.415 98.7784C174.741 98.7367 174.977 98.6705 175.125 98.5795C175.273 98.4886 175.347 98.3409 175.347 98.1364V98.0966C175.347 97.6004 175.206 97.2159 174.926 96.9432C174.65 96.6705 174.237 96.5341 173.688 96.5341C173.116 96.5341 172.665 96.661 172.335 96.9148C172.009 97.1648 171.784 97.4432 171.659 97.75L170.062 97.3864C170.252 96.8561 170.528 96.428 170.892 96.1023C171.259 95.7727 171.682 95.5341 172.159 95.3864C172.636 95.2348 173.138 95.1591 173.665 95.1591C174.013 95.1591 174.383 95.2008 174.773 95.2841C175.167 95.3636 175.534 95.5114 175.875 95.7273C176.22 95.9432 176.502 96.2519 176.722 96.6534C176.941 97.0511 177.051 97.5682 177.051 98.2045V104H175.392V102.807H175.324C175.214 103.027 175.049 103.242 174.83 103.455C174.61 103.667 174.328 103.843 173.983 103.983C173.638 104.123 173.225 104.193 172.744 104.193ZM173.114 102.83C173.583 102.83 173.985 102.737 174.318 102.551C174.655 102.366 174.911 102.123 175.085 101.824C175.263 101.521 175.352 101.197 175.352 100.852V99.7273C175.292 99.7879 175.174 99.8447 175 99.8977C174.83 99.947 174.634 99.9905 174.415 100.028C174.195 100.062 173.981 100.095 173.773 100.125C173.564 100.152 173.39 100.174 173.25 100.193C172.92 100.235 172.619 100.305 172.347 100.403C172.078 100.502 171.862 100.644 171.699 100.83C171.54 101.011 171.46 101.254 171.46 101.557C171.46 101.977 171.616 102.295 171.926 102.511C172.237 102.723 172.633 102.83 173.114 102.83ZM179.314 104V95.2727H180.945V96.6932H181.053C181.234 96.2121 181.532 95.8371 181.945 95.5682C182.357 95.2955 182.852 95.1591 183.428 95.1591C184.011 95.1591 184.5 95.2955 184.893 95.5682C185.291 95.8409 185.585 96.2159 185.774 96.6932H185.865C186.073 96.2273 186.405 95.8561 186.859 95.5795C187.314 95.2992 187.856 95.1591 188.484 95.1591C189.276 95.1591 189.922 95.4072 190.422 95.9034C190.926 96.3996 191.178 97.1477 191.178 98.1477V104H189.479V98.3068C189.479 97.7159 189.318 97.2879 188.996 97.0227C188.674 96.7576 188.289 96.625 187.842 96.625C187.289 96.625 186.859 96.7955 186.553 97.1364C186.246 97.4735 186.092 97.9072 186.092 98.4375V104H184.399V98.1989C184.399 97.7254 184.251 97.3447 183.956 97.0568C183.661 96.7689 183.276 96.625 182.803 96.625C182.481 96.625 182.183 96.7102 181.911 96.8807C181.642 97.0473 181.424 97.2803 181.257 97.5795C181.094 97.8788 181.013 98.2254 181.013 98.6193V104H179.314ZM197.216 104.176C196.356 104.176 195.616 103.992 194.994 103.625C194.377 103.254 193.9 102.733 193.562 102.062C193.229 101.388 193.062 100.598 193.062 99.6932C193.062 98.7992 193.229 98.0114 193.562 97.3295C193.9 96.6477 194.369 96.1155 194.972 95.733C195.578 95.3504 196.286 95.1591 197.097 95.1591C197.589 95.1591 198.066 95.2405 198.528 95.4034C198.991 95.5663 199.405 95.822 199.773 96.1705C200.14 96.5189 200.43 96.9716 200.642 97.5284C200.854 98.0814 200.96 98.7538 200.96 99.5455V100.148H194.023V98.875H199.295C199.295 98.428 199.205 98.0322 199.023 97.6875C198.841 97.339 198.585 97.0644 198.256 96.8636C197.93 96.6629 197.547 96.5625 197.108 96.5625C196.631 96.5625 196.214 96.6799 195.858 96.9148C195.506 97.1458 195.233 97.4489 195.04 97.8239C194.85 98.1951 194.756 98.5985 194.756 99.0341V100.028C194.756 100.612 194.858 101.108 195.062 101.517C195.271 101.926 195.561 102.239 195.932 102.455C196.303 102.667 196.737 102.773 197.233 102.773C197.555 102.773 197.848 102.727 198.114 102.636C198.379 102.542 198.608 102.402 198.801 102.216C198.994 102.03 199.142 101.801 199.244 101.528L200.852 101.818C200.723 102.292 200.492 102.706 200.159 103.062C199.83 103.415 199.415 103.689 198.915 103.886C198.419 104.08 197.852 104.176 197.216 104.176ZM205.925 91.9261V106.42H202.192V105.074H204.3V93.2727H202.192V91.9261H205.925Z" fill="#1A1929"/>
</g>
</g>
<rect x="24.5" y="72.5" width="351" height="51" rx="11.5" stroke="#EEF0FA"/>
</g>
<g filter="url(#filter1_dddd_126_2019)">
<g clip-path="url(#clip2_126_2019)">
<rect x="24" y="137" width="352" height="148" rx="12" fill="#F9FBFF"/>
<g clip-path="url(#clip3_126_2019)">
<path d="M24 149C24 142.373 29.3726 137 36 137H364C370.627 137 376 142.373 376 149V189H24V149Z" fill="#F9FBFF"/>
<path d="M51 164.5L46 159.5L41 164.5" stroke="#7084B4" stroke-width="1.6" stroke-linecap="round" stroke-linejoin="round"/>
<path d="M73.2784 169V157.364H77.5398C78.3655 157.364 79.0492 157.5 79.5909 157.773C80.1326 158.042 80.5379 158.407 80.8068 158.869C81.0758 159.328 81.2102 159.845 81.2102 160.42C81.2102 160.905 81.1212 161.314 80.9432 161.648C80.7652 161.977 80.5265 162.242 80.2273 162.443C79.9318 162.64 79.6061 162.784 79.25 162.875V162.989C79.6364 163.008 80.0133 163.133 80.3807 163.364C80.7519 163.591 81.0587 163.915 81.3011 164.335C81.5436 164.756 81.6648 165.267 81.6648 165.869C81.6648 166.464 81.5246 166.998 81.2443 167.472C80.9678 167.941 80.5398 168.314 79.9602 168.591C79.3807 168.864 78.6402 169 77.7386 169H73.2784ZM75.0341 167.494H77.5682C78.4091 167.494 79.0114 167.331 79.375 167.006C79.7386 166.68 79.9205 166.273 79.9205 165.784C79.9205 165.417 79.8277 165.08 79.642 164.773C79.4564 164.466 79.1913 164.222 78.8466 164.04C78.5057 163.858 78.1004 163.767 77.6307 163.767H75.0341V167.494ZM75.0341 162.398H77.3864C77.7803 162.398 78.1345 162.322 78.4489 162.17C78.767 162.019 79.0189 161.807 79.2045 161.534C79.3939 161.258 79.4886 160.932 79.4886 160.557C79.4886 160.076 79.3201 159.672 78.983 159.347C78.6458 159.021 78.1288 158.858 77.4318 158.858H75.0341V162.398ZM89.1392 165.381V160.273H90.8438V169H89.1733V167.489H89.0824C88.8816 167.955 88.5597 168.343 88.1165 168.653C87.6771 168.96 87.1297 169.114 86.4744 169.114C85.9138 169.114 85.4176 168.991 84.9858 168.744C84.5578 168.494 84.2206 168.125 83.9744 167.636C83.732 167.148 83.6108 166.544 83.6108 165.824V160.273H85.3097V165.619C85.3097 166.214 85.4744 166.687 85.804 167.04C86.1335 167.392 86.5616 167.568 87.0881 167.568C87.4063 167.568 87.7225 167.489 88.0369 167.33C88.3551 167.17 88.6184 166.93 88.8267 166.608C89.0388 166.286 89.143 165.877 89.1392 165.381ZM99.6662 162.403L98.1264 162.676C98.062 162.479 97.9598 162.292 97.8196 162.114C97.6832 161.936 97.4976 161.79 97.2628 161.676C97.0279 161.562 96.7344 161.506 96.3821 161.506C95.901 161.506 95.4995 161.614 95.1776 161.83C94.8556 162.042 94.6946 162.316 94.6946 162.653C94.6946 162.945 94.8026 163.18 95.0185 163.358C95.2344 163.536 95.5829 163.682 96.0639 163.795L97.4503 164.114C98.2533 164.299 98.8518 164.585 99.2457 164.972C99.6397 165.358 99.8366 165.86 99.8366 166.477C99.8366 167 99.6851 167.466 99.3821 167.875C99.0829 168.28 98.6643 168.598 98.1264 168.83C97.5923 169.061 96.973 169.176 96.2685 169.176C95.2912 169.176 94.4938 168.968 93.8764 168.551C93.259 168.131 92.8802 167.534 92.7401 166.761L94.3821 166.511C94.4844 166.939 94.6946 167.263 95.0128 167.483C95.331 167.699 95.7457 167.807 96.2571 167.807C96.8139 167.807 97.259 167.691 97.5923 167.46C97.9257 167.225 98.0923 166.939 98.0923 166.602C98.0923 166.33 97.9901 166.1 97.7855 165.915C97.5848 165.729 97.276 165.589 96.8594 165.494L95.3821 165.17C94.5677 164.985 93.9654 164.689 93.5753 164.284C93.1889 163.879 92.9957 163.366 92.9957 162.744C92.9957 162.229 93.1397 161.778 93.4276 161.392C93.7154 161.006 94.1132 160.705 94.6207 160.489C95.1283 160.269 95.7098 160.159 96.3651 160.159C97.3082 160.159 98.0507 160.364 98.5923 160.773C99.134 161.178 99.492 161.722 99.6662 162.403ZM101.705 169V160.273H103.403V169H101.705ZM102.562 158.926C102.267 158.926 102.013 158.828 101.801 158.631C101.593 158.43 101.489 158.191 101.489 157.915C101.489 157.634 101.593 157.396 101.801 157.199C102.013 156.998 102.267 156.898 102.562 156.898C102.858 156.898 103.11 156.998 103.318 157.199C103.53 157.396 103.636 157.634 103.636 157.915C103.636 158.191 103.53 158.43 103.318 158.631C103.11 158.828 102.858 158.926 102.562 158.926ZM107.388 163.818V169H105.689V160.273H107.32V161.693H107.428C107.628 161.231 107.943 160.86 108.371 160.58C108.803 160.299 109.346 160.159 110.001 160.159C110.596 160.159 111.117 160.284 111.564 160.534C112.011 160.78 112.357 161.148 112.604 161.636C112.85 162.125 112.973 162.729 112.973 163.449V169H111.274V163.653C111.274 163.021 111.109 162.527 110.78 162.17C110.45 161.811 109.998 161.631 109.422 161.631C109.028 161.631 108.678 161.716 108.371 161.886C108.068 162.057 107.827 162.307 107.649 162.636C107.475 162.962 107.388 163.356 107.388 163.818ZM119.013 169.176C118.153 169.176 117.412 168.992 116.791 168.625C116.174 168.254 115.696 167.733 115.359 167.062C115.026 166.388 114.859 165.598 114.859 164.693C114.859 163.799 115.026 163.011 115.359 162.33C115.696 161.648 116.166 161.116 116.768 160.733C117.375 160.35 118.083 160.159 118.893 160.159C119.386 160.159 119.863 160.241 120.325 160.403C120.787 160.566 121.202 160.822 121.57 161.17C121.937 161.519 122.227 161.972 122.439 162.528C122.651 163.081 122.757 163.754 122.757 164.545V165.148H115.82V163.875H121.092C121.092 163.428 121.001 163.032 120.82 162.688C120.638 162.339 120.382 162.064 120.053 161.864C119.727 161.663 119.344 161.562 118.905 161.562C118.428 161.562 118.011 161.68 117.655 161.915C117.303 162.146 117.03 162.449 116.837 162.824C116.647 163.195 116.553 163.598 116.553 164.034V165.028C116.553 165.612 116.655 166.108 116.859 166.517C117.068 166.926 117.357 167.239 117.729 167.455C118.1 167.667 118.534 167.773 119.03 167.773C119.352 167.773 119.645 167.727 119.911 167.636C120.176 167.542 120.405 167.402 120.598 167.216C120.791 167.03 120.939 166.801 121.041 166.528L122.649 166.818C122.52 167.292 122.289 167.706 121.956 168.062C121.626 168.415 121.212 168.689 120.712 168.886C120.215 169.08 119.649 169.176 119.013 169.176ZM131.182 162.403L129.642 162.676C129.578 162.479 129.475 162.292 129.335 162.114C129.199 161.936 129.013 161.79 128.778 161.676C128.544 161.562 128.25 161.506 127.898 161.506C127.417 161.506 127.015 161.614 126.693 161.83C126.371 162.042 126.21 162.316 126.21 162.653C126.21 162.945 126.318 163.18 126.534 163.358C126.75 163.536 127.098 163.682 127.58 163.795L128.966 164.114C129.769 164.299 130.367 164.585 130.761 164.972C131.155 165.358 131.352 165.86 131.352 166.477C131.352 167 131.201 167.466 130.898 167.875C130.598 168.28 130.18 168.598 129.642 168.83C129.108 169.061 128.489 169.176 127.784 169.176C126.807 169.176 126.009 168.968 125.392 168.551C124.775 168.131 124.396 167.534 124.256 166.761L125.898 166.511C126 166.939 126.21 167.263 126.528 167.483C126.847 167.699 127.261 167.807 127.773 167.807C128.33 167.807 128.775 167.691 129.108 167.46C129.441 167.225 129.608 166.939 129.608 166.602C129.608 166.33 129.506 166.1 129.301 165.915C129.1 165.729 128.792 165.589 128.375 165.494L126.898 165.17C126.083 164.985 125.481 164.689 125.091 164.284C124.705 163.879 124.511 163.366 124.511 162.744C124.511 162.229 124.655 161.778 124.943 161.392C125.231 161.006 125.629 160.705 126.136 160.489C126.644 160.269 127.225 160.159 127.881 160.159C128.824 160.159 129.566 160.364 130.108 160.773C130.65 161.178 131.008 161.722 131.182 162.403ZM139.76 162.403L138.22 162.676C138.156 162.479 138.054 162.292 137.913 162.114C137.777 161.936 137.591 161.79 137.357 161.676C137.122 161.562 136.828 161.506 136.476 161.506C135.995 161.506 135.593 161.614 135.271 161.83C134.949 162.042 134.788 162.316 134.788 162.653C134.788 162.945 134.896 163.18 135.112 163.358C135.328 163.536 135.677 163.682 136.158 163.795L137.544 164.114C138.347 164.299 138.946 164.585 139.339 164.972C139.733 165.358 139.93 165.86 139.93 166.477C139.93 167 139.779 167.466 139.476 167.875C139.177 168.28 138.758 168.598 138.22 168.83C137.686 169.061 137.067 169.176 136.362 169.176C135.385 169.176 134.588 168.968 133.97 168.551C133.353 168.131 132.974 167.534 132.834 166.761L134.476 166.511C134.578 166.939 134.788 167.263 135.107 167.483C135.425 167.699 135.839 167.807 136.351 167.807C136.908 167.807 137.353 167.691 137.686 167.46C138.019 167.225 138.186 166.939 138.186 166.602C138.186 166.33 138.084 166.1 137.879 165.915C137.679 165.729 137.37 165.589 136.953 165.494L135.476 165.17C134.661 164.985 134.059 164.689 133.669 164.284C133.283 163.879 133.089 163.366 133.089 162.744C133.089 162.229 133.233 161.778 133.521 161.392C133.809 161.006 134.207 160.705 134.714 160.489C135.222 160.269 135.804 160.159 136.459 160.159C137.402 160.159 138.144 160.364 138.686 160.773C139.228 161.178 139.586 161.722 139.76 162.403ZM149.709 169.176C148.864 169.176 148.137 168.985 147.527 168.602C146.921 168.216 146.455 167.684 146.129 167.006C145.804 166.328 145.641 165.551 145.641 164.676C145.641 163.79 145.807 163.008 146.141 162.33C146.474 161.648 146.944 161.116 147.55 160.733C148.156 160.35 148.87 160.159 149.692 160.159C150.355 160.159 150.946 160.282 151.464 160.528C151.983 160.771 152.402 161.112 152.72 161.551C153.042 161.991 153.233 162.504 153.294 163.091H151.641C151.55 162.682 151.341 162.33 151.016 162.034C150.694 161.739 150.262 161.591 149.72 161.591C149.247 161.591 148.832 161.716 148.476 161.966C148.124 162.212 147.849 162.564 147.652 163.023C147.455 163.477 147.357 164.015 147.357 164.636C147.357 165.273 147.453 165.822 147.646 166.284C147.839 166.746 148.112 167.104 148.464 167.358C148.821 167.612 149.239 167.739 149.72 167.739C150.042 167.739 150.334 167.68 150.595 167.562C150.86 167.441 151.082 167.269 151.26 167.045C151.442 166.822 151.569 166.553 151.641 166.239H153.294C153.233 166.803 153.05 167.307 152.743 167.75C152.436 168.193 152.025 168.542 151.51 168.795C150.999 169.049 150.398 169.176 149.709 169.176ZM157.651 169.193C157.098 169.193 156.598 169.091 156.151 168.886C155.704 168.678 155.349 168.377 155.088 167.983C154.83 167.589 154.702 167.106 154.702 166.534C154.702 166.042 154.796 165.636 154.986 165.318C155.175 165 155.431 164.748 155.753 164.562C156.075 164.377 156.435 164.237 156.832 164.142C157.23 164.047 157.635 163.975 158.048 163.926C158.571 163.866 158.995 163.816 159.321 163.778C159.647 163.737 159.884 163.67 160.031 163.58C160.179 163.489 160.253 163.341 160.253 163.136V163.097C160.253 162.6 160.113 162.216 159.832 161.943C159.556 161.67 159.143 161.534 158.594 161.534C158.022 161.534 157.571 161.661 157.241 161.915C156.916 162.165 156.69 162.443 156.565 162.75L154.969 162.386C155.158 161.856 155.435 161.428 155.798 161.102C156.166 160.773 156.588 160.534 157.065 160.386C157.543 160.235 158.045 160.159 158.571 160.159C158.92 160.159 159.289 160.201 159.679 160.284C160.073 160.364 160.44 160.511 160.781 160.727C161.126 160.943 161.408 161.252 161.628 161.653C161.848 162.051 161.957 162.568 161.957 163.205V169H160.298V167.807H160.23C160.12 168.027 159.955 168.242 159.736 168.455C159.516 168.667 159.234 168.843 158.889 168.983C158.545 169.123 158.132 169.193 157.651 169.193ZM158.02 167.83C158.49 167.83 158.891 167.737 159.224 167.551C159.562 167.366 159.817 167.123 159.991 166.824C160.17 166.521 160.259 166.197 160.259 165.852V164.727C160.198 164.788 160.08 164.845 159.906 164.898C159.736 164.947 159.541 164.991 159.321 165.028C159.101 165.062 158.887 165.095 158.679 165.125C158.471 165.152 158.296 165.174 158.156 165.193C157.827 165.235 157.526 165.305 157.253 165.403C156.984 165.502 156.768 165.644 156.605 165.83C156.446 166.011 156.366 166.254 156.366 166.557C156.366 166.977 156.522 167.295 156.832 167.511C157.143 167.723 157.539 167.83 158.02 167.83ZM165.919 157.364V169H164.22V157.364H165.919ZM169.903 157.364V169H168.205V157.364H169.903ZM176.423 169V160.273H178.065V161.659H178.156C178.315 161.189 178.596 160.82 178.997 160.551C179.402 160.278 179.861 160.142 180.372 160.142C180.478 160.142 180.603 160.146 180.747 160.153C180.895 160.161 181.01 160.17 181.094 160.182V161.807C181.026 161.788 180.904 161.767 180.73 161.744C180.556 161.718 180.382 161.705 180.207 161.705C179.806 161.705 179.448 161.79 179.134 161.96C178.823 162.127 178.577 162.36 178.395 162.659C178.213 162.955 178.122 163.292 178.122 163.67V169H176.423ZM186.013 169.176C185.153 169.176 184.412 168.992 183.791 168.625C183.174 168.254 182.696 167.733 182.359 167.062C182.026 166.388 181.859 165.598 181.859 164.693C181.859 163.799 182.026 163.011 182.359 162.33C182.696 161.648 183.166 161.116 183.768 160.733C184.375 160.35 185.083 160.159 185.893 160.159C186.386 160.159 186.863 160.241 187.325 160.403C187.787 160.566 188.202 160.822 188.57 161.17C188.937 161.519 189.227 161.972 189.439 162.528C189.651 163.081 189.757 163.754 189.757 164.545V165.148H182.82V163.875H188.092C188.092 163.428 188.001 163.032 187.82 162.688C187.638 162.339 187.382 162.064 187.053 161.864C186.727 161.663 186.344 161.562 185.905 161.562C185.428 161.562 185.011 161.68 184.655 161.915C184.303 162.146 184.03 162.449 183.837 162.824C183.647 163.195 183.553 163.598 183.553 164.034V165.028C183.553 165.612 183.655 166.108 183.859 166.517C184.068 166.926 184.357 167.239 184.729 167.455C185.1 167.667 185.534 167.773 186.03 167.773C186.352 167.773 186.645 167.727 186.911 167.636C187.176 167.542 187.405 167.402 187.598 167.216C187.791 167.03 187.939 166.801 188.041 166.528L189.649 166.818C189.52 167.292 189.289 167.706 188.956 168.062C188.626 168.415 188.212 168.689 187.712 168.886C187.215 169.08 186.649 169.176 186.013 169.176ZM195.318 169.176C194.473 169.176 193.746 168.985 193.136 168.602C192.53 168.216 192.064 167.684 191.739 167.006C191.413 166.328 191.25 165.551 191.25 164.676C191.25 163.79 191.417 163.008 191.75 162.33C192.083 161.648 192.553 161.116 193.159 160.733C193.765 160.35 194.479 160.159 195.301 160.159C195.964 160.159 196.555 160.282 197.074 160.528C197.593 160.771 198.011 161.112 198.33 161.551C198.652 161.991 198.843 162.504 198.903 163.091H197.25C197.159 162.682 196.951 162.33 196.625 162.034C196.303 161.739 195.871 161.591 195.33 161.591C194.856 161.591 194.441 161.716 194.085 161.966C193.733 162.212 193.458 162.564 193.261 163.023C193.064 163.477 192.966 164.015 192.966 164.636C192.966 165.273 193.063 165.822 193.256 166.284C193.449 166.746 193.722 167.104 194.074 167.358C194.43 167.612 194.848 167.739 195.33 167.739C195.652 167.739 195.943 167.68 196.205 167.562C196.47 167.441 196.691 167.269 196.869 167.045C197.051 166.822 197.178 166.553 197.25 166.239H198.903C198.843 166.803 198.659 167.307 198.352 167.75C198.045 168.193 197.634 168.542 197.119 168.795C196.608 169.049 196.008 169.176 195.318 169.176ZM203.26 169.193C202.707 169.193 202.207 169.091 201.76 168.886C201.313 168.678 200.959 168.377 200.697 167.983C200.44 167.589 200.311 167.106 200.311 166.534C200.311 166.042 200.406 165.636 200.595 165.318C200.785 165 201.04 164.748 201.362 164.562C201.684 164.377 202.044 164.237 202.442 164.142C202.839 164.047 203.245 163.975 203.658 163.926C204.18 163.866 204.605 163.816 204.93 163.778C205.256 163.737 205.493 163.67 205.641 163.58C205.788 163.489 205.862 163.341 205.862 163.136V163.097C205.862 162.6 205.722 162.216 205.442 161.943C205.165 161.67 204.752 161.534 204.203 161.534C203.631 161.534 203.18 161.661 202.851 161.915C202.525 162.165 202.3 162.443 202.175 162.75L200.578 162.386C200.768 161.856 201.044 161.428 201.408 161.102C201.775 160.773 202.197 160.534 202.675 160.386C203.152 160.235 203.654 160.159 204.18 160.159C204.529 160.159 204.898 160.201 205.288 160.284C205.682 160.364 206.05 160.511 206.391 160.727C206.735 160.943 207.018 161.252 207.237 161.653C207.457 162.051 207.567 162.568 207.567 163.205V169H205.908V167.807H205.839C205.73 168.027 205.565 168.242 205.345 168.455C205.125 168.667 204.843 168.843 204.499 168.983C204.154 169.123 203.741 169.193 203.26 169.193ZM203.629 167.83C204.099 167.83 204.5 167.737 204.834 167.551C205.171 167.366 205.427 167.123 205.601 166.824C205.779 166.521 205.868 166.197 205.868 165.852V164.727C205.807 164.788 205.69 164.845 205.516 164.898C205.345 164.947 205.15 164.991 204.93 165.028C204.711 165.062 204.497 165.095 204.288 165.125C204.08 165.152 203.906 165.174 203.766 165.193C203.436 165.235 203.135 165.305 202.862 165.403C202.593 165.502 202.377 165.644 202.214 165.83C202.055 166.011 201.976 166.254 201.976 166.557C201.976 166.977 202.131 167.295 202.442 167.511C202.752 167.723 203.148 167.83 203.629 167.83ZM209.83 172.273V160.273H211.489V161.688H211.631C211.729 161.506 211.871 161.295 212.057 161.057C212.242 160.818 212.5 160.61 212.83 160.432C213.159 160.25 213.595 160.159 214.136 160.159C214.841 160.159 215.47 160.337 216.023 160.693C216.576 161.049 217.009 161.562 217.324 162.233C217.642 162.903 217.801 163.71 217.801 164.653C217.801 165.597 217.644 166.405 217.33 167.08C217.015 167.75 216.583 168.267 216.034 168.631C215.485 168.991 214.858 169.17 214.153 169.17C213.623 169.17 213.189 169.081 212.852 168.903C212.519 168.725 212.258 168.517 212.068 168.278C211.879 168.04 211.733 167.828 211.631 167.642H211.528V172.273H209.83ZM211.494 164.636C211.494 165.25 211.583 165.788 211.761 166.25C211.939 166.712 212.197 167.074 212.534 167.335C212.871 167.593 213.284 167.722 213.773 167.722C214.28 167.722 214.705 167.587 215.045 167.318C215.386 167.045 215.644 166.676 215.818 166.21C215.996 165.744 216.085 165.22 216.085 164.636C216.085 164.061 215.998 163.544 215.824 163.085C215.653 162.627 215.396 162.265 215.051 162C214.71 161.735 214.284 161.602 213.773 161.602C213.28 161.602 212.864 161.729 212.523 161.983C212.186 162.237 211.93 162.591 211.756 163.045C211.581 163.5 211.494 164.03 211.494 164.636Z" fill="#1A1929"/>
</g>
<rect x="72.4997" y="205.5" width="202.001" height="23.0007" rx="3.49769" fill="#EEF0FA"/>
<rect x="72.4997" y="205.5" width="202.001" height="23.0007" rx="3.49769" stroke="#DFE3F6" stroke-width="0.999341"/>
<rect x="72.4997" y="245.5" width="237.001" height="23.0007" rx="3.49769" fill="#EEF0FA"/>
<rect x="72.4997" y="245.5" width="237.001" height="23.0007" rx="3.49769" stroke="#DFE3F6" stroke-width="0.999341"/>
</g>
<rect x="24.5" y="137.5" width="351" height="147" rx="11.5" stroke="#EEF0FA"/>
</g>
<g filter="url(#filter2_dddd_126_2019)">
<g clip-path="url(#clip4_126_2019)">
<rect x="24" y="298" width="352" height="52" rx="12" fill="#F9FBFF"/>
<g clip-path="url(#clip5_126_2019)">
<path d="M24 310C24 303.373 29.3726 298 36 298H364C370.627 298 376 303.373 376 310V350H24V310Z" fill="#F9FBFF"/>
<path d="M41 320.5L46 325.5L51 320.5" stroke="#7084B4" stroke-width="1.6" stroke-linecap="round" stroke-linejoin="round"/>
<path d="M72.3807 318.364H74.375L77.4148 323.653H77.5398L80.5795 318.364H82.5739L78.3523 325.432V330H76.6023V325.432L72.3807 318.364ZM86.3338 330.176C85.5156 330.176 84.8016 329.989 84.1918 329.614C83.5819 329.239 83.1084 328.714 82.7713 328.04C82.4342 327.366 82.2656 326.578 82.2656 325.676C82.2656 324.771 82.4342 323.979 82.7713 323.301C83.1084 322.623 83.5819 322.097 84.1918 321.722C84.8016 321.347 85.5156 321.159 86.3338 321.159C87.152 321.159 87.866 321.347 88.4759 321.722C89.0857 322.097 89.5592 322.623 89.8963 323.301C90.2334 323.979 90.402 324.771 90.402 325.676C90.402 326.578 90.2334 327.366 89.8963 328.04C89.5592 328.714 89.0857 329.239 88.4759 329.614C87.866 329.989 87.152 330.176 86.3338 330.176ZM86.3395 328.75C86.8698 328.75 87.3092 328.61 87.6577 328.33C88.0062 328.049 88.2637 327.676 88.4304 327.21C88.6009 326.744 88.6861 326.231 88.6861 325.67C88.6861 325.114 88.6009 324.602 88.4304 324.136C88.2637 323.667 88.0062 323.29 87.6577 323.006C87.3092 322.722 86.8698 322.58 86.3395 322.58C85.8054 322.58 85.3622 322.722 85.0099 323.006C84.6615 323.29 84.402 323.667 84.2315 324.136C84.0649 324.602 83.9815 325.114 83.9815 325.67C83.9815 326.231 84.0649 326.744 84.2315 327.21C84.402 327.676 84.6615 328.049 85.0099 328.33C85.3622 328.61 85.8054 328.75 86.3395 328.75ZM97.8267 326.381V321.273H99.5312V330H97.8608V328.489H97.7699C97.5691 328.955 97.2472 329.343 96.804 329.653C96.3646 329.96 95.8172 330.114 95.1619 330.114C94.6013 330.114 94.1051 329.991 93.6733 329.744C93.2453 329.494 92.9081 329.125 92.6619 328.636C92.4195 328.148 92.2983 327.544 92.2983 326.824V321.273H93.9972V326.619C93.9972 327.214 94.1619 327.687 94.4915 328.04C94.821 328.392 95.2491 328.568 95.7756 328.568C96.0938 328.568 96.41 328.489 96.7244 328.33C97.0426 328.17 97.3059 327.93 97.5142 327.608C97.7263 327.286 97.8305 326.877 97.8267 326.381ZM101.814 330V321.273H103.456V322.659H103.547C103.706 322.189 103.986 321.82 104.388 321.551C104.793 321.278 105.251 321.142 105.763 321.142C105.869 321.142 105.994 321.146 106.138 321.153C106.286 321.161 106.401 321.17 106.484 321.182V322.807C106.416 322.788 106.295 322.767 106.121 322.744C105.946 322.718 105.772 322.705 105.598 322.705C105.196 322.705 104.839 322.79 104.524 322.96C104.214 323.127 103.967 323.36 103.786 323.659C103.604 323.955 103.513 324.292 103.513 324.67V330H101.814ZM115.865 330.176C115.047 330.176 114.333 329.989 113.723 329.614C113.113 329.239 112.64 328.714 112.303 328.04C111.965 327.366 111.797 326.578 111.797 325.676C111.797 324.771 111.965 323.979 112.303 323.301C112.64 322.623 113.113 322.097 113.723 321.722C114.333 321.347 115.047 321.159 115.865 321.159C116.683 321.159 117.397 321.347 118.007 321.722C118.617 322.097 119.09 322.623 119.428 323.301C119.765 323.979 119.933 324.771 119.933 325.676C119.933 326.578 119.765 327.366 119.428 328.04C119.09 328.714 118.617 329.239 118.007 329.614C117.397 329.989 116.683 330.176 115.865 330.176ZM115.871 328.75C116.401 328.75 116.84 328.61 117.189 328.33C117.537 328.049 117.795 327.676 117.962 327.21C118.132 326.744 118.217 326.231 118.217 325.67C118.217 325.114 118.132 324.602 117.962 324.136C117.795 323.667 117.537 323.29 117.189 323.006C116.84 322.722 116.401 322.58 115.871 322.58C115.337 322.58 114.893 322.722 114.541 323.006C114.193 323.29 113.933 323.667 113.763 324.136C113.596 324.602 113.513 325.114 113.513 325.67C113.513 326.231 113.596 326.744 113.763 327.21C113.933 327.676 114.193 328.049 114.541 328.33C114.893 328.61 115.337 328.75 115.871 328.75ZM123.528 324.818V330H121.83V321.273H123.46V322.693H123.568C123.769 322.231 124.083 321.86 124.511 321.58C124.943 321.299 125.487 321.159 126.142 321.159C126.737 321.159 127.258 321.284 127.705 321.534C128.152 321.78 128.498 322.148 128.744 322.636C128.991 323.125 129.114 323.729 129.114 324.449V330H127.415V324.653C127.415 324.021 127.25 323.527 126.92 323.17C126.591 322.811 126.138 322.631 125.562 322.631C125.169 322.631 124.818 322.716 124.511 322.886C124.208 323.057 123.968 323.307 123.79 323.636C123.616 323.962 123.528 324.356 123.528 324.818ZM131.528 330V318.364H133.227V322.688H133.33C133.428 322.506 133.57 322.295 133.756 322.057C133.941 321.818 134.199 321.61 134.528 321.432C134.858 321.25 135.294 321.159 135.835 321.159C136.54 321.159 137.169 321.337 137.722 321.693C138.275 322.049 138.708 322.562 139.023 323.233C139.341 323.903 139.5 324.71 139.5 325.653C139.5 326.597 139.343 327.405 139.028 328.08C138.714 328.75 138.282 329.267 137.733 329.631C137.184 329.991 136.557 330.17 135.852 330.17C135.322 330.17 134.888 330.081 134.551 329.903C134.218 329.725 133.956 329.517 133.767 329.278C133.578 329.04 133.432 328.828 133.33 328.642H133.188V330H131.528ZM133.193 325.636C133.193 326.25 133.282 326.788 133.46 327.25C133.638 327.712 133.896 328.074 134.233 328.335C134.57 328.593 134.983 328.722 135.472 328.722C135.979 328.722 136.403 328.587 136.744 328.318C137.085 328.045 137.343 327.676 137.517 327.21C137.695 326.744 137.784 326.22 137.784 325.636C137.784 325.061 137.697 324.544 137.523 324.085C137.352 323.627 137.095 323.265 136.75 323C136.409 322.735 135.983 322.602 135.472 322.602C134.979 322.602 134.562 322.729 134.222 322.983C133.884 323.237 133.629 323.591 133.455 324.045C133.28 324.5 133.193 325.03 133.193 325.636ZM145.084 330.176C144.266 330.176 143.552 329.989 142.942 329.614C142.332 329.239 141.858 328.714 141.521 328.04C141.184 327.366 141.016 326.578 141.016 325.676C141.016 324.771 141.184 323.979 141.521 323.301C141.858 322.623 142.332 322.097 142.942 321.722C143.552 321.347 144.266 321.159 145.084 321.159C145.902 321.159 146.616 321.347 147.226 321.722C147.836 322.097 148.309 322.623 148.646 323.301C148.983 323.979 149.152 324.771 149.152 325.676C149.152 326.578 148.983 327.366 148.646 328.04C148.309 328.714 147.836 329.239 147.226 329.614C146.616 329.989 145.902 330.176 145.084 330.176ZM145.089 328.75C145.62 328.75 146.059 328.61 146.408 328.33C146.756 328.049 147.014 327.676 147.18 327.21C147.351 326.744 147.436 326.231 147.436 325.67C147.436 325.114 147.351 324.602 147.18 324.136C147.014 323.667 146.756 323.29 146.408 323.006C146.059 322.722 145.62 322.58 145.089 322.58C144.555 322.58 144.112 322.722 143.76 323.006C143.411 323.29 143.152 323.667 142.982 324.136C142.815 324.602 142.732 325.114 142.732 325.67C142.732 326.231 142.815 326.744 142.982 327.21C143.152 327.676 143.411 328.049 143.76 328.33C144.112 328.61 144.555 328.75 145.089 328.75ZM153.588 330.193C153.035 330.193 152.535 330.091 152.088 329.886C151.641 329.678 151.287 329.377 151.026 328.983C150.768 328.589 150.639 328.106 150.639 327.534C150.639 327.042 150.734 326.636 150.923 326.318C151.113 326 151.368 325.748 151.69 325.562C152.012 325.377 152.372 325.237 152.77 325.142C153.168 325.047 153.573 324.975 153.986 324.926C154.509 324.866 154.933 324.816 155.259 324.778C155.584 324.737 155.821 324.67 155.969 324.58C156.116 324.489 156.19 324.341 156.19 324.136V324.097C156.19 323.6 156.05 323.216 155.77 322.943C155.493 322.67 155.08 322.534 154.531 322.534C153.959 322.534 153.509 322.661 153.179 322.915C152.853 323.165 152.628 323.443 152.503 323.75L150.906 323.386C151.096 322.856 151.372 322.428 151.736 322.102C152.103 321.773 152.526 321.534 153.003 321.386C153.48 321.235 153.982 321.159 154.509 321.159C154.857 321.159 155.226 321.201 155.616 321.284C156.01 321.364 156.378 321.511 156.719 321.727C157.063 321.943 157.346 322.252 157.565 322.653C157.785 323.051 157.895 323.568 157.895 324.205V330H156.236V328.807H156.168C156.058 329.027 155.893 329.242 155.673 329.455C155.454 329.667 155.171 329.843 154.827 329.983C154.482 330.123 154.069 330.193 153.588 330.193ZM153.957 328.83C154.427 328.83 154.829 328.737 155.162 328.551C155.499 328.366 155.755 328.123 155.929 327.824C156.107 327.521 156.196 327.197 156.196 326.852V325.727C156.135 325.788 156.018 325.845 155.844 325.898C155.673 325.947 155.478 325.991 155.259 326.028C155.039 326.062 154.825 326.095 154.616 326.125C154.408 326.152 154.234 326.174 154.094 326.193C153.764 326.235 153.463 326.305 153.19 326.403C152.921 326.502 152.705 326.644 152.543 326.83C152.384 327.011 152.304 327.254 152.304 327.557C152.304 327.977 152.459 328.295 152.77 328.511C153.08 328.723 153.476 328.83 153.957 328.83ZM160.158 330V321.273H161.8V322.659H161.891C162.05 322.189 162.33 321.82 162.732 321.551C163.137 321.278 163.595 321.142 164.107 321.142C164.213 321.142 164.338 321.146 164.482 321.153C164.629 321.161 164.745 321.17 164.828 321.182V322.807C164.76 322.788 164.639 322.767 164.464 322.744C164.29 322.718 164.116 322.705 163.942 322.705C163.54 322.705 163.182 322.79 162.868 322.96C162.557 323.127 162.311 323.36 162.129 323.659C161.947 323.955 161.857 324.292 161.857 324.67V330H160.158ZM169.253 330.17C168.548 330.17 167.92 329.991 167.366 329.631C166.817 329.267 166.385 328.75 166.071 328.08C165.76 327.405 165.605 326.597 165.605 325.653C165.605 324.71 165.762 323.903 166.077 323.233C166.395 322.562 166.83 322.049 167.384 321.693C167.937 321.337 168.563 321.159 169.264 321.159C169.806 321.159 170.241 321.25 170.571 321.432C170.904 321.61 171.162 321.818 171.344 322.057C171.529 322.295 171.673 322.506 171.776 322.688H171.878V318.364H173.577V330H171.918V328.642H171.776C171.673 328.828 171.526 329.04 171.332 329.278C171.143 329.517 170.882 329.725 170.548 329.903C170.215 330.081 169.783 330.17 169.253 330.17ZM169.628 328.722C170.116 328.722 170.529 328.593 170.866 328.335C171.207 328.074 171.465 327.712 171.639 327.25C171.817 326.788 171.906 326.25 171.906 325.636C171.906 325.03 171.819 324.5 171.645 324.045C171.471 323.591 171.215 323.237 170.878 322.983C170.541 322.729 170.124 322.602 169.628 322.602C169.116 322.602 168.69 322.735 168.349 323C168.009 323.265 167.751 323.627 167.577 324.085C167.406 324.544 167.321 325.061 167.321 325.636C167.321 326.22 167.408 326.744 167.582 327.21C167.757 327.676 168.014 328.045 168.355 328.318C168.7 328.587 169.124 328.722 169.628 328.722ZM176.001 330V321.273H177.7V330H176.001ZM176.859 319.926C176.564 319.926 176.31 319.828 176.098 319.631C175.89 319.43 175.786 319.191 175.786 318.915C175.786 318.634 175.89 318.396 176.098 318.199C176.31 317.998 176.564 317.898 176.859 317.898C177.155 317.898 177.407 317.998 177.615 318.199C177.827 318.396 177.933 318.634 177.933 318.915C177.933 319.191 177.827 319.43 177.615 319.631C177.407 319.828 177.155 319.926 176.859 319.926ZM181.685 324.818V330H179.986V321.273H181.616V322.693H181.724C181.925 322.231 182.24 321.86 182.668 321.58C183.099 321.299 183.643 321.159 184.298 321.159C184.893 321.159 185.414 321.284 185.861 321.534C186.308 321.78 186.654 322.148 186.901 322.636C187.147 323.125 187.27 323.729 187.27 324.449V330H185.571V324.653C185.571 324.021 185.406 323.527 185.077 323.17C184.747 322.811 184.295 322.631 183.719 322.631C183.325 322.631 182.974 322.716 182.668 322.886C182.365 323.057 182.124 323.307 181.946 323.636C181.772 323.962 181.685 324.356 181.685 324.818ZM193.207 333.455C192.514 333.455 191.918 333.364 191.418 333.182C190.921 333 190.516 332.759 190.202 332.46C189.887 332.161 189.652 331.833 189.497 331.477L190.957 330.875C191.06 331.042 191.196 331.218 191.366 331.403C191.541 331.593 191.776 331.754 192.071 331.886C192.37 332.019 192.755 332.085 193.224 332.085C193.868 332.085 194.401 331.928 194.821 331.614C195.241 331.303 195.452 330.807 195.452 330.125V328.409H195.344C195.241 328.595 195.094 328.801 194.901 329.028C194.711 329.256 194.45 329.453 194.116 329.619C193.783 329.786 193.349 329.869 192.815 329.869C192.126 329.869 191.505 329.708 190.952 329.386C190.402 329.061 189.967 328.581 189.645 327.949C189.327 327.312 189.168 326.53 189.168 325.602C189.168 324.674 189.325 323.879 189.639 323.216C189.957 322.553 190.393 322.045 190.946 321.693C191.499 321.337 192.126 321.159 192.827 321.159C193.368 321.159 193.806 321.25 194.139 321.432C194.473 321.61 194.732 321.818 194.918 322.057C195.107 322.295 195.253 322.506 195.355 322.688H195.48V321.273H197.145V330.193C197.145 330.943 196.971 331.559 196.622 332.04C196.274 332.521 195.802 332.877 195.207 333.108C194.616 333.339 193.95 333.455 193.207 333.455ZM193.19 328.46C193.679 328.46 194.092 328.347 194.429 328.119C194.77 327.888 195.027 327.559 195.202 327.131C195.38 326.699 195.469 326.182 195.469 325.58C195.469 324.992 195.382 324.475 195.207 324.028C195.033 323.581 194.777 323.233 194.44 322.983C194.103 322.729 193.687 322.602 193.19 322.602C192.679 322.602 192.253 322.735 191.912 323C191.571 323.261 191.313 323.617 191.139 324.068C190.969 324.519 190.884 325.023 190.884 325.58C190.884 326.152 190.971 326.653 191.145 327.085C191.319 327.517 191.577 327.854 191.918 328.097C192.262 328.339 192.687 328.46 193.19 328.46Z" fill="#1A1929"/>
</g>
</g>
<rect x="24.5" y="298.5" width="351" height="51" rx="11.5" stroke="#EEF0FA"/>
</g>
<rect width="400" height="72" transform="translate(0 828)" fill="white"/>
<path d="M60.3333 860H57L54.5 867.5L49.5 852.5L47 860H43.6666" stroke="#7084B4" stroke-width="1.6" stroke-linecap="round" stroke-linejoin="round"/>
<path d="M82.2614 866H80.3977L84.5852 854.364H86.6136L90.8011 866H88.9375L85.6477 856.477H85.5568L82.2614 866ZM82.5739 861.443H88.6193V862.92H82.5739V861.443ZM94.044 860.818V866H92.3452V857.273H93.9759V858.693H94.0838C94.2846 858.231 94.599 857.86 95.027 857.58C95.4588 857.299 96.0024 857.159 96.6577 857.159C97.2524 857.159 97.7732 857.284 98.2202 857.534C98.6671 857.78 99.0137 858.148 99.2599 858.636C99.5062 859.125 99.6293 859.729 99.6293 860.449V866H97.9304V860.653C97.9304 860.021 97.7656 859.527 97.4361 859.17C97.1065 858.811 96.6539 858.631 96.0781 858.631C95.6842 858.631 95.3338 858.716 95.027 858.886C94.724 859.057 94.4834 859.307 94.3054 859.636C94.1312 859.962 94.044 860.356 94.044 860.818ZM104.447 866.193C103.894 866.193 103.394 866.091 102.947 865.886C102.5 865.678 102.146 865.377 101.885 864.983C101.627 864.589 101.499 864.106 101.499 863.534C101.499 863.042 101.593 862.636 101.783 862.318C101.972 862 102.228 861.748 102.55 861.562C102.872 861.377 103.232 861.237 103.629 861.142C104.027 861.047 104.432 860.975 104.845 860.926C105.368 860.866 105.792 860.816 106.118 860.778C106.444 860.737 106.68 860.67 106.828 860.58C106.976 860.489 107.05 860.341 107.05 860.136V860.097C107.05 859.6 106.91 859.216 106.629 858.943C106.353 858.67 105.94 858.534 105.391 858.534C104.819 858.534 104.368 858.661 104.038 858.915C103.713 859.165 103.487 859.443 103.362 859.75L101.766 859.386C101.955 858.856 102.232 858.428 102.595 858.102C102.963 857.773 103.385 857.534 103.862 857.386C104.339 857.235 104.841 857.159 105.368 857.159C105.716 857.159 106.086 857.201 106.476 857.284C106.87 857.364 107.237 857.511 107.578 857.727C107.923 857.943 108.205 858.252 108.425 858.653C108.644 859.051 108.754 859.568 108.754 860.205V866H107.095V864.807H107.027C106.917 865.027 106.752 865.242 106.533 865.455C106.313 865.667 106.031 865.843 105.686 865.983C105.341 866.123 104.929 866.193 104.447 866.193ZM104.817 864.83C105.286 864.83 105.688 864.737 106.021 864.551C106.358 864.366 106.614 864.123 106.788 863.824C106.966 863.521 107.055 863.197 107.055 862.852V861.727C106.995 861.788 106.877 861.845 106.703 861.898C106.533 861.947 106.338 861.991 106.118 862.028C105.898 862.062 105.684 862.095 105.476 862.125C105.268 862.152 105.093 862.174 104.953 862.193C104.624 862.235 104.322 862.305 104.05 862.403C103.781 862.502 103.565 862.644 103.402 862.83C103.243 863.011 103.163 863.254 103.163 863.557C103.163 863.977 103.319 864.295 103.629 864.511C103.94 864.723 104.336 864.83 104.817 864.83ZM112.716 854.364V866H111.017V854.364H112.716ZM116.075 869.273C115.821 869.273 115.59 869.252 115.382 869.21C115.174 869.172 115.018 869.131 114.916 869.085L115.325 867.693C115.636 867.777 115.912 867.813 116.155 867.801C116.397 867.79 116.611 867.699 116.797 867.528C116.986 867.358 117.153 867.08 117.297 866.693L117.507 866.114L114.314 857.273H116.132L118.342 864.045H118.433L120.643 857.273H122.467L118.871 867.165C118.704 867.619 118.492 868.004 118.234 868.318C117.977 868.636 117.67 868.875 117.314 869.034C116.958 869.193 116.545 869.273 116.075 869.273ZM128.138 857.273V858.636H123.371V857.273H128.138ZM124.649 855.182H126.348V863.438C126.348 863.767 126.397 864.015 126.496 864.182C126.594 864.345 126.721 864.456 126.876 864.517C127.036 864.574 127.208 864.602 127.393 864.602C127.53 864.602 127.649 864.593 127.751 864.574C127.854 864.555 127.933 864.54 127.99 864.528L128.297 865.932C128.198 865.97 128.058 866.008 127.876 866.045C127.695 866.087 127.467 866.11 127.195 866.114C126.748 866.121 126.331 866.042 125.945 865.875C125.558 865.708 125.246 865.451 125.007 865.102C124.768 864.754 124.649 864.316 124.649 863.79V855.182ZM130.017 866V857.273H131.716V866H130.017ZM130.875 855.926C130.58 855.926 130.326 855.828 130.114 855.631C129.905 855.43 129.801 855.191 129.801 854.915C129.801 854.634 129.905 854.396 130.114 854.199C130.326 853.998 130.58 853.898 130.875 853.898C131.17 853.898 131.422 853.998 131.631 854.199C131.843 854.396 131.949 854.634 131.949 854.915C131.949 855.191 131.843 855.43 131.631 855.631C131.422 855.828 131.17 855.926 130.875 855.926ZM137.678 866.176C136.833 866.176 136.106 865.985 135.496 865.602C134.89 865.216 134.424 864.684 134.098 864.006C133.772 863.328 133.609 862.551 133.609 861.676C133.609 860.79 133.776 860.008 134.109 859.33C134.443 858.648 134.912 858.116 135.518 857.733C136.125 857.35 136.839 857.159 137.661 857.159C138.323 857.159 138.914 857.282 139.433 857.528C139.952 857.771 140.371 858.112 140.689 858.551C141.011 858.991 141.202 859.504 141.263 860.091H139.609C139.518 859.682 139.31 859.33 138.984 859.034C138.662 858.739 138.231 858.591 137.689 858.591C137.215 858.591 136.801 858.716 136.445 858.966C136.092 859.212 135.818 859.564 135.621 860.023C135.424 860.477 135.325 861.015 135.325 861.636C135.325 862.273 135.422 862.822 135.615 863.284C135.808 863.746 136.081 864.104 136.433 864.358C136.789 864.612 137.208 864.739 137.689 864.739C138.011 864.739 138.303 864.68 138.564 864.562C138.829 864.441 139.051 864.269 139.229 864.045C139.411 863.822 139.537 863.553 139.609 863.239H141.263C141.202 863.803 141.018 864.307 140.712 864.75C140.405 865.193 139.994 865.542 139.479 865.795C138.967 866.049 138.367 866.176 137.678 866.176ZM149.619 859.403L148.08 859.676C148.015 859.479 147.913 859.292 147.773 859.114C147.636 858.936 147.451 858.79 147.216 858.676C146.981 858.562 146.688 858.506 146.335 858.506C145.854 858.506 145.453 858.614 145.131 858.83C144.809 859.042 144.648 859.316 144.648 859.653C144.648 859.945 144.756 860.18 144.972 860.358C145.188 860.536 145.536 860.682 146.017 860.795L147.403 861.114C148.206 861.299 148.805 861.585 149.199 861.972C149.593 862.358 149.79 862.86 149.79 863.477C149.79 864 149.638 864.466 149.335 864.875C149.036 865.28 148.617 865.598 148.08 865.83C147.545 866.061 146.926 866.176 146.222 866.176C145.244 866.176 144.447 865.968 143.83 865.551C143.212 865.131 142.833 864.534 142.693 863.761L144.335 863.511C144.438 863.939 144.648 864.263 144.966 864.483C145.284 864.699 145.699 864.807 146.21 864.807C146.767 864.807 147.212 864.691 147.545 864.46C147.879 864.225 148.045 863.939 148.045 863.602C148.045 863.33 147.943 863.1 147.739 862.915C147.538 862.729 147.229 862.589 146.812 862.494L145.335 862.17C144.521 861.985 143.919 861.689 143.528 861.284C143.142 860.879 142.949 860.366 142.949 859.744C142.949 859.229 143.093 858.778 143.381 858.392C143.669 858.006 144.066 857.705 144.574 857.489C145.081 857.269 145.663 857.159 146.318 857.159C147.261 857.159 148.004 857.364 148.545 857.773C149.087 858.178 149.445 858.722 149.619 859.403Z" fill="#455273"/>
<path d="M399 0V900H401V0H399Z" fill="#EEF0FA" mask="url(#path-1-inside-1_126_2019)"/>
<defs>
<filter id="filter0_dddd_126_2019" x="22" y="71" width="356" height="58" filterUnits="userSpaceOnUse" color-interpolation-filters="sRGB">
<feFlood flood-opacity="0" result="BackgroundImageFix"/>
<feColorMatrix in="SourceAlpha" type="matrix" values="0 0 0 0 0 0 0 0 0 0 0 0 0 0 0 0 0 0 127 0" result="hardAlpha"/>
<feOffset/>
<feColorMatrix type="matrix" values="0 0 0 0 0 0 0 0 0 0.443137 0 0 0 0 0.745098 0 0 0 0.08 0"/>
<feBlend mode="normal" in2="BackgroundImageFix" result="effect1_dropShadow_126_2019"/>
<feColorMatrix in="SourceAlpha" type="matrix" values="0 0 0 0 0 0 0 0 0 0 0 0 0 0 0 0 0 0 127 0" result="hardAlpha"/>
<feOffset/>
<feGaussianBlur stdDeviation="0.5"/>
<feColorMatrix type="matrix" values="0 0 0 0 0 0 0 0 0 0.443137 0 0 0 0 0.745098 0 0 0 0.08 0"/>
<feBlend mode="normal" in2="effect1_dropShadow_126_2019" result="effect2_dropShadow_126_2019"/>
<feColorMatrix in="SourceAlpha" type="matrix" values="0 0 0 0 0 0 0 0 0 0 0 0 0 0 0 0 0 0 127 0" result="hardAlpha"/>
<feOffset dy="1"/>
<feGaussianBlur stdDeviation="0.5"/>
<feColorMatrix type="matrix" values="0 0 0 0 0 0 0 0 0 0.443137 0 0 0 0 0.745098 0 0 0 0.07 0"/>
<feBlend mode="normal" in2="effect2_dropShadow_126_2019" result="effect3_dropShadow_126_2019"/>
<feColorMatrix in="SourceAlpha" type="matrix" values="0 0 0 0 0 0 0 0 0 0 0 0 0 0 0 0 0 0 127 0" result="hardAlpha"/>
<feOffset dy="3"/>
<feGaussianBlur stdDeviation="1"/>
<feColorMatrix type="matrix" values="0 0 0 0 0 0 0 0 0 0.443137 0 0 0 0 0.745098 0 0 0 0.04 0"/>
<feBlend mode="normal" in2="effect3_dropShadow_126_2019" result="effect4_dropShadow_126_2019"/>
<feBlend mode="normal" in="SourceGraphic" in2="effect4_dropShadow_126_2019" result="shape"/>
</filter>
<filter id="filter1_dddd_126_2019" x="22" y="136" width="356" height="154" filterUnits="userSpaceOnUse" color-interpolation-filters="sRGB">
<feFlood flood-opacity="0" result="BackgroundImageFix"/>
<feColorMatrix in="SourceAlpha" type="matrix" values="0 0 0 0 0 0 0 0 0 0 0 0 0 0 0 0 0 0 127 0" result="hardAlpha"/>
<feOffset/>
<feColorMatrix type="matrix" values="0 0 0 0 0 0 0 0 0 0.443137 0 0 0 0 0.745098 0 0 0 0.08 0"/>
<feBlend mode="normal" in2="BackgroundImageFix" result="effect1_dropShadow_126_2019"/>
<feColorMatrix in="SourceAlpha" type="matrix" values="0 0 0 0 0 0 0 0 0 0 0 0 0 0 0 0 0 0 127 0" result="hardAlpha"/>
<feOffset/>
<feGaussianBlur stdDeviation="0.5"/>
<feColorMatrix type="matrix" values="0 0 0 0 0 0 0 0 0 0.443137 0 0 0 0 0.745098 0 0 0 0.08 0"/>
<feBlend mode="normal" in2="effect1_dropShadow_126_2019" result="effect2_dropShadow_126_2019"/>
<feColorMatrix in="SourceAlpha" type="matrix" values="0 0 0 0 0 0 0 0 0 0 0 0 0 0 0 0 0 0 127 0" result="hardAlpha"/>
<feOffset dy="1"/>
<feGaussianBlur stdDeviation="0.5"/>
<feColorMatrix type="matrix" values="0 0 0 0 0 0 0 0 0 0.443137 0 0 0 0 0.745098 0 0 0 0.07 0"/>
<feBlend mode="normal" in2="effect2_dropShadow_126_2019" result="effect3_dropShadow_126_2019"/>
<feColorMatrix in="SourceAlpha" type="matrix" values="0 0 0 0 0 0 0 0 0 0 0 0 0 0 0 0 0 0 127 0" result="hardAlpha"/>
<feOffset dy="3"/>
<feGaussianBlur stdDeviation="1"/>
<feColorMatrix type="matrix" values="0 0 0 0 0 0 0 0 0 0.443137 0 0 0 0 0.745098 0 0 0 0.04 0"/>
<feBlend mode="normal" in2="effect3_dropShadow_126_2019" result="effect4_dropShadow_126_2019"/>
<feBlend mode="normal" in="SourceGraphic" in2="effect4_dropShadow_126_2019" result="shape"/>
</filter>
<filter id="filter2_dddd_126_2019" x="22" y="297" width="356" height="58" filterUnits="userSpaceOnUse" color-interpolation-filters="sRGB">
<feFlood flood-opacity="0" result="BackgroundImageFix"/>
<feColorMatrix in="SourceAlpha" type="matrix" values="0 0 0 0 0 0 0 0 0 0 0 0 0 0 0 0 0 0 127 0" result="hardAlpha"/>
<feOffset/>
<feColorMatrix type="matrix" values="0 0 0 0 0 0 0 0 0 0.443137 0 0 0 0 0.745098 0 0 0 0.08 0"/>
<feBlend mode="normal" in2="BackgroundImageFix" result="effect1_dropShadow_126_2019"/>
<feColorMatrix in="SourceAlpha" type="matrix" values="0 0 0 0 0 0 0 0 0 0 0 0 0 0 0 0 0 0 127 0" result="hardAlpha"/>
<feOffset/>
<feGaussianBlur stdDeviation="0.5"/>
<feColorMatrix type="matrix" values="0 0 0 0 0 0 0 0 0 0.443137 0 0 0 0 0.745098 0 0 0 0.08 0"/>
<feBlend mode="normal" in2="effect1_dropShadow_126_2019" result="effect2_dropShadow_126_2019"/>
<feColorMatrix in="SourceAlpha" type="matrix" values="0 0 0 0 0 0 0 0 0 0 0 0 0 0 0 0 0 0 127 0" result="hardAlpha"/>
<feOffset dy="1"/>
<feGaussianBlur stdDeviation="0.5"/>
<feColorMatrix type="matrix" values="0 0 0 0 0 0 0 0 0 0.443137 0 0 0 0 0.745098 0 0 0 0.07 0"/>
<feBlend mode="normal" in2="effect2_dropShadow_126_2019" result="effect3_dropShadow_126_2019"/>
<feColorMatrix in="SourceAlpha" type="matrix" values="0 0 0 0 0 0 0 0 0 0 0 0 0 0 0 0 0 0 127 0" result="hardAlpha"/>
<feOffset dy="3"/>
<feGaussianBlur stdDeviation="1"/>
<feColorMatrix type="matrix" values="0 0 0 0 0 0 0 0 0 0.443137 0 0 0 0 0.745098 0 0 0 0.04 0"/>
<feBlend mode="normal" in2="effect3_dropShadow_126_2019" result="effect4_dropShadow_126_2019"/>
<feBlend mode="normal" in="SourceGraphic" in2="effect4_dropShadow_126_2019" result="shape"/>
</filter>
<linearGradient id="paint0_linear_126_2019" x1="49.8534" y1="38.2863" x2="43.5011" y2="24.5795" gradientUnits="userSpaceOnUse">
<stop offset="0.1617" stop-color="#631A13"/>
<stop offset="0.8096" stop-color="#D74F3C"/>
</linearGradient>
<linearGradient id="paint1_linear_126_2019" x1="32.3241" y1="26.3431" x2="36.7252" y2="32.4645" gradientUnits="userSpaceOnUse">
<stop offset="0.1617" stop-color="#631A13"/>
<stop offset="0.9814" stop-color="#D74F3C"/>
</linearGradient>
<clipPath id="clip0_126_2019">
<rect x="24" y="72" width="352" height="52" rx="12" fill="white"/>
</clipPath>
<clipPath id="clip1_126_2019">
<path d="M24 84C24 77.3726 29.3726 72 36 72H364C370.627 72 376 77.3726 376 84V124H24V84Z" fill="white"/>
</clipPath>
<clipPath id="clip2_126_2019">
<rect x="24" y="137" width="352" height="148" rx="12" fill="white"/>
</clipPath>
<clipPath id="clip3_126_2019">
<path d="M24 149C24 142.373 29.3726 137 36 137H364C370.627 137 376 142.373 376 149V189H24V149Z" fill="white"/>
</clipPath>
<clipPath id="clip4_126_2019">
<rect x="24" y="298" width="352" height="52" rx="12" fill="white"/>
</clipPath>
<clipPath id="clip5_126_2019">
<path d="M24 310C24 303.373 29.3726 298 36 298H364C370.627 298 376 303.373 376 310V350H24V310Z" fill="white"/>
</clipPath>
</defs>
</svg>
