<svg data-content="changed"  preserveAspectRatio=''  class='' id="sidebarSvg" xmlns="http://www.w3.org/2000/svg" xmlns:xlink="http://www.w3.org/1999/xlink" width="400" height="1211.77" viewBox="0 0 400 1211.77">
  <defs>
    <linearGradient id="sidebarSvg_Градієнт_без_назви" data-name="Градієнт без назви" x1="49.93" y1="216.25" x2="43.58" y2="202.55" gradientTransform="translate(0 -178)" gradientUnits="userSpaceOnUse">
      <stop offset="0.16" stop-color="#631a13"/>
      <stop offset="0.81" stop-color="#d74f3c"/>
    </linearGradient>
    <linearGradient id="sidebarSvg_Градієнт_без_назви_2" data-name="Градієнт без назви 2" x1="32.28" y1="204.38" x2="36.68" y2="210.5" gradientTransform="translate(0 -178)" gradientUnits="userSpaceOnUse">
      <stop offset="0.16" stop-color="#631a13"/>
      <stop offset="0.98" stop-color="#d74f3c"/>
    </linearGradient>
    <clipPath id="sidebarSvg_clip-path">
      <rect id="accordion1Wrap" x="24.5" y="72.5" width="351" height="51" rx="11.5" fill="none"/>
    </clipPath>
    <clipPath id="sidebarSvg_clip-path-2">
      <rect x="24" y="72" width="352" height="188" rx="12" fill="none"/>
    </clipPath>
    <clipPath id="sidebarSvg_clip-path-3">
      <path d="M24,84A12,12,0,0,1,36,72H364a12,12,0,0,1,12,12v40H24Z" fill="none"/>
    </clipPath>
    <clipPath id="sidebarSvg_clip-path-4">
      <rect id="accordion2Wrap" x="26.98" y="273.5" width="351" height="51" rx="11.5" fill="none"/>
    </clipPath>
    <clipPath id="sidebarSvg_clip-path-5">
      <rect x="26.48" y="272.61" width="352" height="148" rx="12" fill="none"/>
    </clipPath>
    <clipPath id="sidebarSvg_clip-path-6">
      <path d="M26.48,284.61a12,12,0,0,1,12-12h328a12,12,0,0,1,12,12v40h-352Z" fill="none"/>
    </clipPath>
    <clipPath id="sidebarSvg_clip-path-7">
      <rect id="accordion3Wrap" x="24" y="338" width="352" height="52" rx="12" fill="none"/>
    </clipPath>
    <clipPath id="sidebarSvg_clip-path-8">
      <rect x="24.31" y="338.42" width="352" height="148" rx="12" fill="none"/>
    </clipPath>
    <clipPath id="sidebarSvg_clip-path-9">
      <path d="M24.31,350.42a12,12,0,0,1,12-12h328a12,12,0,0,1,12,12v40h-352Z" fill="none"/>
    </clipPath>
    <mask id="sidebarSvg_mask" x="0" y="0" width="401" height="1211.77" maskUnits="userSpaceOnUse">
      <g id="sidebarSvg_mask" data-name="sidebarSvg mask">
        <g id="elem5_path-1-inside-1_1_6739" data-name="elem5 path-1-inside-1 1 6739">
          <path d="M0,0H400V1211.77H0Z" fill="#fff"/>
        </g>
      </g>
    </mask>
  </defs>
  <path d="M0,0H400V1211.77H0Z" fill="#fff"/>
  <path d="M49,34.54H45.13l-2.76-3.65a1.13,1.13,0,0,1-.24-.61,1.28,1.28,0,0,1,.11-.64,1.22,1.22,0,0,1,.44-.49A1.12,1.12,0,0,1,43.3,29h5.25a1.2,1.2,0,0,1,.94.47L50.7,31A2.2,2.2,0,0,1,49,34.54Z" fill="url(#sidebarSvg_Градієнт_без_назви)"/>
  <path d="M46.42,41.1H29.2a1.2,1.2,0,0,1-.74-2.1l5.44-4.23a1.19,1.19,0,0,1,.72-.25H49a2.19,2.19,0,0,0,2.17-2.21A2.16,2.16,0,0,0,50.72,31l.37.49a6,6,0,0,1-4.67,9.61Z" fill="#0894e4"/>
  <path d="M32.61,26.68h3.86l2.76,3.65a1.16,1.16,0,0,1,.24.61,1.22,1.22,0,0,1-.12.65,1.13,1.13,0,0,1-.43.49,1.24,1.24,0,0,1-.62.18H33a1.17,1.17,0,0,1-.52-.12,1.15,1.15,0,0,1-.41-.35l-1.17-1.6a2.19,2.19,0,0,1,1.71-3.51Z" fill="url(#sidebarSvg_Градієнт_без_назви_2)"/>
  <path d="M35.16,20H52.31a1.2,1.2,0,0,1,1.16,1.24,1.24,1.24,0,0,1-.47.91l-5.42,4.23a1.14,1.14,0,0,1-.71.25H32.57a2.19,2.19,0,0,0-1.69,3.52l-.38-.49A6,6,0,0,1,35.16,20Z" fill="#27ae60"/>
  <path d="M60.35,29.64v4.44c0,1,.74,1.15,2.07,1.1h.18a.42.42,0,0,1,.26.26.54.54,0,0,1,0,.18v2.49a.46.46,0,0,1-.42.47c-4.51.37-5.84-1.12-5.84-4.53V29.64H55.13a.47.47,0,0,1-.33-.14.46.46,0,0,1-.13-.33V26.49a.42.42,0,0,1,.13-.33.47.47,0,0,1,.33-.14h1.51V24a.48.48,0,0,1,.1-.28.38.38,0,0,1,.23-.16l2.79-.85a.74.74,0,0,1,.21,0,.72.72,0,0,1,.2.09.4.4,0,0,1,.13.16.38.38,0,0,1,.05.21V26h2.09a.47.47,0,0,1,.46.46h0v2.68a.51.51,0,0,1-.13.33.47.47,0,0,1-.33.14Z"/>
  <path d="M77.48,26.51V38.15a.51.51,0,0,1-.13.33.47.47,0,0,1-.33.14H74.21a.43.43,0,0,1-.32-.14.47.47,0,0,1-.14-.33v-.72A4.65,4.65,0,0,1,70,39c-3.26,0-6-2.89-6-6.64s2.69-6.64,6-6.64a4.63,4.63,0,0,1,3.71,1.53v-.71a.47.47,0,0,1,.14-.33.43.43,0,0,1,.32-.14H77a.47.47,0,0,1,.46.46h0Zm-3.73,5.82a3,3,0,1,0-5.92-1,3.22,3.22,0,0,0,0,1,3,3,0,0,0,5.92,1A3.22,3.22,0,0,0,73.75,32.33Z"/>
  <path d="M92.5,26a.43.43,0,0,1,.32.14.47.47,0,0,1,.14.33V38c0,4.22-3.26,6-6.57,6a6.46,6.46,0,0,1-5.64-2.62.36.36,0,0,1-.07-.18.61.61,0,0,1,0-.19.38.38,0,0,1,.08-.17.86.86,0,0,1,.14-.13l2.38-1.39a.47.47,0,0,1,.33,0,.4.4,0,0,1,.28.19,2.86,2.86,0,0,0,2.62,1.22,2.49,2.49,0,0,0,2.8-2.13,2.41,2.41,0,0,0,0-.6V36.83a4.43,4.43,0,0,1-3.63,1.64,6.19,6.19,0,0,1-6.12-6.28v-.11a6.19,6.19,0,0,1,6-6.39h.13a4.39,4.39,0,0,1,3.63,1.63v-.81a.48.48,0,0,1,.47-.47Zm-3.18,6a3,3,0,1,0-3.09,2.91h.09a2.84,2.84,0,0,0,3-2.65Z"/>
  <path d="M102,35.6a3.39,3.39,0,0,0,2.16-.74.39.39,0,0,1,.25-.1.43.43,0,0,1,.27.06l2.22,1.29a.32.32,0,0,1,.14.14.46.46,0,0,1,.08.19.67.67,0,0,1,0,.2.4.4,0,0,1-.1.18A6.3,6.3,0,0,1,101.91,39,6.5,6.5,0,0,1,95,32.33a6.41,6.41,0,0,1,6.15-6.64h.45A6.32,6.32,0,0,1,107.91,32c0,.11,0,.22,0,.33a7.66,7.66,0,0,1-.15,1.51H99A2.82,2.82,0,0,0,102,35.6Zm2.24-4.6a2.78,2.78,0,0,0-5.33,0Z"/>
  <path d="M119.15,34.84c0,2.9-2.48,4.13-5.15,4.13a5.51,5.51,0,0,1-5.11-2.58.49.49,0,0,1,0-.17.61.61,0,0,1,0-.19.35.35,0,0,1,.08-.16.41.41,0,0,1,.14-.12l2.38-1.38.18-.06a.54.54,0,0,1,.18,0,.35.35,0,0,1,.16.08.53.53,0,0,1,.12.14A2,2,0,0,0,114,35.6c.89,0,1.34-.28,1.34-.78,0-1.39-6.09-.66-6.09-5,0-2.74,2.27-4.12,4.85-4.12a5.42,5.42,0,0,1,4.54,2.24.46.46,0,0,1,.08.19.61.61,0,0,1,0,.19.51.51,0,0,1-.09.18.86.86,0,0,1-.14.13l-2.35,1.29a.44.44,0,0,1-.32,0,.42.42,0,0,1-.27-.18A1.69,1.69,0,0,0,114.1,29c-.64,0-1,.25-1,.7C113.06,31.14,119.15,30.19,119.15,34.84Z"/>
  <path d="M127.16,35.6a3.31,3.31,0,0,0,2.15-.74.4.4,0,0,1,.26-.1.43.43,0,0,1,.27.06l2.21,1.29a.4.4,0,0,1,.15.14.46.46,0,0,1,.08.19.67.67,0,0,1,0,.2.4.4,0,0,1-.1.18A6.3,6.3,0,0,1,127.11,39c-4.24,0-6.87-2.89-6.87-6.64a6.41,6.41,0,0,1,6.15-6.64h.45A6.32,6.32,0,0,1,133.15,32c0,.11,0,.22,0,.33a7.66,7.66,0,0,1-.15,1.51h-8.81A2.84,2.84,0,0,0,127.16,35.6Zm2.28-4.6a2.78,2.78,0,0,0-5.33,0Z"/>
  <path d="M139.62,29.64v4.44c0,1,.74,1.15,2.07,1.1h.18a.4.4,0,0,1,.15.1.57.57,0,0,1,.11.16.54.54,0,0,1,0,.18v2.49a.48.48,0,0,1-.13.32.42.42,0,0,1-.3.15c-4.5.37-5.83-1.12-5.83-4.53V29.64h-1.52a.43.43,0,0,1-.32-.14.47.47,0,0,1-.14-.33V26.49a.47.47,0,0,1,.14-.33.43.43,0,0,1,.32-.14h1.52V24a.47.47,0,0,1,.09-.28.4.4,0,0,1,.24-.16l2.79-.85a.74.74,0,0,1,.21,0,.66.66,0,0,1,.19.09.43.43,0,0,1,.14.16.54.54,0,0,1,.05.21V26h2.09a.43.43,0,0,1,.32.14.47.47,0,0,1,.14.33v2.68a.47.47,0,0,1-.14.33.43.43,0,0,1-.32.14Z"/>
  <rect x="285" y="16" width="91" height="32" rx="8" fill="#0073f5"/>
  <path d="M310.33,39.5V37.83A3.33,3.33,0,0,0,307,34.5h-5.83a3.35,3.35,0,0,0-3.34,3.33V39.5" fill="none" stroke="#fff" stroke-linecap="round" stroke-linejoin="round" stroke-width="1.6"/>
  <path d="M304.08,31.17a3.34,3.34,0,1,0-3.33-3.35h0A3.35,3.35,0,0,0,304.08,31.17Z" fill="none" stroke="#fff" stroke-linecap="round" stroke-linejoin="round" stroke-width="1.6"/>
  <path d="M313.67,28.67v5" fill="none" stroke="#fff" stroke-linecap="round" stroke-linejoin="round" stroke-width="1.6"/>
  <path d="M316.17,31.17h-5" fill="none" stroke="#fff" stroke-linecap="round" stroke-linejoin="round" stroke-width="1.6"/>
  <path d="M331.67,29.49A1.44,1.44,0,0,0,331,28.4a2.61,2.61,0,0,0-1.46-.39,2.66,2.66,0,0,0-1.08.2,1.55,1.55,0,0,0-.71.53,1.25,1.25,0,0,0-.25.77,1.27,1.27,0,0,0,.17.63,1.71,1.71,0,0,0,.45.44,3.45,3.45,0,0,0,.61.3l.62.18,1,.26a5.86,5.86,0,0,1,1,.33,3.85,3.85,0,0,1,.95.53,2.51,2.51,0,0,1,.7.82,2.41,2.41,0,0,1,.27,1.18,2.78,2.78,0,0,1-.44,1.53,3,3,0,0,1-1.29,1.06,5.52,5.52,0,0,1-4,0,3.07,3.07,0,0,1-1.31-1,3,3,0,0,1-.52-1.59h1.54a1.63,1.63,0,0,0,.35.92,2,2,0,0,0,.81.54,3.65,3.65,0,0,0,1.09.17,3,3,0,0,0,1.16-.2,2,2,0,0,0,.81-.58,1.44,1.44,0,0,0,.29-.87,1.07,1.07,0,0,0-.26-.74,2,2,0,0,0-.69-.48,9,9,0,0,0-1-.33l-1.2-.33a4.73,4.73,0,0,1-1.94-1A2.2,2.2,0,0,1,326,29.6a2.53,2.53,0,0,1,.48-1.53,3.1,3.1,0,0,1,1.29-1,4.74,4.74,0,0,1,3.66,0,3.15,3.15,0,0,1,1.26,1,2.51,2.51,0,0,1,.47,1.45Zm4.83,3V37H335V26.82h1.47v3.79h.09a2.17,2.17,0,0,1,.82-1,2.59,2.59,0,0,1,1.44-.37,2.72,2.72,0,0,1,1.37.33,2.13,2.13,0,0,1,.92,1,3.5,3.5,0,0,1,.33,1.59V37H340V32.32a1.82,1.82,0,0,0-.43-1.3,1.57,1.57,0,0,0-1.2-.47,2.08,2.08,0,0,0-.95.23,1.57,1.57,0,0,0-.65.65,2.12,2.12,0,0,0-.27,1Zm9.15,4.7a3.11,3.11,0,0,1-1.31-.27,2.23,2.23,0,0,1-.93-.79,2.35,2.35,0,0,1-.34-1.27,2.07,2.07,0,0,1,.25-1.06,1.84,1.84,0,0,1,.67-.66,3.24,3.24,0,0,1,.95-.37,9.4,9.4,0,0,1,1.06-.19l1.11-.13a1.74,1.74,0,0,0,.63-.17.42.42,0,0,0,.19-.39h0a1.29,1.29,0,0,0-.37-1,1.48,1.48,0,0,0-1.08-.36,1.91,1.91,0,0,0-1.18.33,1.78,1.78,0,0,0-.6.73l-1.39-.32a2.61,2.61,0,0,1,.72-1.12,3,3,0,0,1,1.11-.63,4.54,4.54,0,0,1,1.32-.2,4.79,4.79,0,0,1,1,.11,3.06,3.06,0,0,1,1,.39,2.14,2.14,0,0,1,.74.81,2.78,2.78,0,0,1,.29,1.36v5H348V36h-.06a2.14,2.14,0,0,1-.43.56,2.39,2.39,0,0,1-.74.47,3,3,0,0,1-1.12.14ZM346,36a2.18,2.18,0,0,0,1-.25,1.65,1.65,0,0,0,.9-1.48v-1a.85.85,0,0,1-.3.15,4.36,4.36,0,0,1-.52.11l-.56.09-.45.06a5.45,5.45,0,0,0-.8.18,1.36,1.36,0,0,0-.56.38.91.91,0,0,0-.21.63,1,1,0,0,0,.41.84A1.83,1.83,0,0,0,346,36Zm5.42,1V29.36h1.44v1.22h.08a1.84,1.84,0,0,1,.73-1,2.1,2.1,0,0,1,1.21-.36h.63v1.43l-.32-.06a3.53,3.53,0,0,0-.46,0,2,2,0,0,0-.94.22,1.7,1.7,0,0,0-.64.61,1.66,1.66,0,0,0-.24.89V37Zm8.39.15a3.75,3.75,0,0,1-1.94-.48,3.18,3.18,0,0,1-1.25-1.37,5.09,5.09,0,0,1,0-4.14,3.32,3.32,0,0,1,3.09-1.9,3.78,3.78,0,0,1,1.25.22,2.93,2.93,0,0,1,1.09.67,3.11,3.11,0,0,1,.76,1.19,4.78,4.78,0,0,1,.28,1.76v.53H357V32.52h4.61a2.17,2.17,0,0,0-.24-1,1.72,1.72,0,0,0-.67-.72,1.86,1.86,0,0,0-1-.27,2,2,0,0,0-1.1.31,2.1,2.1,0,0,0-.71.8,2.18,2.18,0,0,0-.25,1v.87a3,3,0,0,0,.27,1.31,1.88,1.88,0,0,0,.76.82,2.27,2.27,0,0,0,1.14.28,2.53,2.53,0,0,0,.77-.12,1.77,1.77,0,0,0,.6-.37,1.6,1.6,0,0,0,.39-.6l1.4.25a2.44,2.44,0,0,1-.6,1.09,2.85,2.85,0,0,1-1.09.72,4,4,0,0,1-1.49.26Z" fill="#fff"/>
  <g id="accordion1">
    <g clip-path="url(#sidebarSvg_clip-path)">
      <g>
        <g clip-path="url(#sidebarSvg_clip-path-2)">
          <g id="accordion1Content">
            <rect x="24" y="72" width="352" height="188" rx="12" fill="#f9fbff"/>
            <g clip-path="url(#sidebarSvg_clip-path-3)">
              <g>
                <path id="_-.hover-" class="hover" data-name=" -.hover-" d="M24,84A12,12,0,0,1,36,72H364a12,12,0,0,1,12,12v40H24Z" fill="#f9fbff"/>
                <path id="_-.arrow-" class="arrow" data-name=" -.arrow-" d="M51,99.5l-5-5-5,5" fill="none" stroke="#7084b4" stroke-linecap="round" stroke-linejoin="round" stroke-width="1.6"/>
                <path d="M75.56,104,72.33,92.36h1.85l2.26,9h.11l2.36-9h1.83l2.36,9h.1l2.27-9h1.85L84.09,104H82.32l-2.45-8.72h-.09L77.33,104Zm16.12.18a4.22,4.22,0,0,1-2.22-.56A3.79,3.79,0,0,1,88,102.06a5.82,5.82,0,0,1,0-4.73,4,4,0,0,1,1.41-1.6,3.9,3.9,0,0,1,2.13-.57A4.51,4.51,0,0,1,93,95.4a3.64,3.64,0,0,1,1.24.77,3.56,3.56,0,0,1,.87,1.36,5.67,5.67,0,0,1,.32,2v.6H88.49V98.88h5.27a2.47,2.47,0,0,0-.27-1.19,2.05,2.05,0,0,0-.77-.83,2.07,2.07,0,0,0-1.14-.3,2.21,2.21,0,0,0-1.25.35,2.39,2.39,0,0,0-.82.91A2.57,2.57,0,0,0,89.22,99v1a3.35,3.35,0,0,0,.31,1.49,2.26,2.26,0,0,0,.87.94,2.68,2.68,0,0,0,1.3.31,2.61,2.61,0,0,0,.88-.13,1.89,1.89,0,0,0,.69-.42,1.81,1.81,0,0,0,.44-.69l1.61.29a2.88,2.88,0,0,1-.69,1.24,3.38,3.38,0,0,1-1.25.83A4.71,4.71,0,0,1,91.68,104.18ZM99,92.36V104H97.3V92.36Zm6,11.82a4,4,0,0,1-2.18-.58,3.84,3.84,0,0,1-1.4-1.59,5.5,5.5,0,0,1-.48-2.33,5.15,5.15,0,0,1,.5-2.35,3.83,3.83,0,0,1,1.41-1.6,3.93,3.93,0,0,1,2.14-.57,4,4,0,0,1,1.77.37,3.15,3.15,0,0,1,1.26,1,3,3,0,0,1,.57,1.54h-1.65a2,2,0,0,0-.63-1.06,1.85,1.85,0,0,0-1.29-.44,2.14,2.14,0,0,0-1.25.38,2.35,2.35,0,0,0-.82,1,4.09,4.09,0,0,0-.3,1.62,4.37,4.37,0,0,0,.29,1.64,2.5,2.5,0,0,0,.82,1.08,2.1,2.1,0,0,0,1.26.38,2.15,2.15,0,0,0,.87-.18,1.69,1.69,0,0,0,.67-.52,2.11,2.11,0,0,0,.38-.8h1.65a3,3,0,0,1-1.78,2.51A4,4,0,0,1,105,104.18Zm9.08,0a4,4,0,0,1-2.14-.57,3.84,3.84,0,0,1-1.42-1.57,5.2,5.2,0,0,1-.51-2.36,5.29,5.29,0,0,1,.51-2.38,3.8,3.8,0,0,1,1.42-1.58,4.35,4.35,0,0,1,4.28,0,3.74,3.74,0,0,1,1.42,1.58,5.29,5.29,0,0,1,.51,2.38,5.2,5.2,0,0,1-.51,2.36,3.71,3.71,0,0,1-1.42,1.57,4,4,0,0,1-2.17.57Zm0-1.43a2,2,0,0,0,1.32-.42,2.57,2.57,0,0,0,.77-1.12,4.48,4.48,0,0,0,.25-1.54,4.42,4.42,0,0,0-.25-1.53A2.6,2.6,0,0,0,115.4,97a2.27,2.27,0,0,0-2.65,0,2.54,2.54,0,0,0-.78,1.13,4.42,4.42,0,0,0-.25,1.53,4.48,4.48,0,0,0,.25,1.54,2.45,2.45,0,0,0,.78,1.12,2.07,2.07,0,0,0,1.31.42Zm6,1.25V95.27h1.63v1.42h.11a2.29,2.29,0,0,1,.89-1.12,2.67,2.67,0,0,1,1.48-.41,2.56,2.56,0,0,1,1.47.41,2.48,2.48,0,0,1,.88,1.12h.09a2.5,2.5,0,0,1,1-1.11,3.1,3.1,0,0,1,1.63-.42,2.62,2.62,0,0,1,1.93.74,3,3,0,0,1,.76,2.25V104h-1.7V98.31A1.6,1.6,0,0,0,129.7,97a1.76,1.76,0,0,0-1.16-.4,1.63,1.63,0,0,0-1.28.52,1.83,1.83,0,0,0-.47,1.3V104H125.1V98.2a1.51,1.51,0,0,0-.44-1.14,1.58,1.58,0,0,0-1.15-.44,1.68,1.68,0,0,0-.9.26,2.07,2.07,0,0,0-.65.7,2.17,2.17,0,0,0-.24,1V104Zm17.9.18a4.22,4.22,0,0,1-2.22-.56,3.65,3.65,0,0,1-1.43-1.56,5.82,5.82,0,0,1,0-4.73,3.74,3.74,0,0,1,3.53-2.17,4.34,4.34,0,0,1,1.43.24,3.68,3.68,0,0,1,1.25.77,3.91,3.91,0,0,1,.87,1.36,5.66,5.66,0,0,1,.31,2v.6h-6.93V98.88H140a2.47,2.47,0,0,0-.27-1.19,2.07,2.07,0,0,0-1.92-1.13,2.21,2.21,0,0,0-1.25.35,2.57,2.57,0,0,0-.82.91,2.69,2.69,0,0,0-.28,1.21v1a3.22,3.22,0,0,0,.31,1.49,2.23,2.23,0,0,0,.86.94,2.69,2.69,0,0,0,1.31.31,2.89,2.89,0,0,0,.88-.13,2.09,2.09,0,0,0,.68-.42,1.76,1.76,0,0,0,.45-.69l1.6.29a2.73,2.73,0,0,1-.69,1.24,3.27,3.27,0,0,1-1.24.83,4.68,4.68,0,0,1-1.7.29Zm7.84-1.77-.09.62a8.51,8.51,0,0,1-.29,1.42c-.13.49-.27,1-.41,1.38s-.26.76-.35,1h-1.2c.05-.23.12-.55.2-1s.17-.85.26-1.34.14-1,.19-1.51l.05-.63Zm7.13,3V90.94h3.73v1.34h-2.11v11.8h2.11v1.35Zm14.89-13.07V104h-1.61l-5.92-8.53h-.11V104h-1.75V92.36H160l5.92,8.55H166V92.36Zm5,11.83a3.66,3.66,0,0,1-1.5-.3,2.46,2.46,0,0,1-1.45-2.36,2.43,2.43,0,0,1,.29-1.21,2.08,2.08,0,0,1,.77-.76,4.18,4.18,0,0,1,1.08-.42,12.23,12.23,0,0,1,1.21-.21l1.27-.15a1.76,1.76,0,0,0,.71-.2.48.48,0,0,0,.23-.44h0A1.55,1.55,0,0,0,175,97a1.74,1.74,0,0,0-1.24-.41,2.17,2.17,0,0,0-1.35.38,2,2,0,0,0-.68.84l-1.6-.36a3.22,3.22,0,0,1,.83-1.29,3.26,3.26,0,0,1,1.27-.71,4.75,4.75,0,0,1,1.5-.23,5.17,5.17,0,0,1,1.11.12,3.25,3.25,0,0,1,1.11.45,2.39,2.39,0,0,1,.84.92,3.19,3.19,0,0,1,.33,1.55V104h-1.66v-1.19h-.07a2.58,2.58,0,0,1-.49.65,2.67,2.67,0,0,1-.85.52,3.22,3.22,0,0,1-1.34.21Zm.37-1.36a2.42,2.42,0,0,0,1.21-.28,2,2,0,0,0,.77-.73,1.85,1.85,0,0,0,.26-1V99.73a.88.88,0,0,1-.35.17,5.61,5.61,0,0,1-.59.13l-.64.09-.52.07a4.53,4.53,0,0,0-.9.21,1.49,1.49,0,0,0-.65.43,1,1,0,0,0-.24.73,1.08,1.08,0,0,0,.47,1,2,2,0,0,0,1.08.27Zm6.2,1.17V95.27H181v1.42h.1a2.21,2.21,0,0,1,.9-1.12,2.67,2.67,0,0,1,1.48-.41,2.51,2.51,0,0,1,1.46.41,2.32,2.32,0,0,1,.88,1.12h.1a2.4,2.4,0,0,1,1-1.11,3,3,0,0,1,1.62-.42,2.64,2.64,0,0,1,1.94.74,3,3,0,0,1,.76,2.25V104h-1.7V98.31A1.62,1.62,0,0,0,189,97a1.82,1.82,0,0,0-1.16-.4,1.68,1.68,0,0,0-1.29.52,1.87,1.87,0,0,0-.46,1.3V104H184.4V98.2a1.52,1.52,0,0,0-.44-1.14,1.57,1.57,0,0,0-1.16-.44,1.65,1.65,0,0,0-.89.26,1.83,1.83,0,0,0-.65.7,2.06,2.06,0,0,0-.25,1V104Zm17.91.18a4.35,4.35,0,0,1-2.23-.56,3.71,3.71,0,0,1-1.43-1.56,5.82,5.82,0,0,1,0-4.73,4,4,0,0,1,1.41-1.6,3.9,3.9,0,0,1,2.13-.57,4.34,4.34,0,0,1,1.43.24,3.64,3.64,0,0,1,1.24.77,3.56,3.56,0,0,1,.87,1.36,5.67,5.67,0,0,1,.32,2v.6H194V98.88h5.27a2.47,2.47,0,0,0-.27-1.19,2,2,0,0,0-.76-.83,2.13,2.13,0,0,0-1.15-.3,2.21,2.21,0,0,0-1.25.35,2.39,2.39,0,0,0-.82.91,2.69,2.69,0,0,0-.28,1.21v1a3.49,3.49,0,0,0,.3,1.49,2.26,2.26,0,0,0,.87.94,2.68,2.68,0,0,0,1.3.31,2.61,2.61,0,0,0,.88-.13,1.89,1.89,0,0,0,.69-.42,1.81,1.81,0,0,0,.44-.69l1.61.29a2.88,2.88,0,0,1-.69,1.24,3.38,3.38,0,0,1-1.25.83,4.52,4.52,0,0,1-1.67.29ZM206,91.91V106.4h-3.74v-1.35h2.11V93.27h-2.11V91.93Z" fill="#1a1929"/>
              </g>
            </g>
            <rect x="72.5" y="140.5" width="202" height="23" rx="3.5" fill="#eef0fa"/>
            <rect x="72.5" y="140.5" width="202" height="23" rx="3.5" fill="none" stroke="#dfe3f6"/>
            <rect x="72.5" y="180.5" width="237" height="23" rx="3.5" fill="#eef0fa"/>
            <rect x="72.5" y="180.5" width="237" height="23" rx="3.5" fill="none" stroke="#dfe3f6"/>
            <rect x="72.5" y="220.5" width="134" height="23" rx="3.5" fill="#eef0fa"/>
            <rect x="72.5" y="220.5" width="134" height="23" rx="3.5" fill="none" stroke="#dfe3f6"/>
          </g>
        </g>
        <rect x="24.5" y="72.5" width="351" height="187" rx="11.5" fill="none" stroke="#eef0fa"/>
      </g>
    </g>
  </g>
  <g id="accordion2">
    <g clip-path="url(#sidebarSvg_clip-path-4)">
      <g>
        <g clip-path="url(#sidebarSvg_clip-path-5)">
          <g id="accordion2Content">
            <rect x="26.48" y="272.61" width="352" height="148" rx="12" fill="#f9fbff"/>
            <g clip-path="url(#sidebarSvg_clip-path-6)">
              <g>
                <path id="_-.hover--2" class="hover" data-name=" -.hover-" d="M26.48,284.61a12,12,0,0,1,12-12h328a12,12,0,0,1,12,12v40h-352Z" fill="#f9fbff"/>
                <path id="_-.arrow--2" class="arrow" data-name=" -.arrow-" d="M43.48,295.11l5,5,5-5" fill="none" stroke="#7084b4" stroke-linecap="round" stroke-linejoin="round" stroke-width="1.6"/>
                <path d="M75.76,304.61V293H80a4.46,4.46,0,0,1,2,.41,2.74,2.74,0,0,1,1.22,1.09,3,3,0,0,1,.4,1.55,2.6,2.6,0,0,1-.27,1.23,2.27,2.27,0,0,1-.71.8,3.4,3.4,0,0,1-1,.43v.11a2.42,2.42,0,0,1,1.13.38,2.6,2.6,0,0,1,.92,1,3.34,3.34,0,0,1-.06,3.13,2.79,2.79,0,0,1-1.28,1.12,5.13,5.13,0,0,1-2.22.41Zm1.75-1.5h2.54a2.68,2.68,0,0,0,1.8-.49,1.54,1.54,0,0,0,.55-1.22,1.87,1.87,0,0,0-.28-1,2,2,0,0,0-.79-.74,2.59,2.59,0,0,0-1.22-.27h-2.6Zm0-5.1h2.36a2.56,2.56,0,0,0,1.06-.23,1.83,1.83,0,0,0,.75-.63,1.7,1.7,0,0,0,.29-1,1.58,1.58,0,0,0-.51-1.21,2.13,2.13,0,0,0-1.55-.49h-2.4Zm14.11,3v-5.1h1.7v8.72H91.65V303.1h-.09a2.7,2.7,0,0,1-1,1.17,2.85,2.85,0,0,1-1.65.46,2.93,2.93,0,0,1-1.48-.37,2.68,2.68,0,0,1-1-1.11,4,4,0,0,1-.36-1.81v-5.55h1.7v5.34a2,2,0,0,0,.49,1.42,1.68,1.68,0,0,0,1.29.53,2.1,2.1,0,0,0,1.74-1,2.21,2.21,0,0,0,.33-1.18Zm10.53-3-1.54.27a1.82,1.82,0,0,0-.31-.56,1.5,1.5,0,0,0-.56-.44,1.92,1.92,0,0,0-.88-.17,2.21,2.21,0,0,0-1.2.32,1,1,0,0,0-.49.83.87.87,0,0,0,.33.7,2.49,2.49,0,0,0,1,.44l1.39.32a3.77,3.77,0,0,1,1.79.85,2,2,0,0,1,.6,1.51,2.35,2.35,0,0,1-.46,1.4,3,3,0,0,1-1.25.95,4.73,4.73,0,0,1-1.86.35,4.11,4.11,0,0,1-2.39-.63,2.61,2.61,0,0,1-1.14-1.79l1.64-.25a1.58,1.58,0,0,0,.63,1,2.21,2.21,0,0,0,1.25.32,2.31,2.31,0,0,0,1.33-.35,1,1,0,0,0,.5-.86.86.86,0,0,0-.31-.68,1.85,1.85,0,0,0-.92-.42l-1.48-.33a3.54,3.54,0,0,1-1.81-.88,2.15,2.15,0,0,1-.58-1.54,2.21,2.21,0,0,1,.44-1.36,2.86,2.86,0,0,1,1.19-.9,4.31,4.31,0,0,1,1.74-.33,3.6,3.6,0,0,1,2.23.62,2.82,2.82,0,0,1,1.12,1.6Zm2,6.59v-8.72h1.7v8.72Zm.86-10.07a1.07,1.07,0,0,1-.76-.3,1,1,0,0,1,0-1.41l0,0a1.07,1.07,0,0,1,.76-.3,1,1,0,0,1,.76.3,1,1,0,0,1,0,1.41l0,0a1,1,0,0,1-.77.31Zm4.83,4.89v5.18h-1.7v-8.72h1.63v1.42h.11a2.44,2.44,0,0,1,.94-1.12,3,3,0,0,1,1.63-.42,3.16,3.16,0,0,1,1.56.38,2.42,2.42,0,0,1,1,1.1,3.92,3.92,0,0,1,.37,1.81v5.55h-1.7v-5.34a2.13,2.13,0,0,0-.49-1.49,1.74,1.74,0,0,0-1.36-.54,2.24,2.24,0,0,0-1,.26,1.85,1.85,0,0,0-.72.75,2.41,2.41,0,0,0-.19,1.19Zm11.62,5.36a4.31,4.31,0,0,1-2.22-.55,3.68,3.68,0,0,1-1.43-1.57,5.22,5.22,0,0,1-.5-2.36,5.37,5.37,0,0,1,.5-2.37,3.87,3.87,0,0,1,1.41-1.59,3.77,3.77,0,0,1,2.12-.58,4.1,4.1,0,0,1,1.43.25,3.42,3.42,0,0,1,1.25.76,3.56,3.56,0,0,1,.87,1.36,5.67,5.67,0,0,1,.32,2v.6H118.3v-1.27h5.27a2.47,2.47,0,0,0-.27-1.19,2,2,0,0,0-.77-.82,2.14,2.14,0,0,0-1.15-.31,2.22,2.22,0,0,0-1.25.36,2.29,2.29,0,0,0-.81.91,2.66,2.66,0,0,0-.29,1.21v1a3.22,3.22,0,0,0,.31,1.49,2.26,2.26,0,0,0,.87.94,2.58,2.58,0,0,0,1.3.32,2.89,2.89,0,0,0,.88-.14,2,2,0,0,0,.69-.42,1.81,1.81,0,0,0,.44-.69l1.61.29a2.88,2.88,0,0,1-.69,1.24,3.38,3.38,0,0,1-1.25.83,4.7,4.7,0,0,1-1.7.31Zm12.2-6.78-1.54.27a1.61,1.61,0,0,0-.31-.56,1.4,1.4,0,0,0-.55-.44,2.06,2.06,0,0,0-.88-.17,2.22,2.22,0,0,0-1.21.32,1,1,0,0,0-.48.83.86.86,0,0,0,.32.7,2.7,2.7,0,0,0,1.05.44l1.39.32a3.77,3.77,0,0,1,1.79.85,2,2,0,0,1,.59,1.51,2.29,2.29,0,0,1-.45,1.4,3,3,0,0,1-1.26.95,4.73,4.73,0,0,1-1.86.35,4.11,4.11,0,0,1-2.39-.63,2.63,2.63,0,0,1-1.13-1.79l1.64-.25a1.58,1.58,0,0,0,.63,1,2.15,2.15,0,0,0,1.24.32,2.34,2.34,0,0,0,1.34-.35,1,1,0,0,0,.5-.86.86.86,0,0,0-.31-.68,1.92,1.92,0,0,0-.93-.42l-1.47-.33a3.54,3.54,0,0,1-1.81-.88,2.15,2.15,0,0,1-.58-1.54,2.2,2.2,0,0,1,.43-1.36,3,3,0,0,1,1.2-.9,4.31,4.31,0,0,1,1.74-.33,3.62,3.62,0,0,1,2.23.62A2.75,2.75,0,0,1,133.66,298Zm8.58,0-1.54.27a1.61,1.61,0,0,0-.31-.56,1.4,1.4,0,0,0-.55-.44,2.06,2.06,0,0,0-.88-.17,2.14,2.14,0,0,0-1.21.32,1,1,0,0,0-.48.83.86.86,0,0,0,.32.7,2.81,2.81,0,0,0,1,.44l1.38.32a3.67,3.67,0,0,1,1.8.85,2,2,0,0,1,.59,1.51,2.29,2.29,0,0,1-.45,1.4,3,3,0,0,1-1.26.95,4.73,4.73,0,0,1-1.86.35,4.11,4.11,0,0,1-2.39-.63,2.61,2.61,0,0,1-1.14-1.79l1.65-.25a1.58,1.58,0,0,0,.63,1,2.15,2.15,0,0,0,1.24.32,2.34,2.34,0,0,0,1.34-.35,1,1,0,0,0,.5-.86.89.89,0,0,0-.31-.68,1.92,1.92,0,0,0-.93-.42l-1.47-.33a3.54,3.54,0,0,1-1.81-.88,2.15,2.15,0,0,1-.58-1.54A2.19,2.19,0,0,1,136,297a3,3,0,0,1,1.19-.9,4.36,4.36,0,0,1,1.75-.33,3.68,3.68,0,0,1,2.23.62A2.75,2.75,0,0,1,142.24,298Zm9.95,6.77a4,4,0,0,1-2.18-.58,3.66,3.66,0,0,1-1.4-1.59,5.78,5.78,0,0,1,0-4.68,3.81,3.81,0,0,1,1.41-1.59,3.86,3.86,0,0,1,2.14-.58,4,4,0,0,1,1.77.37,3,3,0,0,1,1.83,2.54h-1.65a2,2,0,0,0-.62-1.05,1.86,1.86,0,0,0-1.3-.45,2.11,2.11,0,0,0-1.24.38,2.35,2.35,0,0,0-.83,1.06,3.87,3.87,0,0,0-.29,1.61,4.05,4.05,0,0,0,.29,1.65,2.32,2.32,0,0,0,.81,1.07,2.24,2.24,0,0,0,2.13.2,1.76,1.76,0,0,0,.67-.51,1.89,1.89,0,0,0,.38-.81h1.65a3.16,3.16,0,0,1-1.78,2.56,4,4,0,0,1-1.79.42Zm7.94,0a3.66,3.66,0,0,1-1.5-.31,2.43,2.43,0,0,1-1.45-2.35,2.25,2.25,0,0,1,.29-1.22,2,2,0,0,1,.76-.76,4.18,4.18,0,0,1,1.08-.42c.4-.09.81-.16,1.22-.21l1.27-.15a1.93,1.93,0,0,0,.71-.2.46.46,0,0,0,.22-.44h0a1.49,1.49,0,0,0-.42-1.15,1.66,1.66,0,0,0-1.24-.41,2.09,2.09,0,0,0-1.35.38,2.19,2.19,0,0,0-.68.83l-1.59-.36a3.06,3.06,0,0,1,.83-1.29,3.66,3.66,0,0,1,1.26-.71,5.17,5.17,0,0,1,1.51-.23,4.61,4.61,0,0,1,1.11.13,3.39,3.39,0,0,1,1.1.44,2.45,2.45,0,0,1,.85.93,3.19,3.19,0,0,1,.33,1.55v5.79h-1.66v-1.19h-.07a2.85,2.85,0,0,1-.49.65,2.7,2.7,0,0,1-.85.53,3.3,3.3,0,0,1-1.24.21Zm.37-1.37a2.39,2.39,0,0,0,1.2-.28,1.84,1.84,0,0,0,.77-.72,2,2,0,0,0,.27-1v-1.12a.88.88,0,0,1-.35.17,5.61,5.61,0,0,1-.59.13l-.64.1-.52.07a4.63,4.63,0,0,0-.91.21,1.56,1.56,0,0,0-.65.42,1.14,1.14,0,0,0-.23.73,1.07,1.07,0,0,0,.46.95,2,2,0,0,0,1.19.38Zm7.9-10.4v11.63h-1.7V293Zm4,0v11.63h-1.7V293Zm6.52,11.63v-8.72h1.64v1.38h.1a2,2,0,0,1,.84-1.11,2.37,2.37,0,0,1,1.37-.41h.72v1.63l-.36-.06a2.26,2.26,0,0,0-.52,0,2.23,2.23,0,0,0-1.08.25,2.07,2.07,0,0,0-.74.7,2,2,0,0,0-.27,1v5.33Zm9.59.18a4.31,4.31,0,0,1-2.22-.55,3.68,3.68,0,0,1-1.43-1.57,5.22,5.22,0,0,1-.5-2.36,5.37,5.37,0,0,1,.5-2.37,3.87,3.87,0,0,1,1.41-1.59,3.77,3.77,0,0,1,2.12-.58,4.1,4.1,0,0,1,1.43.25,3.42,3.42,0,0,1,1.25.76,3.56,3.56,0,0,1,.87,1.36,5.9,5.9,0,0,1,.32,2v.6h-7v-1.27h5.27a2.47,2.47,0,0,0-.27-1.19,2,2,0,0,0-.77-.82,2.14,2.14,0,0,0-1.15-.31,2.22,2.22,0,0,0-1.25.36,2.29,2.29,0,0,0-.81.91,2.66,2.66,0,0,0-.29,1.21v1a3.22,3.22,0,0,0,.31,1.49,2.26,2.26,0,0,0,.87.94,2.58,2.58,0,0,0,1.3.32,2.89,2.89,0,0,0,.88-.14,2,2,0,0,0,.69-.42,1.81,1.81,0,0,0,.44-.69l1.61.29a2.88,2.88,0,0,1-.69,1.24,3.38,3.38,0,0,1-1.25.83,4.67,4.67,0,0,1-1.7.28Zm9.31,0a4,4,0,0,1-2.18-.58,3.66,3.66,0,0,1-1.4-1.59,5.78,5.78,0,0,1,0-4.68,3.81,3.81,0,0,1,1.41-1.59,3.86,3.86,0,0,1,2.14-.58,4,4,0,0,1,1.77.37,3,3,0,0,1,1.83,2.54h-1.65a1.91,1.91,0,0,0-.63-1.05,1.84,1.84,0,0,0-1.29-.45,2.14,2.14,0,0,0-1.25.38,2.44,2.44,0,0,0-.82,1.06,3.87,3.87,0,0,0-.29,1.61,4.05,4.05,0,0,0,.29,1.65,2.32,2.32,0,0,0,.81,1.07,2.24,2.24,0,0,0,2.13.2,1.76,1.76,0,0,0,.67-.51,1.89,1.89,0,0,0,.38-.81h1.65a3.17,3.17,0,0,1-1.78,2.56,3.93,3.93,0,0,1-1.81.38Zm7.94,0a3.66,3.66,0,0,1-1.5-.31,2.43,2.43,0,0,1-1.45-2.35,2.48,2.48,0,0,1,.28-1.22,2.16,2.16,0,0,1,.77-.76,4.18,4.18,0,0,1,1.08-.42c.4-.09.81-.16,1.22-.21l1.27-.15a1.93,1.93,0,0,0,.71-.2.46.46,0,0,0,.22-.44h0a1.49,1.49,0,0,0-.42-1.15,1.66,1.66,0,0,0-1.24-.41,2.09,2.09,0,0,0-1.35.38,2,2,0,0,0-.68.83l-1.59-.36a3.06,3.06,0,0,1,.83-1.29,3.66,3.66,0,0,1,1.26-.71,5.17,5.17,0,0,1,1.51-.23,4.61,4.61,0,0,1,1.11.13,3.39,3.39,0,0,1,1.1.44,2.45,2.45,0,0,1,.85.93,3.19,3.19,0,0,1,.33,1.55v5.79h-1.66v-1.19h-.07a2.62,2.62,0,0,1-.5.65,2.55,2.55,0,0,1-.84.53,3.18,3.18,0,0,1-1.26.17Zm.37-1.37a2.39,2.39,0,0,0,1.2-.28,1.84,1.84,0,0,0,.77-.72,2,2,0,0,0,.27-1v-1.12a.88.88,0,0,1-.35.17c-.18.05-.37.09-.59.13l-.64.1-.52.07a3.54,3.54,0,0,0-.91.21,1.56,1.56,0,0,0-.65.42,1.24,1.24,0,0,0,.23,1.68,2,2,0,0,0,1.17.34Zm6.2,4.45v-12H214v1.41h.14a5.39,5.39,0,0,1,.43-.63,2.35,2.35,0,0,1,.77-.63,2.71,2.71,0,0,1,1.31-.27,3.38,3.38,0,0,1,1.88.54,3.42,3.42,0,0,1,1.3,1.54,5.6,5.6,0,0,1,.48,2.42,5.74,5.74,0,0,1-.47,2.42,3.69,3.69,0,0,1-1.3,1.55,3.38,3.38,0,0,1-1.88.54,2.78,2.78,0,0,1-1.3-.26,2.52,2.52,0,0,1-.78-.63,4,4,0,0,1-.44-.64H214v4.64Zm1.66-7.64a4.43,4.43,0,0,0,.27,1.61A2.54,2.54,0,0,0,215,303a2.21,2.21,0,0,0,2.51,0,2.43,2.43,0,0,0,.78-1.11,4.42,4.42,0,0,0,.26-1.57,4.32,4.32,0,0,0-.26-1.55,2.35,2.35,0,0,0-.77-1.09,2.09,2.09,0,0,0-1.28-.4,2,2,0,0,0-1.25.39,2.32,2.32,0,0,0-.76,1.06,4.13,4.13,0,0,0-.23,1.52Z" fill="#1a1929"/>
              </g>
            </g>
            <rect x="74.98" y="341.11" width="202" height="23" rx="3.5" fill="#eef0fa"/>
            <rect x="74.98" y="341.11" width="202" height="23" rx="3.5" fill="none" stroke="#dfe3f6"/>
            <rect x="74.98" y="381.11" width="237" height="23" rx="3.5" fill="#eef0fa"/>
            <rect x="74.98" y="381.11" width="237" height="23" rx="3.5" fill="none" stroke="#dfe3f6"/>
          </g>
        </g>
        <rect x="26.98" y="273.11" width="351" height="147" rx="11.5" fill="none" stroke="#eef0fa"/>
      </g>
    </g>
  </g>
  <g id="accordion3">
    <g clip-path="url(#sidebarSvg_clip-path-7)">
      <g>
        <g clip-path="url(#sidebarSvg_clip-path-8)">
          <g id="accordion3Content">
            <rect x="24.31" y="338.42" width="352" height="148" rx="12" fill="#f9fbff"/>
            <g clip-path="url(#sidebarSvg_clip-path-9)">
              <g>
                <path id="_-.hover--3" class="hover" data-name=" -.hover-" d="M24.31,350.42a12,12,0,0,1,12-12h328a12,12,0,0,1,12,12v40h-352Z" fill="#f9fbff"/>
                <path id="_-.arrow--3" class="arrow" data-name=" -.arrow-" d="M41.31,360.92l5,5,5-5" fill="none" stroke="#7084b4" stroke-linecap="round" stroke-linejoin="round" stroke-width="1.6"/>
                <path d="M72.69,358.78h2l3,5.29h.12l3-5.29h2l-4.23,7.07v4.57H76.91v-4.57Zm14,11.82a4,4,0,0,1-2.19-.6,3.84,3.84,0,0,1-1.42-1.57,5.22,5.22,0,0,1-.5-2.36,5.28,5.28,0,0,1,.5-2.38,3.8,3.8,0,0,1,1.42-1.58,4.37,4.37,0,0,1,4.29,0,3.8,3.8,0,0,1,1.42,1.58,5.28,5.28,0,0,1,.5,2.38,5.2,5.2,0,0,1-.5,2.36A3.84,3.84,0,0,1,88.79,370a3.93,3.93,0,0,1-2.14.6Zm0-1.43a2,2,0,0,0,1.32-.42,2.36,2.36,0,0,0,.77-1.12,4.49,4.49,0,0,0,.26-1.54,4.21,4.21,0,0,0-.26-1.53,2.39,2.39,0,0,0-.77-1.13,2,2,0,0,0-1.32-.43,2,2,0,0,0-1.33.43,2.54,2.54,0,0,0-.78,1.13,4.67,4.67,0,0,0-.25,1.53,4.78,4.78,0,0,0,.25,1.54,2.45,2.45,0,0,0,.78,1.12,2.08,2.08,0,0,0,1.29.42Zm11.49-2.37v-5.11h1.7v8.73H98.17v-1.51h-.09a2.74,2.74,0,0,1-1,1.16,2.85,2.85,0,0,1-1.65.46,2.93,2.93,0,0,1-1.48-.37,2.65,2.65,0,0,1-1-1.1,4.06,4.06,0,0,1-.36-1.82v-5.55h1.7V367a2,2,0,0,0,.49,1.42,1.68,1.68,0,0,0,1.29.53,2.17,2.17,0,0,0,1-.24,2,2,0,0,0,.79-.72,2.23,2.23,0,0,0,.28-1.19Zm4,3.62v-8.73h1.64v1.39h.09a2.15,2.15,0,0,1,.84-1.11,2.43,2.43,0,0,1,1.38-.41h.72v1.63l-.37-.07H106a2.12,2.12,0,0,0-1.07.26,1.89,1.89,0,0,0-1,1.7v5.33Zm14,.18A4.07,4.07,0,0,1,114,370a3.71,3.71,0,0,1-1.42-1.57,5.2,5.2,0,0,1-.51-2.36,5.29,5.29,0,0,1,.51-2.38,3.74,3.74,0,0,1,1.42-1.58,4.35,4.35,0,0,1,4.28,0,3.8,3.8,0,0,1,1.42,1.58,5.29,5.29,0,0,1,.51,2.38,5.2,5.2,0,0,1-.51,2.36,3.84,3.84,0,0,1-1.42,1.57,4,4,0,0,1-2.1.6Zm0-1.43a2,2,0,0,0,1.32-.42,2.36,2.36,0,0,0,.77-1.12,4.49,4.49,0,0,0,.26-1.54,4.21,4.21,0,0,0-.26-1.53,2.39,2.39,0,0,0-.77-1.13,2,2,0,0,0-1.32-.43,2,2,0,0,0-1.33.43,2.6,2.6,0,0,0-.77,1.13,4.42,4.42,0,0,0-.25,1.53,4.48,4.48,0,0,0,.25,1.54,2.57,2.57,0,0,0,.77,1.12,2,2,0,0,0,1.28.42Zm7.66-3.93v5.18h-1.7v-8.73h1.63v1.42h.11a2.53,2.53,0,0,1,.94-1.11,3,3,0,0,1,1.63-.42,3.16,3.16,0,0,1,1.5.42,2.62,2.62,0,0,1,1,1.11,4.05,4.05,0,0,1,.37,1.81v5.55h-1.7v-5.35a2.1,2.1,0,0,0-.5-1.48,1.74,1.74,0,0,0-1.36-.54,2.24,2.24,0,0,0-1,.26,1.85,1.85,0,0,0-.72.75,2.58,2.58,0,0,0-.2,1.13Zm8,5.18V358.78h1.7v4.33h.1a4.38,4.38,0,0,1,.43-.63,2.35,2.35,0,0,1,.77-.63,2.71,2.71,0,0,1,1.31-.27,3.47,3.47,0,0,1,1.88.53,3.63,3.63,0,0,1,1.31,1.54,5.74,5.74,0,0,1,.47,2.42,5.67,5.67,0,0,1-.47,2.43,3.67,3.67,0,0,1-1.29,1.55,3.41,3.41,0,0,1-1.89.54,2.76,2.76,0,0,1-1.3-.27,2.46,2.46,0,0,1-.78-.62,4,4,0,0,1-.44-.64h-.14v1.36Zm1.67-4.36a4.42,4.42,0,0,0,.26,1.61,2.34,2.34,0,0,0,.78,1.08,2,2,0,0,0,1.23.39,2,2,0,0,0,1.28-.4,2.54,2.54,0,0,0,.77-1.11,4.19,4.19,0,0,0,.27-1.57,4.37,4.37,0,0,0-.26-1.56,2.34,2.34,0,0,0-.78-1.08,2,2,0,0,0-1.28-.4,2.05,2.05,0,0,0-1.25.38,2.37,2.37,0,0,0-.76,1.06,4.38,4.38,0,0,0-.31,1.6Zm11.89,4.54a4,4,0,0,1-2.15-.57,3.84,3.84,0,0,1-1.42-1.57,5.22,5.22,0,0,1-.5-2.36,5.28,5.28,0,0,1,.5-2.38,3.8,3.8,0,0,1,1.42-1.58,4.37,4.37,0,0,1,4.29,0,3.8,3.8,0,0,1,1.42,1.58,5.28,5.28,0,0,1,.5,2.38,5.2,5.2,0,0,1-.5,2.36,3.84,3.84,0,0,1-1.42,1.57,4,4,0,0,1-2.19.57Zm0-1.43a2,2,0,0,0,1.32-.42,2.36,2.36,0,0,0,.77-1.12,4.49,4.49,0,0,0,.26-1.54,4.21,4.21,0,0,0-.26-1.53,2.39,2.39,0,0,0-.77-1.13,2,2,0,0,0-1.32-.43,2,2,0,0,0-1.33.43,2.54,2.54,0,0,0-.78,1.13,4.67,4.67,0,0,0-.25,1.53,4.78,4.78,0,0,0,.25,1.54,2.45,2.45,0,0,0,.78,1.12,2,2,0,0,0,1.28.42Zm8.5,1.44a3.66,3.66,0,0,1-1.5-.3,2.53,2.53,0,0,1-1.06-.91A2.58,2.58,0,0,1,151,368a2.43,2.43,0,0,1,.29-1.21A2.16,2.16,0,0,1,152,366a4.18,4.18,0,0,1,1.08-.42,8.41,8.41,0,0,1,1.22-.21l1.27-.15a1.93,1.93,0,0,0,.71-.2.46.46,0,0,0,.22-.44h0a1.55,1.55,0,0,0-.42-1.16,1.7,1.7,0,0,0-1.24-.41,2.24,2.24,0,0,0-1.35.38,1.91,1.91,0,0,0-.67.84l-1.6-.36a3.06,3.06,0,0,1,.83-1.29,3.26,3.26,0,0,1,1.27-.71,4.48,4.48,0,0,1,1.5-.23,5.17,5.17,0,0,1,1.11.12,3.2,3.2,0,0,1,1.1.45,2.36,2.36,0,0,1,.85.92,3.19,3.19,0,0,1,.33,1.55v5.8h-1.66v-1.19h-.07a2.18,2.18,0,0,1-.49.64,2.59,2.59,0,0,1-.85.53,3.26,3.26,0,0,1-1.24.15Zm.37-1.36a2.39,2.39,0,0,0,1.2-.28,1.94,1.94,0,0,0,1-1.73v-1.12a.88.88,0,0,1-.35.17,5.61,5.61,0,0,1-.59.13l-.64.09-.52.07a4.63,4.63,0,0,0-.91.21,1.4,1.4,0,0,0-.64.43,1,1,0,0,0-.24.73,1.07,1.07,0,0,0,.46.95,2.1,2.1,0,0,0,1.14.35Zm6.2,1.17v-8.73h1.64v1.39h.09A2.11,2.11,0,0,1,163,362a2.51,2.51,0,0,1,1.38-.41h.72v1.63l-.36-.07h-.53a2.12,2.12,0,0,0-1.07.26,1.89,1.89,0,0,0-1,1.7v5.33Zm9.1.17a3.41,3.41,0,0,1-1.89-.54,3.69,3.69,0,0,1-1.3-1.55,5.81,5.81,0,0,1-.46-2.43,5.59,5.59,0,0,1,.47-2.42,3.63,3.63,0,0,1,1.31-1.54,3.47,3.47,0,0,1,1.88-.53,2.65,2.65,0,0,1,1.3.27,2.38,2.38,0,0,1,.78.63,5.39,5.39,0,0,1,.43.63h.1v-4.33h1.7v11.64h-1.66v-1.36h-.14a4.09,4.09,0,0,1-.45.64,2.36,2.36,0,0,1-.78.62,2.71,2.71,0,0,1-1.34.27Zm.37-1.45a2,2,0,0,0,1.24-.39,2.32,2.32,0,0,0,.77-1.08,4.43,4.43,0,0,0,.27-1.61,4.59,4.59,0,0,0-.26-1.6,2.39,2.39,0,0,0-.77-1.06,2.25,2.25,0,0,0-2.53,0,2.39,2.39,0,0,0-.77,1.08,4.37,4.37,0,0,0-.26,1.56,4.42,4.42,0,0,0,.26,1.57,2.64,2.64,0,0,0,.78,1.11,2,2,0,0,0,1.22.4Zm6.37,1.28v-8.73H178v8.73Zm.86-10.07a1.07,1.07,0,0,1-.76-.3,1,1,0,0,1-.31-.72,1,1,0,0,1,.31-.71,1.07,1.07,0,0,1,.76-.3,1,1,0,0,1,.76.3,1,1,0,0,1,.32.71,1,1,0,0,1-.32.72,1.07,1.07,0,0,1-.81.3Zm4.83,4.89v5.18h-1.7v-8.73H182v1.42h0a2.5,2.5,0,0,1,1-1.11,3,3,0,0,1,1.63-.42,3,3,0,0,1,1.56.37,2.5,2.5,0,0,1,1,1.11,3.92,3.92,0,0,1,.37,1.81v5.55h-1.7v-5.35a2.09,2.09,0,0,0-.49-1.48,1.74,1.74,0,0,0-1.36-.54,2.24,2.24,0,0,0-1,.26,1.85,1.85,0,0,0-.72.75,2.41,2.41,0,0,0-.24,1.18Zm11.52,8.63a5.44,5.44,0,0,1-1.79-.27,3.43,3.43,0,0,1-1.22-.72,2.92,2.92,0,0,1-.7-1l1.46-.61a3,3,0,0,0,.41.53,2.27,2.27,0,0,0,.7.49,3,3,0,0,0,1.16.19,2.5,2.5,0,0,0,1.59-.47,1.71,1.71,0,0,0,.63-1.49v-1.71h-.1a3.92,3.92,0,0,1-.45.62,2.37,2.37,0,0,1-.78.59,2.9,2.9,0,0,1-1.3.25,3.72,3.72,0,0,1-1.87-.48,3.54,3.54,0,0,1-1.3-1.44,5.3,5.3,0,0,1-.48-2.35,5.56,5.56,0,0,1,.47-2.38,3.66,3.66,0,0,1,1.31-1.53,3.47,3.47,0,0,1,1.88-.53,2.71,2.71,0,0,1,1.31.27,2.38,2.38,0,0,1,.78.63,4.46,4.46,0,0,1,.44.63h.12v-1.42h1.67v8.92a2.92,2.92,0,0,1-1.94,2.92,5.5,5.5,0,0,1-2,.36Zm0-5a2.1,2.1,0,0,0,1.24-.34,2.17,2.17,0,0,0,.77-1,4.09,4.09,0,0,0,.27-1.55,4.32,4.32,0,0,0-.26-1.55,2.31,2.31,0,0,0-.77-1.05,2.25,2.25,0,0,0-2.53,0,2.42,2.42,0,0,0-.77,1.07,4.31,4.31,0,0,0-.25,1.51,3.86,3.86,0,0,0,.26,1.5,2.22,2.22,0,0,0,2,1.42Z" fill="#1a1929"/>
              </g>
            </g>
            <rect x="72.81" y="406.92" width="202" height="23" rx="3.5" fill="#eef0fa"/>
            <rect x="72.81" y="406.92" width="202" height="23" rx="3.5" fill="none" stroke="#dfe3f6"/>
            <rect x="72.81" y="446.92" width="227" height="23" rx="3.5" fill="#eef0fa"/>
            <rect x="72.81" y="446.92" width="227" height="23" rx="3.5" fill="none" stroke="#dfe3f6"/>
          </g>
        </g>
        <rect x="24.81" y="338.92" width="351" height="147" rx="11.5" fill="none" stroke="#eef0fa"/>
      </g>
    </g>
  </g>
  <g mask="url(#sidebarSvg_mask)">
    <path d="M399,0V1211.77h2V0Z" fill="#eef0fa"/>
  </g>
</svg>
